<mxfile host="app.diagrams.net" modified="2023-06-16T08:21:53.189Z" agent="Mozilla/5.0 (Windows NT 10.0; Win64; x64) AppleWebKit/537.36 (KHTML, like Gecko) Chrome/114.0.0.0 Safari/537.36" etag="TrkHtnpUmP9pkD7IDxW0" version="21.3.8" type="github">
  <diagram name="Pagina-1" id="9Qv3YbRijVVHylBDt862">
    <mxGraphModel dx="1841" dy="1028" grid="1" gridSize="10" guides="1" tooltips="1" connect="1" arrows="1" fold="1" page="1" pageScale="1" pageWidth="827" pageHeight="1169" math="0" shadow="0">
      <root>
        <mxCell id="0" />
        <mxCell id="1" parent="0" />
        <mxCell id="S5GqEVZqtkomO6TtCBoP-1" value="" style="ellipse;shape=cloud;whiteSpace=wrap;html=1;verticalAlign=top;" parent="1" vertex="1">
          <mxGeometry x="20" y="200" width="220" height="260" as="geometry" />
        </mxCell>
        <mxCell id="S5GqEVZqtkomO6TtCBoP-2" value="" style="sketch=0;html=1;dashed=0;whitespace=wrap;fillColor=#2875E2;strokeColor=#ffffff;points=[[0.005,0.63,0],[0.1,0.2,0],[0.9,0.2,0],[0.5,0,0],[0.995,0.63,0],[0.72,0.99,0],[0.5,1,0],[0.28,0.99,0]];verticalLabelPosition=bottom;align=center;verticalAlign=top;shape=mxgraph.kubernetes.icon;prIcon=api" parent="1" vertex="1">
          <mxGeometry x="240" y="246.5" width="50" height="48" as="geometry" />
        </mxCell>
        <mxCell id="S5GqEVZqtkomO6TtCBoP-4" value="Nice in Contact" style="shape=cylinder3;whiteSpace=wrap;html=1;boundedLbl=1;backgroundOutline=1;size=15;fillColor=#fff2cc;strokeColor=#d6b656;" parent="1" vertex="1">
          <mxGeometry x="90" y="284" width="80" height="105" as="geometry" />
        </mxCell>
        <mxCell id="S5GqEVZqtkomO6TtCBoP-5" value="" style="sketch=0;html=1;dashed=0;whitespace=wrap;fillColor=#2875E2;strokeColor=#ffffff;points=[[0.005,0.63,0],[0.1,0.2,0],[0.9,0.2,0],[0.5,0,0],[0.995,0.63,0],[0.72,0.99,0],[0.5,1,0],[0.28,0.99,0]];verticalLabelPosition=bottom;align=center;verticalAlign=top;shape=mxgraph.kubernetes.icon;prIcon=api" parent="1" vertex="1">
          <mxGeometry x="240" y="306.5" width="50" height="48" as="geometry" />
        </mxCell>
        <mxCell id="S5GqEVZqtkomO6TtCBoP-6" value="" style="sketch=0;html=1;dashed=0;whitespace=wrap;fillColor=#2875E2;strokeColor=#ffffff;points=[[0.005,0.63,0],[0.1,0.2,0],[0.9,0.2,0],[0.5,0,0],[0.995,0.63,0],[0.72,0.99,0],[0.5,1,0],[0.28,0.99,0]];verticalLabelPosition=bottom;align=center;verticalAlign=top;shape=mxgraph.kubernetes.icon;prIcon=api" parent="1" vertex="1">
          <mxGeometry x="240" y="365.5" width="50" height="48" as="geometry" />
        </mxCell>
        <mxCell id="S5GqEVZqtkomO6TtCBoP-9" value="" style="endArrow=classic;html=1;rounded=0;exitX=1;exitY=0.5;exitDx=0;exitDy=0;exitPerimeter=0;entryX=0.005;entryY=0.63;entryDx=0;entryDy=0;entryPerimeter=0;" parent="1" source="S5GqEVZqtkomO6TtCBoP-4" target="S5GqEVZqtkomO6TtCBoP-5" edge="1">
          <mxGeometry width="50" height="50" relative="1" as="geometry">
            <mxPoint x="380" y="610" as="sourcePoint" />
            <mxPoint x="430" y="560" as="targetPoint" />
          </mxGeometry>
        </mxCell>
        <mxCell id="S5GqEVZqtkomO6TtCBoP-10" value="" style="endArrow=classic;html=1;rounded=0;exitX=1;exitY=0.5;exitDx=0;exitDy=0;exitPerimeter=0;entryX=0.005;entryY=0.63;entryDx=0;entryDy=0;entryPerimeter=0;" parent="1" source="S5GqEVZqtkomO6TtCBoP-4" target="S5GqEVZqtkomO6TtCBoP-2" edge="1">
          <mxGeometry width="50" height="50" relative="1" as="geometry">
            <mxPoint x="180" y="347" as="sourcePoint" />
            <mxPoint x="270" y="347" as="targetPoint" />
          </mxGeometry>
        </mxCell>
        <mxCell id="S5GqEVZqtkomO6TtCBoP-11" value="" style="endArrow=classic;html=1;rounded=0;exitX=1;exitY=0.5;exitDx=0;exitDy=0;exitPerimeter=0;entryX=0.005;entryY=0.63;entryDx=0;entryDy=0;entryPerimeter=0;" parent="1" source="S5GqEVZqtkomO6TtCBoP-4" target="S5GqEVZqtkomO6TtCBoP-6" edge="1">
          <mxGeometry width="50" height="50" relative="1" as="geometry">
            <mxPoint x="190" y="357" as="sourcePoint" />
            <mxPoint x="240" y="490" as="targetPoint" />
          </mxGeometry>
        </mxCell>
        <mxCell id="S5GqEVZqtkomO6TtCBoP-13" value="" style="endArrow=classic;html=1;rounded=0;exitX=0.995;exitY=0.63;exitDx=0;exitDy=0;exitPerimeter=0;" parent="1" source="S5GqEVZqtkomO6TtCBoP-6" target="S5GqEVZqtkomO6TtCBoP-18" edge="1">
          <mxGeometry width="50" height="50" relative="1" as="geometry">
            <mxPoint x="530" y="610" as="sourcePoint" />
            <mxPoint x="390" y="460" as="targetPoint" />
          </mxGeometry>
        </mxCell>
        <mxCell id="S5GqEVZqtkomO6TtCBoP-14" value="" style="endArrow=classic;html=1;rounded=0;exitX=0.995;exitY=0.63;exitDx=0;exitDy=0;exitPerimeter=0;" parent="1" source="S5GqEVZqtkomO6TtCBoP-2" target="S5GqEVZqtkomO6TtCBoP-18" edge="1">
          <mxGeometry width="50" height="50" relative="1" as="geometry">
            <mxPoint x="480" y="550" as="sourcePoint" />
            <mxPoint x="350" y="340" as="targetPoint" />
          </mxGeometry>
        </mxCell>
        <mxCell id="S5GqEVZqtkomO6TtCBoP-15" value="" style="endArrow=classic;html=1;rounded=0;exitX=0.995;exitY=0.63;exitDx=0;exitDy=0;exitPerimeter=0;" parent="1" source="S5GqEVZqtkomO6TtCBoP-5" target="S5GqEVZqtkomO6TtCBoP-18" edge="1">
          <mxGeometry width="50" height="50" relative="1" as="geometry">
            <mxPoint x="280" y="570" as="sourcePoint" />
            <mxPoint x="370" y="400" as="targetPoint" />
          </mxGeometry>
        </mxCell>
        <mxCell id="S5GqEVZqtkomO6TtCBoP-18" value="" style="shape=image;verticalLabelPosition=bottom;labelBackgroundColor=default;verticalAlign=top;aspect=fixed;imageAspect=0;image=data:image/png,iVBORw0KGgoAAAANSUhEUgAAAQQAAAE7CAYAAAA7JP9yAAAACXBIWXMAAAsTAAALEwEAmpwYAAAGMWlUWHRYTUw6Y29tLmFkb2JlLnhtcAAAAAAAPD94cGFja2V0IGJlZ2luPSLvu78iIGlkPSJXNU0wTXBDZWhpSHpyZVN6TlRjemtjOWQiPz4gPHg6eG1wbWV0YSB4bWxuczp4PSJhZG9iZTpuczptZXRhLyIgeDp4bXB0az0iQWRvYmUgWE1QIENvcmUgOS4wLWMwMDEgNzkuYzAyMDRiMiwgMjAyMy8wMi8wOS0wNjoyNjoxNCAgICAgICAgIj4gPHJkZjpSREYgeG1sbnM6cmRmPSJodHRwOi8vd3d3LnczLm9yZy8xOTk5LzAyLzIyLXJkZi1zeW50YXgtbnMjIj4gPHJkZjpEZXNjcmlwdGlvbiByZGY6YWJvdXQ9IiIgeG1sbnM6eG1wPSJodHRwOi8vbnMuYWRvYmUuY29tL3hhcC8xLjAvIiB4bWxuczpkYz0iaHR0cDovL3B1cmwub3JnL2RjL2VsZW1lbnRzLzEuMS8iIHhtbG5zOnBob3Rvc2hvcD0iaHR0cDovL25zLmFkb2JlLmNvbS9waG90b3Nob3AvMS4wLyIgeG1sbnM6eG1wTU09Imh0dHA6Ly9ucy5hZG9iZS5jb20veGFwLzEuMC9tbS8iIHhtbG5zOnN0RXZ0PSJodHRwOi8vbnMuYWRvYmUuY29tL3hhcC8xLjAvc1R5cGUvUmVzb3VyY2VFdmVudCMiIHhtcDpDcmVhdG9yVG9vbD0iQWRvYmUgUGhvdG9zaG9wIDI0LjUgKFdpbmRvd3MpIiB4bXA6Q3JlYXRlRGF0ZT0iMjAyMy0wNi0xNFQxMzozMTo0NyswMjowMCIgeG1wOk1vZGlmeURhdGU9IjIwMjMtMDYtMTRUMTM6MzM6NDQrMDI6MDAiIHhtcDpNZXRhZGF0YURhdGU9IjIwMjMtMDYtMTRUMTM6MzM6NDQrMDI6MDAiIGRjOmZvcm1hdD0iaW1hZ2UvcG5nIiBwaG90b3Nob3A6Q29sb3JNb2RlPSIzIiB4bXBNTTpJbnN0YW5jZUlEPSJ4bXAuaWlkOmY3NjFlNzZiLWU5MjctMzY0ZS04MDY3LWNmZWIyYTI3Y2IyYSIgeG1wTU06RG9jdW1lbnRJRD0iYWRvYmU6ZG9jaWQ6cGhvdG9zaG9wOmYzNmUzOWNkLTVjMzktNzc0MS1iODRiLTYyZTQ3Y2Q2NjAxZSIgeG1wTU06T3JpZ2luYWxEb2N1bWVudElEPSJ4bXAuZGlkOmNkYWQ0N2E4LTQyMDEtNmQ0NC04ZTg3LWI1MDYxZjI4YWFmOCI+IDx4bXBNTTpIaXN0b3J5PiA8cmRmOlNlcT4gPHJkZjpsaSBzdEV2dDphY3Rpb249ImNyZWF0ZWQiIHN0RXZ0Omluc3RhbmNlSUQ9InhtcC5paWQ6Y2RhZDQ3YTgtNDIwMS02ZDQ0LThlODctYjUwNjFmMjhhYWY4IiBzdEV2dDp3aGVuPSIyMDIzLTA2LTE0VDEzOjMxOjQ3KzAyOjAwIiBzdEV2dDpzb2Z0d2FyZUFnZW50PSJBZG9iZSBQaG90b3Nob3AgMjQuNSAoV2luZG93cykiLz4gPHJkZjpsaSBzdEV2dDphY3Rpb249ImNvbnZlcnRlZCIgc3RFdnQ6cGFyYW1ldGVycz0iZnJvbSBhcHBsaWNhdGlvbi92bmQuYWRvYmUucGhvdG9zaG9wIHRvIGltYWdlL3BuZyIvPiA8cmRmOmxpIHN0RXZ0OmFjdGlvbj0ic2F2ZWQiIHN0RXZ0Omluc3RhbmNlSUQ9InhtcC5paWQ6Zjc2MWU3NmItZTkyNy0zNjRlLTgwNjctY2ZlYjJhMjdjYjJhIiBzdEV2dDp3aGVuPSIyMDIzLTA2LTE0VDEzOjMzOjQ0KzAyOjAwIiBzdEV2dDpzb2Z0d2FyZUFnZW50PSJBZG9iZSBQaG90b3Nob3AgMjQuNSAoV2luZG93cykiIHN0RXZ0OmNoYW5nZWQ9Ii8iLz4gPC9yZGY6U2VxPiA8L3htcE1NOkhpc3Rvcnk+IDwvcmRmOkRlc2NyaXB0aW9uPiA8L3JkZjpSREY+IDwveDp4bXBtZXRhPiA8P3hwYWNrZXQgZW5kPSJyIj8+0mw55wAAIIZJREFUeNrtnQtcVGX6x7FQMlNbKfHf5mJXSs1rK97d7MK62Z8ua2pamKaglqTlotVfytJMxRRDTSVTwTsKKmoqeEHUVDTEkSjgnyko2nhlRORy/s9zOIf/MA0wwJwz58z83s/n+2nbXYs58z7f93me930PboIguFUGhl1HPeIOC+rZ+oe9vb3d+vTpU4Hg4GC30NDQcqZNm+aWkJCgKPzvMP93hoSE/Onn8vHxwbetkVFVfFuNeQhB8aBnPIjmxGMER8uTTZs2fZKC51GiYWBgYHmAxcfHi4GXkpJS4y9TqxgMhnKhyJ+TZSYLxMvLCzMHQnC6wOegv594iHjCw8OjPU32bgMHDuxPATAuMjJyAQVEgtFoPE7P9lfiNBFDBBL3Okvw1wWTySRKIzo6WpRGQECAKAySp+Vzr4cpCCFoLfAfIdrRhO1BE/cVmsAf0Or+LU3onfTsfiIyid+I34kLhJG4SlyT/nqFOEtsJPoRDSCFSmFh+iUnJ0+k5/sRPesAyqqeoWfvQ+LlzOse4i7CHbKAEJQSgBz4DxNt27dv39WfhhT4SykNTqRndIrIlgLbMuhlrhM3iWKi1Ixi6b/PIr4kmiHwrVKfGECslp7VeeISkUfkEL9kZWUdIFFE0XfzCWVkr/n6+raTvru7XV0SEELtV38WABezrSn4n6cVaCylrhG0Ku2QVvwss8C/bBH4N4gCK0HPlJj9Z/MhS4H/WduJvsgSrOIhlVWnpWdeJD1rE5Ev/VXmuvQ8cwlDSkrK9piYmDkhISHDKJvoQt9tC1eTBIRQs9X/UapPO/v5+b3EKz+tMt9THXvQbCWyXPErW+0rC/rqRqkkk9PSpPeAAKwKIUgqvW5YEa7l91BoJgyT9GcuS9lEKgk+JiwsbCplEv/29vZuQ3PgL0R9ZxUEhGBdAnKX/wmaBM/S6j8mMjIygtJ+rvfTpFo/T5o4Va34tQ38qoRQIMknHGVDlUI4K2UEpdU8z8okcdMik/iDxZ+Tk5NAWcTc4ODgAMoMO9Ec8SQaOIsgXF0IllnAXykD6E6l/8iIiIj5VGvuos+VLqWU5qv/jUpWfnsFflUTuFiaoHuJ/igb6iSEmkjitlkmcUOaD5kkiJ20WMwKCAgY5OXlxRnEvXrOIFxRCJZZQBtfX99+XAJQeriSPscx4pzZ6p9vZfUvUUkAlU3YW1KWguai/YVgiySsCeKi1IeIpRLjMyor/aUG8116koOrCMFcAg94eHh04yyA9/qNRuMe7jxLzb8r0iS65YDVv6ZZAsuKdy5eqkGWUF8KGEdSX4dCqKkgrktl3UEqL8Ipe3iDD5bR3GukdTk4sxAsJdB94MCBQdHR0YtNJlOy1HSqKgvQigAqm5CFUibDvYT7bQhEziT6EKPsSFAN4UboM4SnghJRQwi2CKJIWljypcXmEMlhPslhiJbl4IxCqCdLgB48HwIaTV/EUvr5DksBpIcswNYsgT9DBjGHCCHGyMFqvHF2ZGbeQSaICCEWHPhl/s79GbMNlZC++3RIZnzaa78T521EsGTn6fcF+mdZo4S4QWTQzxJPRBBhxPS8a5mf0M88nhhdiUSeq4FEWHxjVRZCVYKwlAM3o48kJCQsDAwMfEvqO2hGDs4iBPNs4ElfX983eVeAMoED9HOdqUYCuhnXbl4UKIAEw7kdHGCl+zKmF1MQ3iaMxJVtaZ3zd5zqdJsoIUotEBTAZCP8MxUTRUQhcY24QJwncqW/Mhe2nex4mT6LieDPVkKfMZ8+a2bq73Hb6LPPJ9FNpkfxviQ/c3GwTCYQXxNJ0qp8UwPfcXWZQzJlrXP8/PxedSs7xu7hSDnoXQjm2UAvMm6wwWBYI+3TG/UmgZuF18SAP35mnbiqbj/1dtnKm9pFUCig60ppLWBZFdggkUIrErkoieMSye+GKMOTb5TyszqavaKUnl0RSVNu8uWbNX+1lNlZkwP3HLKzsrK2hISETKasoTfN6WaOEINehSCL4AnKBoZQNvCNlA2clR5uoZYlkHPZINCKVyHoNRrwWpPIzWqyEOYWC2Tryf4CyUJ8xixYFq0Gyz5zOcglIC9kRylrmEdZw8s0xx9UUwx6E4Isgjb0sIZTHbZcOij0h7QiWIrAoYPSW3Ei8qTccWq0sDX1BVcKfEdLxGqZtOVkH1HC/J1knN8j5F3L1KoceD5nUNawPCAgYKhUTtSDECqKoC1vF6akpERLB4auaikb4OA/8Mv8slVfu2k+sIDKj/Jsgr/D28W3tCCHErMLbZkkhihuQnp4eDyipBi0LgRZBE+RJQMNBgPfYPtZ2iq87chsgCcNN/cS06cInJ4isJwLzuZ2nw4Ryw1u5mpEDHx0elVwcPAwpcSgZSHw+fAnqDQYQXZcJW2vOVQEXPtzBgABuKYg9mVMF85cOq4VMURTxvAmxUgre4pBi0IQswJvb+/+8fHxC6UegUNEwFkAN/94bx0lACgvMU52FMtCzh54Z8hBYuDdlJ+Tk5MX+/r6+kvH8Os5mxAa8KvEQkNDJ5hMpt1C2YstVBWBLAFuAvIXjwAA1aGyHMzFUCJtsR6LiIiY1rRp0651lYJWhCBmBXw4g7uqQtnrxG6pKQJIANhTDio0Ji3FcNFoNMYF8Isl3dxa1lYMWhCCmBWEhYV9SP+MfdI+rHlWoOi2INeFKAeAEjsX3JRUYVvT8oLVaSq1w/jYfm2k4GghNPDx8XkxJSUlUih7s7AqWQHvDvA2EyYuUKUhebK/mIGqIAY5W7iUk5OzqU+fPoPcyl7zV08PQmhA2c1gk8kUL/UKipTOClgEOBwEHCeGHmI5oVK2wIvr8WnTpoVSrLWzVQoOEQKVCA2io6MD6M/skU5kKZoVQATABcUg3+M4yzsRtpYQqguBZUA1znDpOnKhklkB1284MwC0Ch+jVvBcg3m28AeV5StJCr2rk4KqQpBkMEJpGXCHl5uF2DEAeoCbjwpuWcpSuMJH/kkKfaqSgmpCUEsGfJqQzYuJBvQE73QpeCPTXApR/KqAyqSglhAaxMTEDFNaBtzJRVYA9MzhzCVKS8HIu3q0QHe2JgU1hNAgODj4DaHsteGKyaDsijEmFHCOEkKhg02yFHIiIyOn8a8dUFsIDdq3b/+KyWT6QTp7rYgM+MYhJhJwthOPCmcKJ6VTjfXUEgKfQOxjMBjWSZeTFJEBp1iYQMAZ4YVOQSHcNhqNW729vSvsPCglBH7haYuwsLDpQtnrzhWRAb/xBhMHODNHs1coKYU/EhISZks3JZUVQtOmTXtSqbBXUOhV2Fxj4Q4CcIWr1gq9oEV+lf8JKuv7yVmCUkLwCKYhZQeFKBUA0GzpcJ1/N6Vb2W+1VkQIXC60ysrK4vceXlGqXEB2AFwpS1Do4JKYJVAmf9DLy6s7ZwmKCMHPz+9ZTkWUKhc4hcJEAa6EQkec5SwhLyQk5D2KXXclhOARGhr6Hu91CmW/LxHNRAC02VyUpWCKiYlZzLFrbyFwudA8Ojp6ofSiE0XKBb4phkkCXAk+eKekEFJSUnZR7N6thBAeS05O5jcfXVXqFiMyBOBqHMlepqgQaKRR7DZWQgg+RqMxVTqMpIgQrphyMUmAS5F1IUlRIRBnvLy8mikihIKCgp+VFAKPuJ96YKIAl9llyL91WWkh5Hbq1Km5IkLIyclJVVoIR7KjMVmAS5CQHqz025VMxcXF5zw9Pe9XRAgGg+GQ0kLgk4rIEoArcFHZNzeLQrh+/UY2CcFTESHs3bt3t9JC4JF9MYXSqQ6YNHZkc2o7YcPxNrWC/yyeoX1JzpwlKDxEIeTm5hrIB4r0EJovW7ZsLh92EFT43Qo/Zq/AxCE2nXiqPDC/O/RQBebu86rAtIRGQuhON1WZkXhPhZ8hfL9XhZ9x5Y+PQCwW7DS8IpSUFqshhPyfMzJ+VEII4sEkf3//Ufn5+Qal7jFYjr0Z4U6/YkcdeUwMnCXJ3uVBxUGmdmCrzew995Z/Xlkeq48+IT6TeKfODvsJBbdV+9Vw12Lj4nYpJYQ7evfu7ZeUlBSv1NFla+PAr4t1++VvPNFGWHesdYWAn5l4r9MHu70I23NfuTCWS5lG7E9P6XY+/GDwF0yFRkGlUUrlwsXvl6+IVVIIPSZMmLBAKPsFLKr9ynbDud1CfJqG38cvrfY8cSOSHhBXPwS0srAovj3Qsrwk0XrPKTF9rFqZQbkQDiQfPENCWK+kELoRoRkZGVlqCoHHhWuZwpbUvppI9Tm1XXqwbMX/YlcDBKhG4FJL7mFwZqaV0uPEmWVq9AwqDJPJVEoyyCDWKS2EiZQlHCsoKCgRVB7y72VQO+3nVYhXfleo7Z0NLtEWUibBvRq1yw0uEfKupwuOGImJe4pJBqeVFkIP4kMiISoqqlhw0FDyNzexAOQOPgLK+eCMjrMI7knwDo5SMjh5drXqWYE80tPTBRJBEWFQUggeJIKXiJnEKeJ2amqq4MiR+nsM1Y4961z/Rx99XMwAkP67HrxVyxkEl4Fb7bAteuDXT4Wb6jUO/zSMly8LUdGrFBcCn0PwIgm8TSwjrhGl/v7+wtWrVx0qBbZwym/Lhe1p3WuUBXAPAM0/YG07lOdGTbMHFkH+rTyHxkJhYaEQGxfHMlBFCI+SBMYTsUQhITATJkxwuBR4FBffksTQt9JmIKeJ2PYDNek/cPlY2YGqbWldhENZYQ4XgSyD7Tt2yDJQRQiPS0LYai4ELUlBzhh+u5Qs7Dw9mL6wv4vlAPoBwB6ZAzcmt6Y+LfyQ1k84nRMnFBaZNDHnrchAFSH4SELYZikErUmh4r2IU8IOwzJh2u5OmNig1mxNWyT8cuGEUFxSpKn5XYkMHC8ELUtBLCnoi4QcQG0kUKjM72NUUgbaEAIzdOhQISsrS9DykOWQkB4tzNs/EJMfiMxK9NO8BOTBC++WrfGVyUA7QpDZtWuXoJdx7aZRSDubLMSmzkP24GKsOvqZcOx/dwmXrufoZr5mZ2fLW4v6EQIzc+ZMIT8/X9DbOHc5U5wk649/BUE4Gfyd/pi9XTjzx8+a6wfYUiIcOny4OhFoVwhyCZGRkSHoeVzOzxPSc4+IJcbSQ+MQWDph4YERYs+Isz89ZQCVHTiqpkTQhxBkwsPDBaPRKDjD4JXl/NXfxIm2L2O9uOogAB3L8h8nicH/05m94nej9R6AraOgoEA4evRYTUSgDyGY9xb4Qzrj4EyCm5VcbnBzCqJQpubnXg8/Y27+6X3lr2r8TJn1mrXraiMD/QiBCQoKEhx9D0LV2o9WK161eAKbywLlh/U0n5+NHPRcqvGzu1mY7zLz5UJeXk3LA30LQebzzz/XfX/BniWIXIZwICRnxomBIeMMK7v8WbjM4s8op/fOlOLXZVy6dImvLddVBPoVgszHH3/sUhmDPbZJ5UAyR5ZJZVhKxhbk4K0M86A2h8snDIeIQP9CMD/pCDFguMrIzc0Vdu7aZW8ROI8QzMVw+PBhXZ5hwMCosjwsLhbOnDlT1ZFjCKEqoqKiNH8UGgOjusHnCHj7sA67BhCCZdawd+9ezV6ewsCwHHyykI8Z22HHAEKoikWLFom9Bmc9z4Ch75Lg7Nlz4hFjG+4bQAhKyOHYsWPoN2BAAhDCn49HQw4YapUD3Bw8kHxQSxKAEKq6acnHpPlLw8CwV2OQjxMnJu7RogAgBFvht0NzacFbmXl5ODCDYdu4fv2G2BTkLEDF3QEIQW34LgVvZ3J5AUFgmAuAM0reHjR7nblegRDqkkFw/4FLDL5bgR6Ea/QA+BIR/5YjLgF0mAFACGqfe+AsIikpSVw1sMWp710Avi/wa2amuPo76FwAhOBscKkhZxJ8DgINS+0NPrjGW4C88u/bt98ZUn8IQW/wbU1uWvJJSlkUKDuUTfd5xZcDn/f/VbgbACFACPaRBWcV8fHxojD4XgYyC9u2+DjoOeBPnTol1vkK3gyEECAEbZUhzPr160VpMAaDQRSHs/Qv5Dqe4Wu/HOhMyvHjYrAzLpzeQwigboeuZIlYioTh8xayTKrj4sWL5YFaE7hBJwe1ZWDLICghBKAzFn27GMEDIUAIAEKAECAEACFACBACgBAgBAgBQAgQAoQAIAQAIQAIAUAIAEIAEAKAEACEACAEACEACAFACABCABACgBAAhAAgBAAhAAgBQAgAQgAQAoAQAIQAIAQAIQAIAUAIAEIAEAKAEACEACAEACEgoCAEACFACBACgBAgBAgBQAgQAoQAIAQIAUIAEAKEACEACAFCgBAAhAAhAAgBQoAQAIQAIUAIAEKAECAEACFACBACgBAgBAgBQAgAQgAQAoAQAIQAIAQAIQAIAUAIAEIAEAKAEACEACAEACEACAFACABCABACgBAAhAAgBAAhAAgBQAgAQgAQAoAQAIQAIAQAIQAIAUAIAEJAMEEIAEKAECAEACFACBACgBAgBAgBQAgQAoQAIAQIAUIAEAKEACEggCAECAFACBAChAAgBAgBQgAQAoQAIQAIAUKAEACEACFACABCABACgBAAhAAgBAAhAAgBQAgAQgAQAoAQAIQAIAQAIQAIAehACDzcaQKVmoGAghCAdimVKIYQAIQAIAQAIQAIAUAIAEIAEAKAEACEACAEACEACAFACABCABACgBAAhAAgBAAhAAgBQAgAQgAQAoAQAIQAIAQAIQAIAUAIAEIAEAKAEACEACAEACEACAFCgBAAhAAhQAgAQoAQakWvwWMgBDsSvioOQQ4h6FQGA94Rui5IEnqMnQ4h2IG5q7YIQzanC/OjNyHQIQSd8Zyf0G32NqHbtwdFKfR6OQBCqAORK1YLw+MMwuCtGcLIzWni3yPYIQTd0OOTpaIMZLrP2iJKAkKoHSEbD4kykOG/R7BDCLqg51sTK8hApmfIAgihFoSt3l5BBjIz1+xAwEMIGu8bUGnQbX6CVSGIUhj+EYRQA76NWicEbDFYFQL3ExZEb0TQQwgapZ9/ed+gMsR+ggZ3HrQoBO4TcL/AmgxkuK/A0kDgQwiaayJ2/yq2ShmUS+GbfZqTgtaE8N2KKGFM7IkqZSDD0oAUqhVCiXJCoJUQQqhI9y832CSDcqis0NLOg9aE8MHGozbJQCYo7iR2HioRAsmydOaaHaWKCYHTYjMpYEfh06iayUDeeZi3SzNS0JIQPrLYUbAVzigghYrwmQ3uwXy+bq+gnBB4Qv+/FFy6TKitDCpIYcA7EIJUJoTUUgbmUkD5UMac1fFi45Wfi/JCcHUp0OeucZlQRU+BtypdWQi8so+zsWdQHdxodPXdhxlrdsrPo5RRRwjyCqeT8/p23VqsZjehxlJw8BFnRwphUdSGancTagqvjHx+wRVlMGVDkuXzUE8I8mTuOXqqy1xWYgnaUwYVzil8GO5SQuD7CZWdM7AH09YmuowIqii51BWCDB/XdeoTiBSsLD+lZFCedVEp0qv/IKcWApcIH9WxX2ArvGPBWYgzy2DJyjXC+5tSKnsGjhGCfGZfC00ye5cI/LmUFsGf+grjZjqlEDgrkC8qqQWXEM6aLfDnqibLcpwQyrOFSYs1fZnH5i1Fqus5ONWUgSMEq4YQ1MwKKoMbl87ScOSsx8ZGrOOFIDLnB4d3z+vUK7DTLoI9Go7ixSgFd3SUFALXttPX7lY9K6gKbrxxmq3X8oB/fnlLUT9CkFe5r2J1IwZRBF+s04QIrJYRColBCSFwRsDprJZEYFlGcGDp5dwCP08O7Fo0YbUlBD2IQcsiUEMM9hQCr2C1nLgOg0sZrYqBf646Pk9tCqFCKfFhuOqddGuHi7hxZ+ulJC2KgU9K9hw1xeFC4NWL309Q0zsIWmPixiPi59DCEWg+R2Gn56lxIVhssXFQqrYzQRLgRqFesgG15FAbIXBvgCct733XoJ6FHKqQKj9PzlbsXGbpRwiWpx7FST16qt1OP/I/hwXAZyT0mgnURg5ieUZlBQvClgtUtgiBL8pwc5AnLN8udDYBVLc78UlMsngk2F4veeVSgN8izX0Wex3bdiohWGX2NnE1Fye3zPCPxF6EDAe8+f/O/39XCf6aSqL71NUVnyXJl5/h/MXfC/NXxYoXYnjyMLzy82EXhSerriXBz0d+XgwLk4Ncxvx5ys/UAc/TiYQAVOGL7+NooqYg0J0TCAFACABCABACgBAAhAAgBAAhAAgBQAgAQgAQAoAQAIQAIAQAIQAIAUAIAEIAEAKAEACEACAEACEACAFACABCABACgBAAhAAgBAAhAAgBQAgAQgAQAoAQEEAQAoAQIAQIAUAIEAKEACAECMGFmLo8HkKAECAEUMaUqB0QAoQAIQAIAUKAEACEACFACABCgBAgBAAhQAgQAoAQAIQAIAQAIQAIAUAIAEIAEAKAEACEACAEACEACAFACABCABACgBAAhAAgBAAhAAgBQAgAQgAQAoAQAIQAIAQAIQAIAUAIAEIAEAKAEACEAJyASav3QggQAoQAIAQIAUIAEAKEACEACAFCgBAAhAAhQAgAQgAQAoAQAIQAIAQAIQAIAUAIAEIAEAKAEACEACAEACEACAFACABCABACgBAAhAAgBAAhAAgBQAgAQgAQAoAQAIQAIAQAIQAIAUAIAEIAEAJwAkLW7oMQIAQIAZQxYf0hCAFCgBAAhOAKKCqErhFJCCIIAegrQygmITRRRAhdZsQhiCAEoCMhzFiz86q7u3tDRYTQaXIkgghCADoSwtQFy09T7NZXQgj1Wo/4dBOCCEIA+mH85P/ZRLF7pxJCcGv5/KBxNIkKEUgQAtA+AVsMRYPfeGMKL+aKCOEO9/odu0bsz0AgQQhA+0zZkPRby5Ytn+fYVUQINO5uM2rqUppIpQgmCAFou38w6Yuw1RSz9yspBLd7vH0G0ES6gGCCEIB2mbjxSF7Hjp0C5LhVTAg0/qvzlJVraTKVIKAgBKC9zIAo/nzJ2hh3d/dWagjB7e4HHhqIXgKEADQpA84OMig7GGoes4oKgeuSv/1r2EyaUJcRVBAC0I4QRm5OuzokYMRszuTVFAKPzu1DFq2mSVWAwIIQgCa4NSU8kkuFLpbBqoYQ3Oo3bvaC79ydO2hiFSG4IATg0FKhKHRNwu4WLVq8aC1WVRGCtOvw377hibshBQgBOK6JGLI+eV/btk/9u7I4VU0IkhReJikkQAoQAlBfBpPW7NtLMhhQVYyqKgRJCv4khV00yW4j0CAEoApFn0TvTGzZsuWr1cWn6kKQpPCi79wfNtNEMyHYIASgbAORZPADyeBlW2LTIUIQ70g3bPRMh8mLV9JkMyLgIARg/3MGAVsMVybOWbKuSZMmfrbGpcOEII1OD70cOIsm3K+49wAhAPsJYVzsiV9ff3vULIqxp2sSkI4WgnjEucljHd6mEiIBZxUgBFBnbk6K2rmnXcfOIyi2HqhpMGpBCHIJ8VzbcV9/jwtR2uS9DUcgBA2XB8zwOMO54GnzllKJ8Fxt41AzQpBGq3tb+455ekZcIk3CfASidhizMQVC0ChDNqff+M+K7bsoKxjJ7yeqSwBqTQjy6NnKf9TXvuGJfDGqGAEJIQDr24njNxw5/dqwwFnu7u7d7BF4WhUCj+b1Gzd7rfW7s3kn4hyajhACEMsDpoTLg3HTv1nh6en5CsXKffYKOi0LQR4PNnrw0bfaTYiIoYl5EWKAEFxZCCSCvHHzojY92abdsLqWB3oVQrkYPJq1GNp69Ay+OZkDMUAILkTJyM1pF96duzyORDCaYsFHqSDTkxDk8VcSw2ASQzRN1LN4IxOE4OQi+H3MjIVRLVu2HCxlBHcqGVx6FEL5+QUSw6uPDv5goe/XOww4wwAhOFGf4PZ7MUcyR0ydF0ki+LflS0wghGquRhBdmnf954QOkxfHSlkDblNCCHrsD1wOXhK75x8vvhLq7u7em+Z1U7WDyRmEUH62SSon/B8eOH6O79wdP9JEvopeA4Sg8Wzg1vg1+08PnhC6qEWLFpwNPCjNZYcMZxKC+fDgxovn08++3ea9OVFdIvZl4jdJQQhaejfB6E0pOaO+Wrq1e98X/kNztSvRWAuB46xCMB8N73Cv34bkMJLkEA05QAgOlEAuSSC+p1//yVQS9KK52Yx/0ZmWgsUVhGAph9Ykh3daj50V5RuxPwsvaoEQFBJACZ8klDIBTUvAlYVgPu7isqLJYx3ffHjg+IWdPo0+JvUcsI0JIdT6FOGQzem33lu9P3PYZ/Niuvb950SSQA+aZ3/RsgQghD8P3ttt5t6wUXfKHt73Gf7pqqdnbT4p/T4J3KWAEKosBcbGHLsYOH/Nnn8OHvGlp6fnS1JjsAH/NmW9BQKE8OdRT/oy+ZxD3xb/eHXik0FfriFBpEpvdyqCEFz3ijGXAkFxJ6+NWbr1xMAJn33n06Z9EM2VzkQTvWQBEIJ9BNGifuNmvZu17xVMJcbyDh8vO06BcsVVSgwXFIJYAgRsMdweuzopd8Ss7/f0ezNoHgmA7xB0lM4I3KnHLABCsL8geCI0Ih5v8ljH1//qN/TrNsHzDnWevslpBeGEQii18t9x+n959MIYXv1Xduz1/PiGDRvyAaHmRH0pA6jnzJMbQrCvJO4mWt3TqvUL93Xt98FDA4KXtZu8NLnLnO2/U1Dd1LMsnEwIpZT23wpcvvv8sK++O/Tq2MmRFPzBFPx9pfr/Lmdc/SEEbUiCy4373Bs2+jtlE8Mom5j1yKAPNrebtORk5y83XZLORJRCCMpAgS+MjNpXOnLOyvOv/+eLA137vfaNp6dnAH0nHdzK3iPQ0FVWfwhB25LgksOLG1IezVq8RbKY0aLv6+v/5j/qIMkiu2PoyusQgm28u/6wMGrFHoHq/NKBk74q7P3qmz+179Znrbu7+9f0fEOIIUQ3afXnuy/uEACEoFVB3GEmiMZSs+ph4jUiksijEqSUhCF4Pv2s8GD/4SJtP5gvkDiEDp+vc1ohSKu7SOD8NcKgqQuFQR+HCX0HvC10+dcAwadNe550MqX8rIgIgl8y+oDU+W8slXLIAiAEXY07pJVLhjOJp4iPiAKziV8plGkILA4Zr17+5QJhHg/6Umj74UJRJDK2CiVofc3fujxyc5oQuCqpPKiZ0QtjygLbjH5vBokBznTu+6LQpEkTwZbPawE/o8lEG0mwd5oBCSgkhP8DwRd7FNTSZMMAAAAASUVORK5CYII=;" parent="1" vertex="1">
          <mxGeometry x="330" y="294.1" width="70" height="84.81" as="geometry" />
        </mxCell>
        <mxCell id="S5GqEVZqtkomO6TtCBoP-21" value="" style="endArrow=classic;html=1;rounded=0;exitX=1;exitY=0.5;exitDx=0;exitDy=0;entryX=0;entryY=0.5;entryDx=0;entryDy=0;entryPerimeter=0;" parent="1" source="S5GqEVZqtkomO6TtCBoP-18" target="S5GqEVZqtkomO6TtCBoP-20" edge="1">
          <mxGeometry width="50" height="50" relative="1" as="geometry">
            <mxPoint x="360" y="400" as="sourcePoint" />
            <mxPoint x="400" y="400" as="targetPoint" />
          </mxGeometry>
        </mxCell>
        <mxCell id="S5GqEVZqtkomO6TtCBoP-22" value="" style="group" parent="1" vertex="1" connectable="0">
          <mxGeometry x="414" y="256.5" width="146" height="143.5" as="geometry" />
        </mxCell>
        <mxCell id="S5GqEVZqtkomO6TtCBoP-20" value="Datafundament" style="shape=cylinder3;whiteSpace=wrap;html=1;boundedLbl=1;backgroundOutline=1;size=15;fillColor=#dae8fc;strokeColor=#6c8ebf;" parent="S5GqEVZqtkomO6TtCBoP-22" vertex="1">
          <mxGeometry y="8.26" width="146" height="143.5" as="geometry" />
        </mxCell>
        <mxCell id="S5GqEVZqtkomO6TtCBoP-19" value="" style="shape=image;verticalLabelPosition=bottom;labelBackgroundColor=default;verticalAlign=top;aspect=fixed;imageAspect=0;image=data:image/png,iVBORw0KGgoAAAANSUhEUgAABh0AAAYXCAMAAABLs0siAAAAAXNSR0IB2cksfwAAAAlwSFlzAAALEwAACxMBAJqcGAAAAwBQTFRFAAAAKbXoKbXoKbXoKbXoKbXoKbXoKbXoKbXoKbXoKbXoKbXoKbXoKbXoKbXoKbXoKbXoKbXoKbXoKbXoKbXoKbXoKbXoKbXoKbXoKbXoKbXoKbXoKbXoKbXoKbXoKbXoKbXoKbXoKbXoKbXoKbXoKbXoKbXoKbXoKbXoKbXoKbXoKbXoKbXoKbXoKbXoKbXoKbXoKbXoKbXoKbXoKbXoKbXoKbXoKbXoKbXoKbXoKbXoKbXoKbXoKbXoKbXoKbXoKbXoKbXoKbXoKbXoKbXoKbXoKbXoKbXoKbXoKbXoKbXoKbXoKbXoKbXoKbXoKbXoKbXoKbXoKbXoKbXoKbXoKbXoKbXoKbXoKbXoKbXoKbXoKbXoKbXoKbXoKbXoKbXoKbXoKbXoKbXoKbXoKbXoKbXoKbXoKbXoKbXoKbXoKbXoKbXoKbXoKbXoKbXoKbXoKbXoKbXoKbXoKbXoKbXoKbXoKbXoKbXoKbXoKbXoKbXoKbXoKbXoKbXoKbXoKbXoKbXoKbXoKbXoKbXoKbXoKbXoKbXoKbXoKbXoKbXoKbXoKbXoKbXoKbXoKbXoKbXoKbXoKbXoKbXoKbXoKbXoKbXoKbXoKbXoKbXoKbXoKbXoKbXoKbXoKbXoKbXoKbXoKbXoKbXoKbXoKbXoKbXoKbXoKbXoKbXoKbXoKbXoKbXoKbXoKbXoKbXoKbXoKbXoKbXoKbXoKbXoKbXoKbXoKbXoKbXoKbXoKbXoKbXoKbXoKbXoKbXoKbXoKbXoKbXoKbXoKbXoKbXoKbXoKbXoKbXoKbXoKbXoKbXoKbXoKbXoKbXoKbXoKbXoKbXoKbXoKbXoKbXoKbXoKbXoKbXoKbXoKbXoKbXoKbXoKbXoKbXoKbXoKbXoKbXoKbXoKbXoKbXoKbXoKbXoKbXoKbXoKbXoKbXoKbXoKbXoKbXoKbXoKbXoKbXoKbXoKbXoKbXoKbXoKbXoKbXoKbXoKbXoKbXoKbXoKbXoKbXoKbXoKbXoKbXoKbXoKbXoKbXoKbXo2Wr3dQAAAQB0Uk5TAB44UmyCkJ2qt8LQ3er3//Hk18u9saSXinlfRSoQGjVPaX+Pm6i1wc/b6PXz5tnNv7OmmYx8ZEowFQQzaNL86bR+SRICK2CVyvnywItVICVbkcj43qdxOgdUSA9helec4dFGCTSI1fClUcy7FN+pgL5lDWuJIl1AnlkfdgxEutpmBi2HUNPrdz2YHTvlAywRLrah/TeNrCN07keBQRm5AXKaCljsxxbcovT6dTHgr5Ti5z9zfQX7C/4orc4T7zbYoEsYYifjTpM8JLjDPoRcFzkOG7zEbWOrxhwpWoZWyZ8meCFwQ7LtTGovhfYIMm5v1pJCsGfFe1PUrk2jg46WXoPNr60AAJ0xSURBVHic7N2Jg45V+wfwKYrC3Oi1FUIpDGlTjBrbqMZayJIlImQrI3lJpEWFoaKENJmk0GR5MUO0SLT7iRQl9SZZJiklvVp+g5ExZuZ5nvs+53zP8v38Bee6rnM/13Mv55yoKCJxTju9QMEzzixU+KyzixQtFu0VL1HynH+VKl2mbLlzzytfAT04K1Q8v1LlKhdcWPWii6tVrxHj1ax1Se1LL7v8iivrXHV13XrowRERnSK2/jWFro3z8tOgYaPGTdDjNFd80+uuvyEh3ww3a96iZSv0OImIjmt9401t2ub7s3VCu5vbd+iIHrBxTutUtnnNMDNcrGGjWzqjB0xEzqvY5fIGYf5s/SOhedfz49EDN0aTbrd2jzTDXo8rb+uJHjgRuavX7b0j/t3K0qfvHejRm6B1nX5+M+z1rzwAPXwictH5LQb6/uE6KmZQJXQMemt9Z49gGfbuGsxvAYhIqcQh1QL+cB3V4O6h6Eh01fGei0VkuO3lw9CREJE7yv87WsQv11HNh6Oj0dGIC4oLy3C7e0eiwyEiJ9w3StgP11Gj7x+DDkkzDwzK/9vgSPV5kEshiEi2hx4W+sN11NhH+IHNCY/+S3yGvcfGocMiIquNbyPhlyvThMFJ6NA0MbGhnAxHt5iEDo2IrPX4E3J+uY64pAA6Oh206isvw314h0ZEUlR8crK8n65M50xBR4g26an8d8oIqkQXLkIkItESbxf3nVJenp6KjhJpzDPTpGe4x3R0lERkmeE1pP9yZUqY4e7nS88WVZFhr+FMdKBEZJERzyn55co0+lF0rBiTnlSV4WZDktHBEpEtnpf/UOmEWSnocAFemK0wwy86/QCPiISZI2RLh/C9VB8dsWojX1ab4bld0BETkQVuUfm39qh589169vFKquoMe6/yBAgiCmiB8l+uTP1d2vmhHCLDC53/fJiIAmlVBPHT5XmLFqMjV2XSXZgMz/sPOnIiMthD4R5XKdzkJW4s3Dq9FirD3hM85JuIfKoC++XKdNlSdPgKvLAMmOGB3JmPiPxIngX85cp0Vxo6A9IVTIdmuNZydAKIyEBLV0B/uTK9thKdA8luR2d41evoFBCRcVIEn/Hjxxsj0FmQ6k10fj0v5i10EojIMKuFnBsdVLG66DzIk9Ifnd0jJr+NzgMRGWXNO+ifrWNi7kNnQpZ6WrTfTHeiM0FEBnlA/l7S4VqLzoUcFdXsyBqOdehcEJExhjZA/2KdkPAuOhsyVLgEnddsqqCzQUSGmLMQ/XuVXbNX0PkQL+UGdFZPMgSdDyIyQufe6F+rkxV7D50R4d5H5zSHbuiEEJEBxnyA/q3KKXUAOieCFUZnNKd5H6JTQkTaSy6F/qk6Ve2e6KwI9RE6n6cqzlXTRBRCWfQPVW4usmlLvo/R2cxNifXotBCR3gajf6ZydyU6L+Lchs5l7vqh80JEWvu/OPSvVB7ORWdGlNbF0anMQ1V0ZohIY630WQWXwzxL9ovbMBCdyTzVQeeGiLSVOBr9C5W3sZ+gsyPERnQe81EJnRwi0tW/0b9P+dmEzo4IkDOkw1V8Djo9RKSn6eifp/x9is5PcMuRR8GF9gQ6P0SkpUnF0L9O+Yueis5QULE90DkMYTM6Q0Sko8/Qv02hfI7OUFBnoDMYSs0t6BQRkX6Go3+aQrsXnaNg6k9GJzAkK17uEJFQ9XT9Dj+bhK3oLAUx5iV0/sLA7VqJKAfdtg3NVRGTd9R4Cp29cETbfZQ3EUXsXPTPUnjKofPk3+no3IXnbHSeiEgriWPRv0rhiZmJzpRfybp/r3TcF+hMEZFOzkT/JoXL2N2ArkFnLly1UtCpIiJ9LNd1871TGXpOTYVV6MSF7Ut0rohIH/3Rv0jh64HOlT/r0HmLAF9ME1GWD9G/R5HYhs6WH+MS0GmLQCF0tohIF1+hf48i0dvEr1pnobMWiWWnodNFRHq4D/1zFBkDP6oZZ857nSO2o/NFRHr4HP1rFJk30PmKXCF0ziJk/H6HRCTCYvRvUaRaojMWqYp6b9x9qsfQGSMiHTRE/xZF6gZ0xiJ1JTpjkUqYhE4ZEeF9nY7+LYrYMHTOIpPYDJ2wiM1A54yI8N5E/xJFzrAzzL5B5yty03qik0ZEaJ3noX+JfPgvOmuRSK6FTpcPb6OzRkRo36J/h/z4CJ21SNyCzpYfPAaIyHmXoH+H/Jhg0oo47U9kzdVydNqICGsK+lfIn6vReQvfABMf3XleWXTeiAjrCvSvkD+fofMWvvboXPnTAJ03IoJKmob+FfInwZxvam5A58qnHejEERHS1ejfIL9uRGcuXOPQmfLrQnTmiAjpZfRvkF/foTMXLgMXOxyzMwmdOiLCWWreKt4sCYno3IWpGjpTvjVGp46IcL5H/wL5Z8g+3hXRefJvFjp3RITzGPoXyL/S6NyFZxc6T/69g84dEeFMQP8C+dcnGZ28sFyEzlMAu9HJIyKU3ejfnyA6oLMXjjEmnSedU1d09ogIxdjvaY44A529cBi5x9JxZ6OzR0QoJj/28O5CZy8ce9BZCmLeUnT6iAjE2O9Zj9hrwk58zdFZCuT/0OkjIoym6F+fYOqj8xdabDQ6SYH8B50/IsK4H/3rE8yn6PyF9jo6R8GsQOePiDAKoX99gnkZnb/QPkXnKJiF6PwREUY/9K9PMNei8xfaregcBdQEnUAiQog381iaf0weg85gSOegcxTQYnQCiQhhK/q3Jyjt1/Ka3n+9gugMEhFCN/RvT1D3oDMYyhp0hoLiRnxETqqC/u0Jag86g6FUQmcoqIvRGSQihCfRvz1BXY7OYCiGHil9Aj9aInLSB+jfnqA+R2cwlHXoDAWVHotOIREBlED/9gS1CJ3BUBqiMxTYVHQKiQgA/csTXAY6hSH0RicosB3oFBKReuPQvzzBjUDnMISd6AQFdiM6hUSk3ivoX57gfkDnMH/J6egEBbYPnUMiUu889C9PcOehc5i/euj8BDcDnUMiUm84+pcnuBfQOcyf8YvRPW8BOodEpN4Q9C9PcLvQOczfeHR+gtN+SQkRifcj+pcnuCroHOZvMTo/wfVH55CI1NuF/uUJbh06h/mz4N7hNXQOiUi9wehfnuBuRucwf1PQ+QmuOzqHRKTedehfnuA0f+5RH52f4Oaic0hE6t2I/uUJTvPnHg+g8yMAOodEpJ4FX7T2RucwfxZ80epVQCeRiJT7Av3DE9x+dA7z1xSdHwHYHYjcw3sH2XjvQEQm4r2DbLx3ICITsTvIxu5ARCZid5CN3YGITMT3DrLxvQMRmYj3DrLx3oGITMTuIBu7AxGZiE+WZOOTJSIyEe8dZOO9AxGZiN1BNnYHIjIRu4Ns5dH5EYDdgcg9fO8gG987EJGJeO8gG58sEZGJ2B1kY3cgIhOxO8jG7kBEJmJ3kI3dgYhMxO4gG7sDEZmI3yzJxm+WiMhE7A6ysTsQkYn4ZEk2PlkiIhOxO8jG7kBEJmJ3kI3dgYhMxPcOsvG9AxGZiN1BNnYHIjIRnyzJxidLRGQidgfZ2B2IyETsDrKxOxCRidgdZOPpP0RkInYH2XjvQEQmYneQjd2BiEzE7iAbuwMRmYjdQTZ2ByIyEVfDycbVcERkIt47yMZ7ByIyEbuDbOwORGQidgfZ2B2IyETsDrKxOxCRidgdZGN3ICIT8Zsl2fjNEhGZiPcOsvHegYhMxO4gG7sDEZmI3UE2dgciMhG7g2zsDkRkInYH2dgdiMhE/GZJNn6zREQm4r2DbLx3ICITsTvIxu5ARCZid5CN3YGITMTuIBu7AxGZiN1BNnYHIjIRu4Ns5dH5EYDdgcg97A6y8d6BiEzE7iAbuwMRmYjdQTZ2ByIyEbuDbOwORGQi7qQhG3fSICIT8d5BNt47EJGJ2B1kY3cgIhOxO8jG7kBEJmJ3kI3dgYhMxO4gG7sDEZmI3UE2dgciMhG7g2zsDkRkInYH2dgdiMhE7A6ysTsQkYnYHWRjdyAiE7E7yMbuQEQmYneQjd2BiEzE7iAbuwMRmYjdQTZ2ByIyEbuDbOwORGQidgfZ2B2IyETsDrKxOxCRidgdZGN3ICITsTvIVh6dHwHYHYjcw+4gG+8diMhE7A6ysTsQkYnYHWRjdyAiEw1H//AE1xudw/xtRedHAHYHIvfw3kE23jsQkYnYHWRjdyAiE7E7yMbuQEQmYneQjd2BiEzE7iAbuwMRmYjfLMnGb5aIyETsDrKxOxCRifhkSTY+WSIiE7E7yMbuQEQmYneQjd2BiEzE7iAbuwORJSZ90nr3/z1af+tpA1LQQ1GBb6Vl41tpQ2xYPXTilA9fn/jf9YnooZBWthYo99PN/YuUOPmiKNb74qfLVPn4h57o4cnDewfZePqP1mb+XPDB7Q3bFG12UsDFi7ZpuP3BIT/PRA+PoHpOn7Fif6irI/WJFi1XokcqBbuDbOwOuqpbsNDnfUJEvurzQkMeQA+UEBK/v/ur8C+Rktd/sRo9YuHYHWRjd9DRlGcuWxV2+DsPfPsDesCk1O6um+Iivkz2X/nzUvTAhWJ3kI1vpXUz86oVxSNOwc6+X0xCD5zUeGj7Ir9XSsyBX9ajhy8O30rLxrfSWnn39iK+0/Drwbro4ZNkY9b2rRnsYll22W+23EHw3kE23jvoY1yVogEzsb9Ka3QQJM8tpeeKuF5WzZqCjkQI3jvIxnsHTaSde7aQZFQ7uAUdCskQ//EhIRPkqK8KJKPjCY73DrLx3kELFa9sFjrOMM0r9B46HBJt6S9B7ytzuOSqMeiYgmJ3kI3dQQNr3pwnNCGTq5ZHh0Qi9Wzv+0V03sbOH4mOKxg+WZKNT5bg/m+FhJyU6oUOi0RJe2SahBmSadq9Ru+4wXsH2bjeAeyVhpKy0pD9wQqJB2dLmiGZGrTviI7PP3YH2fhkCar87xLzMup0dHgUWHtJ9w3HTaiMjtA3PlmSjU+WgFrfLDkzo5ajQ6RAOvSWPEMypT6LjtIn3jvIxnsHmJ5PRb4bQqTm3W30k2XHrS4tfYIc1dfMPZjYHWRjd0D5rbuS5LzTEh0o+dReyNq3cMz9xsSNvtkdZONbaYwHRilLT/9x6GDJh5Ublc2QTLUKmrf8gd1BNt47IKwZlK4wP30eQsdLEZteQ+EMOaL7cHTIkeJbadn4Vlq9AYVUZ+jCDHTMFJmnVE+RTHetQUcdGd47yMYnS8q1D7jLph+XcPtWk4x7Tf0UOeKCDejII8F7B9l476DYuw9jkmTuZ+3ueVTi+rf8jR0Siw4+fLx3kI3vHZSaegCWpZcNuu7d1l7+l855e6MSOvywsTvIxu6g0MoFy4BperEeOn4KR1/gHDni4t3oDISJ3UE2vndQpxzghUN2i85HZ4BCqtcPO0mOKDQAnYWw8L2DbHzvoEoBwRv0+9ENnQQKYWoqeo4cUfw/JpwuynsH2fhkSY3lzdFZOiKd76b19grsfXQOL12NTkVovHeQjfcOKjQpg87RcXejU0H5uE3Z3hmhXdQKnY1Q2B1kY3dQYPNOdIpOeBOdDMqTZj93S9D5CIFPlmTjW2npfrgBnaCTnIXOB+XhauSXrLkZOB2dknyxO8jG9w6SVbhiMjo/OVyWhM4J5WYHemLkotRUdFbywe4gG+8d5Nql0UOl415GJ4VycXo0el7kZt5NK9GJyRO7g2y8d5DpfyXRuclVGXRe6BSPgxfD5KnPvbru7c3uIBu7gzx1N6Ezk5cZ6NRQDu/p8ilrLhbeiM5O7jR7ie8Hv1mSTs/uMGIQOi/5GILODp1k5UvoGZGv1zqgE5QbdgfZ2B3kSLsbnZX8VUIniLLJAO3YHbb0w3PQOToVnyzJxidLUtxTC52UEPaejk4RnfAEejqEFtMVnaRT8N5BNt47SLD7V3RKQtv5HjpLdNxh9GQIS/Xv0XnKgfcOsvHeQbgBt+q2wiFXqWZsxOmA+9FTIVxnfY1O1UnYHWTjegfR/qPrp4k5bURnio76r5YLHXIVV0anM0LYHWTjvYNY2zTYpztc36KTRZlidX8jfZKadXqiE/YPdgfZ2B1EmnIOOheRSFiDzhdFRd2OngYRKnFdMjplWdgdZGN3EGfqCnQmInStrqtgHbIYPQkid+3P6KQdw2+WZOM3S6I0uR6dh8hdiU6a80a+g54Dfgzags7bEbx3kI1vpQUpWBydBj+eRafNdQvQM8CnRujERfHeQT7eOwgxpRo6Cf4sTENnzm2vpKNngF/tKqFzx3sH6fjeQYA5Txp7kXO7VqSkQ+j6B7BxKDh77A6ysTsEFvu8kQ+VsuzAJs9t96KrH8yD2DtPdgfZ+N4hqPuqo+MPpPtIaPac1movuvoBLeqC/LqV3UE23jsEM/Q7dPRBPQbMnuM+Q9c+uCLjceljd5CN3SGIxKfmoYMPrhcsfY77AV15IXBft7I7yMbu4F/8NWPRoYvwASh9zjNgJ99wRP+Rgskfu4Ns7A6+LTb5g5PszsPkz3XnoesuTK3BkARyvYNsXO/g09QD6LCFqY3IHxm1+14IhxDLKnnvIBu/WfJl0k/ooEX6TX0C6SF01cX6bqryDLI7yMYnSz6Mmb8KHbNQvXXZddMlJdFVF2zZupWKM8juIBu7Q+S6tUNHLNo2xRmkqE7omovXZ77aPX/ZHWRjd4hUL6POcAhP73ilKaSoKFs+aTjJwEoqU8i30rLxrXRkPqmKjlaKbgpTSJluQVdckubL1eWQ9w6y8d4hEhmNYtDByvGVshTSUQ3RFZclbl1nVTlkd5CN3SECLVPRoUpTX1UO6Ygtxm7qG9rsXUlqksjuIBu7Q/ip2oQOVKI31eSQjnkKXW+pSi5WkkR2B9nYHcLUpEwcOk6Z2qr+HNFt09D1luzVEQqSyLfSsvGtdHja27XC4VTtFSSRslRCV1u6tgrOfuC9g2y8dwjH1bYtXTrVOdKTSP8YhK62Aouuk73Gkt1BNnaH0FpvREeownuSs0j/GBmNLrYSRabITSO7g2zsDqF0vmkZOkAl6kjNImVzD7rWqlwu9ewHdgfZ2B3ylzRkNjo8RapLzCKd5DJ0rZXZWyVDXhrZHWRjd8jXYvtfOPxD4SpXt/VMQJdaoYXDpeWR3UE2dod8DC2FDk2lb2SlkU7WEl1ptdrIWmnJ7iAbu0OeElu49B8v8yqWk0bK6XJ0pRVL3z5HSh7ZHWRjd8hD8uAG6LhUmykjj3SK4uhCKxdTTkYe2R1k49lwufuwBzoq9e6XkEc6xevoOiMUfUh8ItkdZOO9Q262fIaOCaGq8DxSLu5F1xlD/N7e7A6ysTucKuWMveiQICYIziPl6gl0nUGE7+3N7iAbu8MpvngHHRDK12ITSbmJr4kuM4zgvb3ZHWRjd8hhdxt0ODiDRSaSclcfXWWkh58VmEnu0Sob92g9yYBC6GCQ3hSXSMrLLnSVsQ5MFZZJ3jvIxnuHbMZ8497HhtmVFJVIytub6CqDzbtpkqBMsjvIxu7wj+Qv7D0YNEw9xWSS8tEbXWS4VT+KySSfLMnGJ0vHdTgHHQeeyKfClKuR6BrroGgBEalkd5CN3eGYqb+jo9DBfAGZpHw5uRbuVJ/3Cp5KdgfZ2B2OmHQTOgY9bBcwoyhfzpztEEL6y4E3buF7B9n43sGlMxxCeVHInKJ8/IGusTbm1gl49gO7g2zsDlE7HDrDIYTiYiYV5c2FI6XDlbotUCrZHWRzvju0bogevk5WippXlId+6BJr5YPdAVLJ7iCb43u0dr4APXi9vC5uZlGuaqBLrJlC632nkt1BNre7w75p6LFr5g6BU4tyEZuOLrFu5jbyu8qG3UE2l58sXb0fPXLtDBE6uegUn6ArrKEJN/rLJb9olc3dL1onbkSPW0N/CJ5elMMUdIW19PB4P7nkvYNsrt471LtwMnrYOiokfILRSb5HV1hTr/rYnI/3DrK5ee+Q0SgGPWg9fSdhilE2N6IrrKt5LdIizSXvHWRz8t5hW3f0kHXVXMYcoxMqoyusr0XnJkeWS3YH2RzsDss3oQesr9pyZhkd5+ih0uHpF9nqB3YH2ZzrDp0XxKHHq7FLZM0zOuYMdIX1VmhABLnkewfZXHvvcA23VMrPBGkTjY4qi66w5mq2Dz+XvHeQza3VcI/y6JX8zZY41SjTlegKa2/04nBzye4gm0tPlmbejB6p9tgdJGN3CO33EeHlkt1BNofuHZbsRQ9Uf+wOkv2JrrAJov9ICSeX7A6yOXPv8FA79DBNwO4gGe8dwrJoeBi55Ftp2Rx5K721P3qQZigmf8a5jYf/hKnfuyFzyXsH2Zx4slSvDHqIpuiuYMo5rRy6wuZYEWpzDXYH2Rx4stSzUU30CI2h+Z2u+fahK2yQeT/lfxgVu4Ns1neH+M210OMzyFeq5p2r3kZX2Cg1u+aXS3YH2Wx/svQ9D42OxL+UTTxHdUJX2DCp9+SdS76Vls3ut9Jbn0OPzTArFE49Jz2KrrBxzumVVy557yCbzU+W6l3ILZUi9JfSyeeg1ugKG6jquNxzyXsH2ey9d+AZDj7UUTz9nLMBXWETtd2T69kPvHeQzdp7h+EL0cMy0WDV8885CegSG6nWPbmc/cDuIJul3WF3G/SgzPQ/9TPQMW+gS2yofvVPSSW7g2xWdoc5/+ah0f48gJiDTimFLrGxttfLkUq+d5DNxvcO8/nCwa8MyCR0yVPoEptr1a74k1LJewfZ7Lt36MAzHHzrjpmELrkGXWOT9Xg9eyrZHWSzrTvUexk9GpP1h81DZwxD19hs27N93conS7LZ9WQp494+6MEY7SfgTHREBXSNDRd95aTjqeS9g2w23TskXVUCPRTDvQ2di27gOSMB9SmXlUneO8hm0b1DgUvQAzHe49jJ6IQV6CKbr/pbRzPJewfZrLl3GLoRPQzzzYsPNV0osIPoKtvgoqFRvHeQz5J7h5QH0YOwQRv0bHTBDnSVrdB2RgbvHaSz495h+AT0GKxwE3o2uiAFXWVLNPj2b/QQgtP83mE5Oj8CtKyNHoElHkLPRif8ii6zLSw48lHz7mDDkyUSpAl6NjrhbnSZSRt8skSGOISejG5ojK4zaUPz7mDDyaEkxjr0ZHRDx7boQpMuNO8OvHeg4xqjJ6MjGqILTbrgewcyQwx6LrpiCLrSpAveO5AZvkPPRVdsQVeadMHuQGa4Hz0XnVENXWrSBLsDGSF9PXouOqMcutakCXYHMsJd6KnojtPQtSZNsDuQEX5BT0WH1EYXm/TA7kAmiJsUerKQIM+gq0160Lw7cDUcHfUEeia6ZOUydLlJC5p3B9470FGV0DPRKZejy01aYHcgA9TgwT8qPYquN2mB3YEMUAc9ER1zCF1w0gF30iAD1ENPRMdsRhecdMB7B9Lfm+h56JoxDdAlJw2wO5D+vkbPQ+d0RZecNMDuQNq7CD0N3ZO4F110wmN3IO0tRk9DB32JLjrhsTuQ7n5Fz0IXJa5Cl53g+M0S6a4XehY66Xl02QmO9w6kuc/Qk9BNS99BF57Q2B1Ib3Gt0JPQUR+jK09o7A6kt+vRc9BZtdGlJzB2B9JacW7djdIBXXsCY3cgrT2CnoIOK4UuPmGxO5DOJixFT0GHTUVXn7D4RSvp7H/oGei0gujyExTvHUhjb6InoOM2oicAIfHegfS1MBE9AR1XsTh6ChAQ7x1IX8PQ889556KnAAGxO5C2zkRPP4o6gJ4EhMPuQLp6Ywx6+lHUpGLoaUAw7A6kqWUPoGcfZZqOngcEw+5AmlqCnnx0VAv0RCAUdgfS06h49OSjo5IvQ08FAmF3IC3tT0PPPcqS1gM9GQiD6x1IRzW2oKce/WPLIvR0IAjN7x3Ko/NDGDwPTid196LnAyFo3h34ZMlNv6EnHp1kLXpCEAK7A+nnIHreUQ510FOCANgdSDt90dOOTlEGPSlIPb6VJt2chZ51lIt16GlByvHegTTzBA/80RJXxTmH3YH0ciAWPekod1+ipwYppnl34BetrimNnnKUpzPQk4PU4nsH0sl29IyjfHyDnh6klOb3Dnyy5JYnk9EzjvLD9uAUdgfSB5uD7u5JQM8RUofdgXQxmYvg9FefpwG5g92BNFF8Onq2URhm9kNPFFKF3YH08MZU9GSjsIy5Hj1VSBF2B9LCZzzPwRiduGWrG9gdSAMJn6JnGkWgfHX0hCEVNO8OXA3nhAnnoycaRaTnT+noOUPyad4deO/ggicroOcZRWr8QvSsIenYHQisRmP0LCMfRl6BnjgkG3fSIKzSk9CTjPx5vQd67pBcvHcgpGK8cTBX/K5V6PlDMrE7EFDVJugZRkHUG4SeQSQRnywRzOxu6PlFQdUtgp5FJA27A6HMQM8uEmF+TfREIknYHQjj0jXoyUViTJrRDD2ZSAp2B0Jo/i56apE4qz9DzyeSgW+lSb0J29ATi8S6j68fLMR7B1Jt75eJ6HlFwnUrip5XJBq7AylWZg56VpEMHT+ah55aJBafLJFSX5VHzymSZfnZ6NlFQvHegRSathk9o0imAtza2ya8dyBlEp7agJ5QJNnz09CzjIThvQOpUrgVejqRfE0WxKEnGgnCewdSo8h49GQiNZZvRM81EoPdgVSo1SUZPZdImbX8utUK7A4kX0LZNPRMIpU6HoxBzzkKjt2BpNs4FD2PSLUth9GzjgLTvDuUR+eHAhu9Fj2LCKFuc/TMo4A07w68dzBdrfuT0JOIQBo/jJ59FAi7A0nUrE5P9BQioPuLoWcgBcD1DiRPmXroCURYaXui0ZOQfOO9A8ly1tfo6UN446qi5yH5xXsHkmP/fejJQ3qYwrMfDMV7B5JhZ0G+jKYsyW83QM9H8oPdgcSLW9AEPXNIJxv+RE9J8oFPlki4S3mGA+Ww5l/oWUkR470DCbawJXrWkI5alkDPTIoQ7x1IrD0p6ElDekp5MAE9OSkivHcgkbilEuVtaCn0/KRIsDuQOG98j54wpLfFh9BzlMLH7kCiTPsxFj1fSHfx9/PrVmOwO5AYy37iV6wUhg1foqcqhYlvpUmIV79GzxUyRcXtk9HTlcLBewcS4Jwp6JlCJpl4FnrGUhjYHSiw0Z3Q84RMs6M3etZSSHyyRAHtHIKeJWSg+M010DOXQuC9AwWScGUiepKQmdK+5NkPemN3oCB+b4WeImSuETz7QWvsDuTfw3wZTYFM4eo4jbE7kF/FBiej5weZLv6aneh5THlhdyB/lt3EFw4kQJO/uPpBU+wO5Evz5ei5QbbYvQk9mylX/KKVfEjlCgcSqOVA9IymXPDegSLWrFxH9MQgu3QsVxM9q+kU7A4UocmF5qCnBdlnTiG+ftANuwNFpvlu9KQgO+3+AD236WSad4fy6PzQyboXQE8JsteNE9Dzm7LTvDvw3kErexvxhQNJlHb3PPQcpxPYHShsT29BzweyXeuN6FlO/2B3oDCVXIyeDeSCAkXRM52yaN4d+N5BF6u+Rc8FckRsZe7trQfNuwPvHfSw98EN6KlA7khrxNUPOmB3oJDiLlyPngjklnoL+Hoaj92BQjnwNXoakHumXoSe98R9lih/176LngTkpkrvoOe+6zS/d+BbabBmPDSaUDJmtEXPf7dp3h34ZAkqfXs99Awgl7V6H30JOI3dgfLU43V0/cl1lVLRV4HDNO8OfLKEs5MPlQhv6b7Z6CvBWZp3B947oETfzoNBSQsbyvL1Awa7A+Ui/XBFdOmJjhsxCH1BuIlftNKpLq2LLjxRdnV59DSA5vcOfO8AUP0OdNmJcnphIfq6cI/m3YFPlpTr83wsuupEp8q4cy/62nANuwNlN3nWAHTNiXK3ha8f1GJ3oGw28dBo0tj4augrxCl8K03/WNgJXW+i/HXh2Q/qsDtQlr11MtDlJgol7XauflCFT5boqPQ3Z6KLTRSOESvQF4sr2B3oCL5wIHOML4K+XtzA7kCel9oNXWiiCCS/XQt9zbiA3YGafTMGXWeiyKT9wdUP0rE7uC7uipXoKhNFbktf9KVjPX6z5LjnyqNrTORP/Tboq8dyvHdwWu/G6AoT+ddtEfoKshrvHRxWfBe6vkSBpOzh6gd5eO/grMmzmqDLSxTU0I3oC8le7A6u6scVDmSFAu3Q15KtNO8OPN9BkmKb0aUlEuVgDPp6shPfOzjppw3oyhKJU29WHPqSspHm9w58siTDZ63QdSUSa+sT6KvKQuwOzjmnF7qqROItfhh9ZVmH3cEx1XmGA1mqCzdfEkvz7sC30mKteh5dUSJpMmZEo68wq2jeHXjvINKymzqjC0ok04in0ReZTdgd3NF8ObqcRLItLom+zuzB7uCKog+hi0mkQNKQaehrzRbsDm6Y27UjupZEajRZgL7cLKF5d+BbaTGe5KHR5JCmm9BXnBU07w68dxCh3xR0HYnU6pSKvuoswO5gvUVdktFlJFItYwk3XwqK3cFyCWXT0EUkQthyM/riMx27g92+G4ouIRHKlCLo689s7A42K7kDXUAioOTNDdDXoMnYHew17cckdP2IsDr/hL4MDcbzHax14Up09YjwWvNoUb9472Cp5k3RtSPSw9rR6KvRUJp3B66G86doN3TliLSRdBX39vZD8+7Aewc/iu2LRReOSCc96zRDX5UGYnewTsyeRHTZiHRTb8Ey9JVpHHYHy8QVWo8uGpGOWv+OvjhNw2+W7PLEVnTJiHTFsx8iw3sHm4zm6jeivCXt2om+Rk3C7mCPVe35MpooX53XxaGvU3OwO9hi8hUD0NUi0t/y5uhL1RjsDpbYxNVvRGEp0B19tRqCb6WtUGIbulJE5ji4F33FGoHdwQZVMtCFIjLJJ33R16wJHkaXKX/L0fkxwaBx6DIRmWbKIfR1q7/a6CLlbyo6P/o7NB5dJCITDR6LvnZ19zm6RPn7BJ0f3c0ejC4RkaESv4xGX796a46uUP7Wo/Ojt+jbuaUSkW8VX05HX8M6ew5dn/xNQudHZ+mHK6LrQ2S2iZvQl7HGnkZXJ3/x6PxobFNddHWIzPdWb/SVrK3H0LUJYS46Qbrq/T26NERWSNq3Cn01a2oPujQhLEQnSE+r9iWhK0NkiwGF+PohN8+jCxNCD3SCdJR+K7dUIhKofj/0Ra2je9BlCeFf6ARp6Jz66KoQWSZ5czH0da2fZ9FVCeEwOkHaafB2MrooRPZJvAB9aWunFbomIZyBTpBunuIKByIpWn+Hvrr1Eqf7y83N6Azp5VXduzmRwRZz86Vs2qHLEcoOdIZ08jC3VCKS6m2+fviH5kulo6JOQ2dIHw3+RheDyHppH6EvdG1cia5FSMXRKdLE3io90aUgjQzY+m7j3+75pX2dg+1/+bjALR2+noQekTW2VEVf7Jq4Dl2JkF5Ep0gL6Ydnogthj4qPD/t+W5ch86s88unm4ZV29GqVhh5RBP579X9ubV5ydm6TpMbDo26qPGw9eoQWmMLVD0f8gK5DSLPQKdJBG65wEGDrbwf7/vpSbjej0e+8dtnt103R/HOwesPX1Q5jy+lVZ+9pPBI9VtPdU0v4RWwedBFC+xSdIryFL6CLYLw1g6uWDCPTJd7/RtMX/+tfuHV/JHPmqz+/Z4cIIuUj589+qIauQWj/h84R2twlPDQ6kKYFC0d0CNjGKo+ih3yy+P/74zUf+wDNu2t+U/TQTbalcOQ5t8pf6AqEtnQeOklQfOEQSMraMqk+st6n8Ln10EM/rtKT0/xPnwmP/Ywev8HGu736Qfddlo74Cp0kpH584eDfpH0bg6S+ygh0AFFRa1rUCDqFUs/QIA5Dxd/v8tHT76HTH4ab0EnCWXQdt1TyK7bS7wkB05++8YuOyBDSrmojZBp5m7rwa2ifKri7+dIidO7D0QmdJZg9Jn1pqZfyZ4pZ8lr8ildQIYz4s4+QEI4aW4XLIXz6+lVxZTDKYXTmw9EEnSWQm4eiM2+sYU8IrMOvLRF7kf18YLLAGDLF/LQFEIYVxlcTWwpD6L8W7ggna9OmFzrtpkr+TfSbqoWPVFAcwxcPCw7hqNJrFIdhi+Qbu8uoh+a0+S4jXy3QaVKveid00o319mgZBVmg8Mux+I/DWZrhx+TDJrxo1FHGM87t6NMbnfPw3IbOk2qzh6BTbqrkbm9IqklCGUUPZpKuk9LessRt/6+aMKwz4AqJZdHRHnTGw+RY2z6zMzrhpnpL5kPIebeepiCEYZdIDOGodU0UhGGjH2rLLo1WYJ9jRKg0OlEq/VoenW5T7Za+dVrZFMkhzLxZdgiZop+RHIWtkn/ZqaA8mliIzna4HkJnSp1FH6OTbar1KvY9qNVSagzPzFUQQ6Zq50sNw14rZ/nY0cRMt6NzHa4xe9GpUmTZBdw5zadrBC4OyM9dy6WFMLG3mhCOOKuutDDs9nptdUWC2orOdNheRqdKjUv5UMmntweqq1IjSTHsa6suBs+b/NcGSXFYLvlvJ/b27ofOc/icOFy63W/oNJvq9R5KC/XiOAkxDLhIaQyZalSWEIYL0r5U2scxDPpsMnkCOlnS1ewK3dLHYJ9sV12rVeL7+I7Am+358NI24XG4YYT1m2vMM+m7yT/Q2ZIs/Unu0+3PygWIet0qeAesKqCXnXe1FhuHM36WtWBRE33RCY5EK3S25PqV22b41CXXA5ble2OqwCASv8MEcYSstyi2i+9i9fOMDuj8RqQhOl0SVecLB5+2boIVrc8twqKYKmt9d1hSeSytPz2X1ETWTar96ORGpjE6X9LM3heLTq6h6pWJA9Zt8iOCwrhF0be4eWozRVAkrqn3GHICyvQ2OrWRSbZ0k8Tou/lhoT8ZB2PAtXtayMuHyhqsr+rLzb39Kf8cunRSjDXtJPsf0RmToq+MjyOd8IIGfxeqCdjj+EF0EEfFVDHt90AXjW18PS3qtliZnhYe8NqPt/Q+1Rd0pGZAqUHfTSdps4XYQrl7hNgr9lPrNl9aZd45s4+gcybaO/fw0Gh/BmzX4GnMUTuDbUiR0R8dQDab5O0RYrcmNy1D106scuiMRm7kKnTShIq5U/Z+n7aK/Y9GO7rH3BcgkpTP0cM/2bqVworkltYb0aUTqZiJm719g86aSH25+s2n76UfgBCZO3xHMuZi9NhzKl6Orx/8uUPhRl+y3Y9Oph8dU9FpE+bQeHQyTVUXt8IhDwnDfIaSpHxnpTCUeDteaL2ckdHIlo2ke5v5wHsbOm+C7BzCK9CfVoN0eeGQTYy/daXJVdEDz92hHYKL5orTnkaXTowP0Yn06Vd04oS4kCc3+rPhzwR07XLVbLefaGahh52ny7j5kj8fqt0rWI7P0Fn06wd05gQYxTMc/Indp+2Xg7O/jjyccuhB56cM/8D4knyu8Wc/tDV3Bdat6NwFVfJ7dApN9b/R6NrlI3VApOF8r+Ejsmx2FkySUUT7pZxh+OuHO9EZ9K9eM3TyApn9Ka85f5Y3R9cufzcsjSyex7X/DSm5WE4lrbdF+XEjIi00+aO19ujsBVG2Ajp9huq8TvvlRocjCmh1CfR4w/D0CEnltN3jo9Cl8+9qdPICOYROn2/bzX2gB1ZZ2xcO2USyNU1HM95e7m3E4wr9Oa8IunY+lUZnLpi6hu6Z23wiOnOmmmLGH4L0teGHVAg92HANnC6vrnbrYuS2cItM3zD6I3QG/bikMTptpprzMrp24YppFW5MJq3buSzsqOgkGxZMRtcucsb/TI3pjU5hxGLK8Xwff5Ke12hLpVCqjQkvqFbocyki0vZLwUdoO+MHM54fZvMYOmXBlY9GJzFC7/OFg0+N96NrF5GfwgpqqWnPpBe9bebWCnDxQ9Cn/kWmR4Qf3mlpMzqLEUmthM6XqZYbt/FlWB983IQeZeSKcFswf1Zer/3HdiessuMbtUHoPIaveFeTvx9GarLAoAsry6owDuD8GT1IX54OesyRq6Z+hi5d2N5C50qMlIfRiQzXT9ww36d7jTzN4+yQcS0tih6jP/N49oNPU85B1y48VdCJEmWqGc/zVvAPlz/Jf2twaLQv94cKzdxDSpp1Ne88ST3cOAFduzA8gc6SOPcZ8LUYH9b6tdiYe8NTrFqdf2hbTPukIrsGm9XU3zope9qiaxfKGyaeB5eX+ehshlJsMD/08GfrWejaBbEi/+AMPwKA/3h8GvE7unT5m2DXd5V679Y676lEdIIMVe9CA24L81Mpv+ieRY8usBVDFU0E2yzW+UPmVV+j0yNWfCl0RvNxgC8c/BlTzuxNeDMtyucWPd7cR2b/SCjLPz6+JHfR9uyH6PPRyRFtzAfonOblYd5++/SCDSeH/5l3fF3QYxOiQRc+NPUl5Qx06fJwGzoz4iXWRic1V4vORSfGVE3boGsnxLw8FxVlmLBvdzj61Vc5LyzSSscnHsvM3rU7D5013Gdh2ZU2vftXqcljhr9w+MeBvELU+rDQiKQXivgwPDpq+kB07XKa/BA6J3LU0+4wyYvXoHNiqPiC09C1EyePU9VWGv9OJZs++9ROEHscrImu3cm+QCdElpl6tYeFw9EJMdW7FryuPeGc3IO8AD0usUZbsvOCciuf0mj1Q1uLD7qfcy06uycsKmjDFocIQ1egaydYrmfmTEpAD0u0jctVzxRLjNPm+Kdm76JzIdOGTej8ZunzDPcZ8CexrHU/mxfnFucS9KjEi7u+ierZYommzdG1O2rRbnQiJHsVneGjHuNbOn/if2mArp0EuX3TXAw9KBmKt1c+YyxRoB26dp73Yj10FqRrlI5Oste8KToJpnrWvJP+wnHRqZFehR6TJCW5usefMfPRe4m+7MKRlZXAHwGUtPjFjlxbCmMrJ88pi+WT30APSZrCMxFzxwIDfoLW7X50/GqUR35DvHMXOnxTdVxi1AHLEVmXM9jG6BFJtPcgYvrYYOuLsKKVeAUdvCqJsCWIk//agA7eVJUMPQcnLDEpOaI9gB6RVO3ugEwh8yXfDzrlqr9L3xPMj4PkuPcP6MBNZfY+3aENOTncAbYsBM9LmymYeWQ8yOqH6PZubZV1PuCfaPfNSeiwDVXx3+qrpdb+kwP+D3o88h34GjKVzDdO+cVww3vomFVLWac4xXOfQYdsqg13m3xCWphO3qjuEvRwFIibtR40oUy3WO30qIOOF2HHOypTfDjEGZGUhzHzLdpSKW83ZY/5fPRo1Ii25uR6xWK77lVWpGqt0dFipP2lbOnDSx+igzXV8IWqaoQ1O3vQ16NHo0o7K3eDVuC0xxRV6F50pDjPqjk+psSn6EBNteZfSgqkg2yrYJJnowejTqlWuNlltKEqNtdwuzoZdypIMe+ffUq5e56C8mhi+4m4O6DHotLeJR1xM8xojz4luTS9h6FDRBvXV3KKX/oZHaKptil9MYQ29sRHg2XRY1ErlasffKoo8xHkwi7o8HTQYaPMFPNgUJ+2uvNQ6ZgTKwC0Ow9Mtk11gRPNaKf9W9LKraJv8/P7Y96V9UO08Bee4eDP+kK2rwc7xZ7jsS9Hj0S99NLjkLPNZO9dIaEeL12HDksn4xtKSHH3X9BhmSrtDwdWOORU5Hj096JHAnEl95jxafXdxcWW4uEX4tExaabXZWIz7J2zjSn2J+mXGoJrYYbjW9k8hx4Ixs6C0FlnspHzxV0x0aX5lXEuHvhT4IErDfku2q/Gep3+rc62Y/HHO3jfdEzJxdiZZ7K13wkpwaiP09CRaOu20nNFpHjhHkfXFwrQ+iIRFTDSFccy0As9DqAVI7Czz2RN9r0WLPnpH+zikZX5yui0IuBft5iXd7i1oaFIiX86tMIhp5eO5eB59DiQoj/KuZc5ha9p1199Z77ffH4YEIbEc/3vFj37yeG8M/Mt/n4rD1MO27Fd6X5HDwOr1gvgWWi2Sd0Oj4086V91HYoeuDkmXTfKxzZXL1Z5HT1wo717beQ5t8otR9Pg4+K2S5te4Ilousd3VQ3/b1axVx/5MAM9YuP8sOtwBK9HX7zyLX6RF8iIFT5+SOxydKvkT9CjwEsvzaOng2q9+a9LG4TIc+rFZw7/L3qg5mry/RnPjQ51mvH+32dM74keqekS7wYceaWb349k4j70KHQQU4V/ZwWoMH7wnlsPfDA6+x74zRb2uLTvlwUr1efpGkJMeuC2t7te/+qv+xdlf2E9oUj/m38q99By9OisMNjtFw5ZBh5JxT70KPTwzo3oOWmVkXNalT//w/pTXToeWr3Vy08f/8qaLUyySIsPoX+LNHFkt1JVG/drj0dPE7lu6gH075A2jmxGdzF6EPqoytUPRA7bcKbDKxxyOrJaeid6EBpp+2Aien4SEUbsj/wxzOZgVFRP9Bj00uB+7lZG5KKWRdG/Pnp5kx+0nuJh5w8oI3LP8rvQvzy66R8VtRs9Bv1U5eoHIqck3rQM/bOjnZJRUc+ix6ChueV4iBaRM5I3h1rI6aLiUVGd0GPQUtEd6AlLRGrU74f+vdFTWtT96CFo6qKp6DlLRPLV247+rdHViKj56CFo66ZJ6HlLRHL1rNMM/UOjrYlRB9FD0NeqZ8ag5y4RyZPcpQT6V0Zj/xc1Az0EnQ18gQdrEdlq8cPoXxit3Ra1Bz0EvVXj5ktEVnpgFPrXRXN3RLVAD0F3n21Bz2IiEq3JY5PRPy26axl1JnoI2tt7J89+ILJK0r5V6N8V/bE7hGNhN/RkJiJxFpdE/6aYoCWfLIVlU1P0fCYiMUa8iv49MUPLqI/QQzDEgs7oOU1EwaU8iP4tMcVvUVXQQzDFzl3c25vIcMn3TED/khijcdQ36CGY49B49NQmoiC4pVIE3o16Hj0EkzzNr1uJjDXnzXT0T4hJ6kbtQg/BLH/w61YiIy39hlsqReS9qC/QQzBMiS58/UBknOQv2qF/O0wzKWo6egjGufYW9EQnosiMr4b+3TDOsqioXugxGKh5XfRcpyBe6Vro/d7hP2UosanwBTduQA+aAth6kcSfA1ulRkX9Fz0GE6UfHoee7+TTh08N9FXzsyrPQQ+d/Kn4b26p5EObqKgN6DEY6vY09JwnH1qO9l/yuCvWo4dPkUs5Q9xV75TfM5OHHoOpFt2DnvYUqW0Bv3aPbrEaHQJF6MZ3xFzv7nkqM3uH0IMwVr/66JlPkfjhDQFFPwMdBUVidxsBNXfU/Zn5G4QehLnS3+SjaHNcJaboGyugA6Fwzfk3V7/5Nywzg0vQgzBZzCPoC4DC9Ieomr8xAh0KhefeGFE1d1LFzBR2Qg/CbNX/h74GKBx3iyt5jU/QwVAYCrwkruQuWnUkiVvRozDdxtbo64BCul5kxWtNRIdDobTeKLLiLrrraB7RozDfTzz7QW+xhcUWfBW/R9Bb55uWia24g1oczeRX6GGYr9jgZPDlQPl5QnTBYx5Fh0R5i79mrOiCO2j40VxegB6GDarx7AdtdRwlvt4x76Kjory8e634ejvo2APzbuhh2KH0TPBFQbnreKmMcrM9aGoLP9EXYuexdJ6GHocl5pbriL0uKDdj+sspdwzfPWgoo8peOeV2zmdZGeVDOkFeWgu9MigXSdJ25+zzODo2ymlbd1nVdk7BrJR+hh6IPfqvgV4clFN8VXnF3rkVHR2d5IEP5BXbOce/2r4GPRCLLPurHvQCoZOVllnsGuXR4dEJFbfLrLVrGvyTVvRIrNLsII+e1sXSA3JrvYoPl3SR9hFfOIi0/Z/McsWDUCXO5eoHLfSUvl62+OnoGOmIpMoNZJfaMb/9k9uu6KHY5uHFwCuFsozcJL/Sc4eho6SoqLUl5VfaLXEp/yS3KXos9inFjTzRUpRs7R/9ITpO522VsqDFbf2z5bc6ejAWOoOvH6BSFH3AEsP2AJV4AbdUEu+XbBnmyasSdP8tzxlN0mUo+7oxhu8ecJK71FBVZ5fETcqW46Ho0dipOff2Rsn4l7oy1+SqaZTdAQ8Kp9yddVKW+dWSHC24tzdET6WPooufj47XTfWuUFlll/x9Up4Loodjq9lDYkGXjstG/qq2yjU7oCN20UEeDCrJ3g0nJXpSHHpA1ip5NejicdeGG1QXeS8/bFVteKrqIrtjVo5cl0IPyGL9edCkUpOqqa9x2/PQUbul1znqa+yOnDvEPIsekNUu5OZL6gzoAakxbxHVGcEzHGT69ZSEYy4pVxS/dyngInLSgDcwJU7g9u2KpD2IqbAzPj4l5dvQQ7Jc0QKA68hBqObgecvYHlRI3rwIVWFHTDj1Q5r4duhB2a55U8C15Bpcc2B7UGJ8EVyBHfFtLmmvjB6U9SZfOED5xeSY9cDmwPYg34inkfV1w7SeuSQ+oxZ6WPYrPl/59eSU1ZeAC/wQOgNWS9sDLq8Tzsg195+ih+WC0W8pvqJcUg++m+QyfrkkTfK5/P+qwNzct3cYw+SrsJGbL0nSRINd/hPYHiSpzy2VlLgzj/zzzYMS855KVHpZuaLJtejKHpFwHzoPVpp5OB1dWTf0ScurBN3RQ3PE2MoqLyxHdNaiOXheNNuDcD2r8NBoRbrmWYTB6KE5Y//3Cq8tJ4ysja7pcTwtTrD4zXzmrUqtlDzLkPQwenDu2MTNl0SqoNFTaW7JJ9Qt/FVSp2U+hajPh3vKpL9cUdkFZr2VvdHlzI5b8okzsTm6mi7ZlG8tFqCH55Q/FF1h1pszGl3Kk83jd8tirLwVXUq3LM+3GiO5h4lK7fj6QYSK2u0Cs+wOdE5sEL9rGrqQbpkRoiCd0AN0zPutlFxnVjtNw2/t4l5AZ8V8r3PfaLV6hDzH8lX0EF3Dx0sBtdbzi5a30XkxXL1/8yWoWgn5P1c6YlIN9CBdk5rfdwIUSitNH4am34jOjNE+bYYuoHN+DKMs09GDdE+b8dIvNmu1egddvbxMZnvwK3l4UXT13NM8OZzSXIgepoO+2yr7grOUvs2B7cG3xYCDwZ1XfGZYtUnT8CWf9eJu5eoHH3RuDpntoRM6PyaaOApdNyedelxo7k5HD9RNH2VIvehstEXr5pDZ89keIrX6MLpobhoUdoU+Rg/VTak8ejoyIwaiSxbSNnSOzBI7ny+jIXrkdiBcHu5GD9ZRzXn2QwSGlkDXKzSue4jEYs3WvDtj0eoIqpRcCj1cR81rkef26pTDUCO+vU7/G50nY4zgWiuQvY9HVKgUfjUAsuhcSdeebdYY0RzYHsKV8hG6Uu76X4S1qsgPl1Bee1fK1WeZpmPRdQpX+mB0rgyQ3EXPFe9OeCTick2djR6zuwqPkHD92aWuSfuzFURnS3vji6Br5LC+Pgr2ylz0qN0V/SVfP+Srl1mftjyPzpfeRjyNLpDLPl/qp2Y/J6DH7bBa4S5OcdL5xdH1idA36IxpLGVPW3R5XNZvg7+yrZ2MHrnL2uwWexFa5Pya6OJEjO0hL8M1X9FouRd9P6V4IQ49dpdNfqyJyKvQHgY2B7aHPDTdhC6M286OYBVcTg+hB++2aZXFXYb2MLI5sD3kpkkZdFUc1zBQ+c7jI0GokjvEXIYW6WBmc/C8KujM6Sb2eZM+PLNRQ18vpE8YZuq1aIsnQh/Y5JTx5n5K9xE6d3p5iNtmgDUMeVJoKFOMWXVkqwV8/XDCsL3ocgTQAp09jTzeHF0N51UVUMaKN6CjcN20ewWU0Q6GP+lch86fLir+G10KOiikkmNeRsfhvIHDwzrVz3rnzUNXIiC2hyMSHzT5DtAOxaeLquZVXBeHVm2xqGIa7C3Tm4PnzWKbjxrCTXrgSr4nrp6vL0JHQw2dfz19xzJ0DQR40vX20C0VXQLybha6U8+k59Dx0DLHX09bsjbzZqfbQ32ufsNrK3wdVXvz7+qNN+3HwJ+gmetGW/Z1KR2PTiXMTB4arYGidcVXtpf+h/ja75JbxBfWDJ1saQ7utoeMRnwZrYGfAmyekbfO/HZJA6Vayait9jrZ8VjpmNJOPly6g38vNTBwvKz6duiNjo286Ds7yqqvvqxqDp5XyL32MPR9dNIp0wVSbhyOSXrerFNX7NRurbwK68my5uBee0h5kB/Fa6D243LLvPpydITkeRtby62yZtba1hxcaw838gwHDazaJX/STXkYHSV53p+J0gutjTvQyZbhL3RW1dnNr1h1oOiD+Hv56QFesc1Kaq2BtTYsgjuVK+1hDrdU0sG1p6sq+JbC6FjJ86oNU1VvKEubgyPtIaNrDDrP5Hk7C6os+iv8AkEDrw5VWXMMa5uDC+0h+Yvu6CST5xW/c4Piwp/+FTpm8rwLJikuu2q32NscMquHzq5k44ugM0yZWgB24Em+iucC4U17Zoz60qtzi90fQlrdHr5+FZ1eytQc9H1jhb/s2d3AXKkf2/txpOXNweb2sP4xm+/6jJFaADcFHuiPjp48r9q7uBkglQXnOYRi62GiVaLRmSXPq/lNBnQWTD+EzgB5XumZ0EkgyVsu/Pu08rS4Au3QaSXPW1ZmJXoiRG2ugc4CeXu/QU8D8aw47Cc0+06L27oRnVPKdNka9EQ4IrGs7U+HTfDSQ+h5IJglh/2EZtlpcU3WudHVNVdyB3oiHDf0MnQuyPOaN0XPA5H+TkfnUxmb2kPsvmnodJLnTduXhJ4J2ewYjc4HeXGz6qHngTCD3WkOnnezTpdyIGvfQOeSMn8IrtfsjOHYgrPROSGv5kHsNwrC7EJnUq2q6HyLUZfb7emg+Vb0RDhV56f4+gEv9Tb0PBBhMDqNqn1mwd3Dhsdcut/T1qHp6ImQu6Er0Jkhzxs0Bz0PAiuIzqF6n8Wikx7UF/x2UQMNftH3f8aHPFoUr+Yfhp/94GBz8LxSZreHD/uhE0iZHtT70i9YHJ0g8nb+iJ4GQTjZHMxuD2saorNHmS7Sfs/mJo9x8yW8Hj+g54FvjjYHg9tDxu3273higJe+R0+EcOxug84TeemFtVgpGbn/oDOH8x069770fL4WOnHkeXO7LkXPhDCdWwydK/K8v/R+Bpm7RuisIY0y5QLPphNfRuugr0E7rSX+ic4Wed4i4O69PrVA5wxrVEd0ASLUmi8cdHDtePREiExrHi2qgWl/mLU6zvHm4HmX9kSXICLjF6ETRp5XvDJ6HkTu+5fQWSPPS/0NPQ8isA6dLbxfR6KLEL45h9HZIs+LK6PZthlhqsMTQDRw6XL0PAhT8ix0qnRwgzHtYX4MOlfkeR88gJ4Hfq2/kF+34rX9Jh49EcJyKzpRerihM7oQYVlTBJ0o8rxL7kDPgyC28vWDBvoZ8HVrciF0lnRR24C7h/j5bdFpIm/sp6YukTnutpLoHJLnab94ms3hhDbat4fTfkXniDzvSxM/Wc8hfjNXy+CV0nwmsTlko3t7uG8nOkOU3nccehqIkTKD76/g2mn99uovdHr00iYFXZB8xM/gTt1wbeqip4E4W55EZ5O84ehZkDc2hxw+0Lc9JI5CJ4dSNb6W/ajPY6Pg6qAnQV7YHE5xsa7L4rYcQqfGeaueMXDHlRAKFEVn1XmFtDwZhC+kc6PpsrimXB0NtmzdJPQkkGI+z34Ae07Dd9PxhdFZ0dMNOv4InFcTnRbXXTYVPQdkGTCLq+Owen+CngM5xR5A50RXhwaga3OKwXHopDiu5A70FJBpN18/YNWoj54CJ1v6BDoj+npjPbo6J0u+Ep0Rx037UctHwwJ1SkXn2HFabevdcSM6HTorqtWdXk/u1o1l6HZ7Eel4cC46zU6L0+iAwYx/obOht3YanekS2x+dDbdtNGU3zYBmcvUD1G3oCXDcGDaHEEbr0x5eRefCad0roeuvzhR+NA0U3QFd/2Niz0JnQn+j66GrdExyVXQmXBazxLRDA4PZxa9bcWpqsQw/thQ6DybYr8fD5gXoPLhs0BZ0+VVrwq9bcWqchi5/VFSSZs2hz6FRF55R5crCL76DHsnJeujQHsqhs+CwkoYdGi3G7n7ovLvrpZXo6kdptQju1/mtsw1t7ZPT0APK5jX8cUAfo3Pgrj7f2v4Va17uqYHOvbP6gbd5S/odnYETFhY8dWHBjtLoUZ1QG333MB2dAXdtnwOuPVDa3Qno9LtqBbTwsfo0h7H7ch9iXX32Ir0W2x6mcvsMkDa7oYWHG3oZugKuQh4XF6vNwqoalTPyHGUvbeYmtD2k8HRHjBIfA6uuiR2j0VVwU9zpsJLr0xx+zf+D0V90ubVFtocV6ODdFL1H3zM+VJrPO1eEYqtRBf8OHfpx20ON9HRdzsi8FrYl34/o0N00aASq4LqpVwZdCydtxFS7ozYP9K8PPdj3uqMHmQW1Jd8P6MCdVGQYptp6+prr9AG6Ikrd81J02MddGM5wv9bluBvMlnyJA9FxO2jgF8mIWmtsyjnomrhn8hT1dR75Kzrq48qEN+D3dGkPqYj2wNM3lJv2nzGAQuuuJff2Vi01TXWRN9yAjvm4QuEOWZ/2oP5R9LnomN1TVsczATWw9NOx6NK45lbFJR5ZGx3xcbPCH/RyXRZtLvyvvMrk6jRutq9WeulxiktskMSn5qHr45jGSus7sg063uMiaA5RUUO1aQ+Kfzu0eQroiDaandyom9Y8LEypBhsUFjdFm+awLrKBDy2BHnCWdkrbwz50uG55Z7jK4pqp8RvoKjkloj/RwaR8gA72uBaRDr2VLhu3qjwtbmYMOlqX7J3B1W9hiG3fB10ph6QrO+sh7WJ0rMdF3Bw0ag+XVBRfmTwMQsfqkqrOneHg14ArePaDMm0UFbWCNhu2+2gOGrWH7qpeTY9HR+qQIk6e4eBX003oernjXCUVndMbHedxdfwFMEKXD64btA49WAGSuPmeKg0Gc/VbZLotRNfMFbVULL75pDo6zOO+9R2CLi/EZj8gsjJ5+QUdpivm/Zmoop52yZgRja6bIz6VX8x67dBBZkl/238QAw6hR59l51ZxlcnLGF3WANpuo5pbQets+QxdOTfU6im7kk32o2M8LkBzyAyjGnr4WYrJf/fwKTpGN4z+XnolrTVel39rdmsvuYyde6AjzBL3QrBANujSHqQvi8vgrYMCxecvlVxHu/1SDF1BB9SQe/OgzW/qsjsCh6LLNlEDJX8A+S06QBeUyf/sKQopbQ9fP0gn9RRRbZqDVyl4MCN1+ZhObnsYwx3PpHv/a5kVdMWIvunoQtpO5mdLFV5DR5cl4RYR4Wiz4LvoaSLCyQPfOsi2f7HE8jllijb789iqsrTaabPOYZmQ5qDRZlET5L2aHlMLHZzlavwSL6147unEI6qkKiqrcGt0WUO2bK2okLTZaLbYD6JCymkzOjTL7VF+rordOpariS6p1STt5J22Ex3Ycf8TGJQuG1vPLSAuqJPocr9np8LqT3Gy3pw3+fpBnlJSapZ8GTquLHufFRlWT122mZ+8Q2RY//g/dFw245ZKctTX5ZbeQpNXy6jYneiwsqx6XWxcS3U5brn4ULGBHXMYHZa9alzFLZVkuZFrdGS5U0K57tPkbq/BctGRxZdGx5SlSIbo0KKimqCDslcLbqkkUcpH6Pra6iXxxdqgyUfzxSTsZJP8MjqqLLeLj+1+dEy2+l3KnR6d0Oo7dI0t9YrwUt2ODumYPlL2rIt/FR3XMdHiV8Vdio7JTkXlvCSik0x/CV1nKwn/E7oaHdExNSWd5B57ETqyY4Qf/TpHk+eBdpnblVsqKTGmKw+8Fa+76DK1QEd01NzTRcf1j1Ho2I5aNkdwWO3REdmosMLzwF03jnt7i3e+2Bp11mKBSnFJdw5HdNSjPdwtOCxdtgqxSEl+xarUz9zbW7SyYiukxVY9qx4XG9TJljZEx3fEKrGPLCqg47HOqn1CC0ShJV9XAl11y3QXW6Br0fFkml1ebEw5xf6OjvCITkJj6oYOxzJtW2wQWh8KS88lWjy7sIfQJWPvoaPJVGONyIhyk6TDuofLhYaky6e6dki/WfY5TZSH1WXQxbfKgyJro8Gh9TUUfF6uw7K4nUIj4nFbAp3dS2htKCJb+6Prb5E2IitTFR2NkuagR3sQ+fxsDToYi3RvKbAw5EOldug5YI3JIpf5j0ZHU0LRwtTkm9GRejcKDEeDez5LzD3YUWBdyJeOdbj6QZDp4qqSgY4lVdk2yclPomMV+UjwcnQwtriZKxy0sGUQeiZYQuCvTCtwKEUrioslpFvBwZYWGAv3uRTiEFc4aGPxw+jZYIVfxVVkIjaSgeJ3H8pHciFstKPEhaLDp2bmmz1YXEUosPjNPAk3uARxh93WhQbS7hNhgYQH+3Dpc3GBfAwNxA7Rd3OFg2Z6NpqLnhXmE/fxC7Q7jFbdHKKifkLGK/CerywyDiukl+YKBw2tnxWHnhmme0FYMZDdYdEAYWGE71xgwALvHZ4DhmGFTXXFFYNE2qrLeb+m+lJYKYDdYa/UvZXydD0uYoH3DnwpHUjRO8SVgkTbxs2XgmgorBDA7vCjsCAiMgZ37Ii4ewduwRfE3iVjhFWCJEjhg9MAugurA647fCAshgi9DgtZXHfYAYvBAgeULbEhv9ZcjJ4l5kqPFVUFWHeIk77zXp7ORMUs7snSNagQzDdQ4FpSkmc4Hy/59Z6oGsC6w1OiIojcSNRDe3H3DpocBW6evQeF1YDkypixFz1bDHWeqBKgukPCJFER+PAjKGhx3QG/d6KR0ktz2wyDcHMNf4St8UR1hwWiAvCjJ2j3a3FPltpgAjBcvynCCkBKfMijRX34SFT6Ud3hAVEB+HI3Jmhx9w41MAEYrcFmYeknZf7m5hoRe1JU8kHdobqo8fvzOCZqcd0BM36TxRzsKSz7pFBG12bouWOai0TlHtQdqogav0/7IVELe7I0CTJ8g8XNqicq96TaHPDmmcZ5UVTmQd0BfVDjl5Cohd07nAYZvrnuEnkqHyn3eg/0DDLKaFF5x3SHYqKG79e7kLCFdYemkOGb6p1uovJOKL/MRs8ig8wWlXVMd3hC1PD9WjoZEbaw7nA6YvSm+jJFVNoJZ+SSPuiJZIzJok54wHSH2wWN3j/IMVTCusNtiNEbad5fXOFgiQqgLw0NlCYo5ZjusEvQ6P37HRG2sO4wHTF6Ex0+TVTKCW/5Xej5ZIhEQQnHdIe/BY3eP8g+3rx3UKt3B1EJJz10WYWeU0boLCjdmO4wXNDo/fsIEbaw7nAfYvSmif4mSVS+SRdXoWeVETIEZdvV7vAHImxh6x2GIUZvmq+Giko3aaL8++hJZQZR+cZ0h+tEDd+3Foiwhd07LEaM3jzl+LWSTbZ+hp5QhpgrKuOY7rBP1PB9gyy/FNYdHkWM3kBjnxGVcUJLPHMZejqZwvD1DntEDd+35xBhC+sOmMV8JmpXSVTOCaoLaF9lE3UXlXRMdzggavi+QZbWCOsO/4cYvaH6txaVdYLZ3Q89jUxyiai0Y7pDd1HD92sEJGxh3WEiZPiGSniQrx/MtvJC9Bwyy2uiEg/ahU/Yyac+VYZELaw7rIQM31jvtBSVeAJ4fhp6AhlG2EZFoO7wqajx+4T5Mo7nO6DcNVFY6kmt36qjJ49xZonKPag7bBI1fn9WQzbhE9gdFkLGb7DJ29cLSz6p04tn5EZuiajso04O/a+oAHypgglaXHf4ChOAyWJmiNqbjFSZWTodPW1MJGw5Gao7XCAqAD/GjMUELa47HMAEYLZafycLKwDJl7FkLnrKmGmHqAqgusNeUdsI+vEpKGhx3aEMKALD9asvrAIkW8tU9HQxlbBvuFHdwbtTVAQ+1ALFLK47LAFFYLzDPO7BDBObo6eKuURtwofrDnNXigohYnVQMYvrDi1RIRhv7xJh1w5Js/5JvnDwrbuwMsC6g7dAWAwROi0GFbK47rAcFYIFFn7B1w9663kG7BK1gbidKHDdwaskLIiILK0Ni1hcd4hPgAVhgX7jhRWCxDt3EXqCmK2RsEoAu0Px5cKiiMR2XMTiukPUObgobPB0K3GlIKHqF0FPDtOtFVYLYHfwBg4QFkb4dgEDFtgd/g0MwwbRM/j6QUcD3uQLh6DGCasGsjt456hfn3Q1Ml6B3eFbZBxWSP1NXDVIjNjni6Onhfn6iKsHtDt4bUQdjx2uStBwhZ0cGhX1MzQQOzTn3t56eXY/ekrYYJS4gjTFRtJmpLhQwrAWe7zUpeIi4S6tIvyk+t8J5W1rQ/R0sMMf4kqyBRzKiyrbw//Awb4qMJZD4FjsMLZgrMCakH/rL4xDTwZLLBZXlAx0LDeoaw9voQ+mvUJgMBeAY7HF6DsEFoV8SpvBLZUEmZsksC5F0dHcsEFgNPm5A90chJ5q0RgdjDXa9BJYFvJjM1c4CHOZyMKsQEfj1VbTHr5Ax+l5IhdhwW/6LDKIqx+QpvApqUD7RJYGtV9pNrVVvBt8Af8d9V6R93xRd6HDsUj0GVz9gDKzL7r6dtkqsjjvoaPJVLuJyIhypUFz8J4WGtE36HCs0r2T0OJQmJZ+wxcOQhUTWx8dFq4XqSA2plNsRkd4hNgfoB/Q4VhmE2ZjF7etbYcuu20uFFsgDR4ted4huaf+VtbgzsEbu1RsUDXQAdnmAuSJVC76+iJ0ye3zs9gSTYpGB3RE0U/ERnUSPbad2CM4qqfQAVln7DWCS0T5WPkX/CNC+0wQvTu9Hl/OFz1NcFgndEXHdlSC6D0H+WhJvEPCjuSl/I25tw+62Da6XXSd0Muls5QYITqwLC3QkR2zTnhg1dEh2egJvn5QYRtfOEghfvbqcfPglRgqPLIj1qHjOmbuHOGRHUTHZKW46xEby7ul14voKluqn/hardRk29waa8THljwLHVWWKuJjG4GOyVJ9nhdfKzph5mEdPhKx0o8SynUVOqgsxYTfFyUXQseUZf8Y0aFl2oSOylYvVZJQLToqYwlXOMgyuZ6Mir2PDiuL6PagTXPwpOzlcw06Kns15+sHOTqloktrse+klGxkG3RcWYq9JzQuXZrDZDnnkFVAx2WzMiul1Mxtu3m7K5PgxQ7HjbwWHViWRSLP6/oLHc1xBQUGld2t6MBsNm0fz34Qq54u/9YsVVtW4TpfjA4tyyJxdw/aNIe3hYWUQ2t0ZHar3lhW4VyUsaQmuqCWk3dUSccn0LFlEdYedGkO8yoJCigXv6ODs9zGpvJq55bkv99BF9N2o0Wvk87uaXR0WRaJ2W1fl+bgyVx+ez46ONvFXSF+nYqLplRDV9J+18ksYNJn6PCyvDNVQDTXo6PIsneYgGDy1hwdn/WalePZD0G1ehVdRQfUkvuaTJv2UCPwqmltFsHt7SCiMnnjAaLydR8u85bdfomabMZgOaGHwuUiSZcddYOumk5+Eh1BlugPxVQmb7p8bGa1c6bILqPFuhRDl88JO1NkF3JMf3SMWcYGehuYdDN6/FmW3SeqMnkajo7RDYdXS6+knabocLqYCyrLr2WGLttjTavrP4ilB9CjzxL3kLjK5CWZr/uUaPaI4MObnDBTl/9p1iup4unnyLPRYWYpfr7fEDpuRI/9ODkrpHOYgo7SFdX/p6KcNunYKAZdNGeMV1LRnrr8ttb0+T63py79ra2itVSXowN1xkaRC/nt141bKikzSFFNl+qyLC7G164haR+gx51l7qOiK5OHT9CROoRHT4etKbdUUqftTGV11eXPaLSP9jDyBvSos/R5XXxh8tAIHatDig2OV1ZXkw24YjK6VC6RcHpMXpKqooPNEnl70KY51PxBRmVy17EWOlqXHFLzhNdosc/z0GiVFnZUWNwkXZY2Rkf4RWiiNs1B6Qfy29DhuqWwrBPQbbGWJ56rpfZ7iVhd2sO88yIZ9iRdvu6MUbx66lJ0wI75Q/rKI4O11uUsMWfMUlzhWF1WTXtrwx90E13WDce8K68yufpkFTpkx0w4V3GFjdH5zGXo4rhmtPKNwJY2RMecJeGWcIesTXPw+y1uAG+hY3ZOm/rKi2yA+Mqz0YVxTgJgl/lYbY4OCHPZgDbNwf86vgCuQEftnPTt3Ns7p8WH0FVx0I+ISmuzWVF4dw8DdJmYQfYA8S/jEnTc7qn5iMpPRfQ3Qps/lC7ZiCm2NhudettCDzZDl0VwwfYP9G9iAjpyBxWthCm2jjaURVfDSYsGoAquy6H26YNDjbTCV+gxZmmwVUVhcvMjOnQn/Wsiqt6aGcIXDhAyT57MX3IhdOzHHW6S70Cf1eXM2uDnFvmnyw4ojum7BVdybXR6CV0GR20GFj1Zm8OZG/yd9yhX90WP7jhkc4jaUBIdvpuiv3R986Up56Br4KrbsYXXpj14n+dxDzVphjbbBEObQ1TUJyXQCXBUsSFyj/TV29QV6Pw7qzC69vq0B6/3VacOb6IuB0hnKoFtDlFRy4ujU+CqSyqBSw+T1mIeOvnO+gD/p+R6dA6yWXXl/9ZnG9rrP+q0SzC8OURFfcgrFWXTcnTxIe7hDpAwb+jwRFOjf+dHpFa9s8oRP+nymVKWRa3QhcrUDZ0Fdy07U4eLVa2mbdBZd9iEiujyH5H8MjoPJlj0HrpORx1E58FhDbqoONtXH00WoDPuslWghVU5xbM9hFRMj+YQFfUYOhMua7MbXX514ivvRKfbZahVt6eK1+U4IG3t1Oeps2YPAt0y+cL8F+bYY7wuO9e4qcYa9AQ4QZvjgDS18wF0hbJZh86G01Z9i/+QRL4R/IoVSoMvYLLRZ8dWHc0uj67PSVqg8+G2kmFuKmyutAfbopPstlTNTifUZsdWDTVoja5ODmwPWBt1mxBCJXdZhE6w44p+gp4DOemzY6tuJvwXXZtTLEHnxHHzLuiMngLSnN4PnV3XVZ+JngOnSubrzly1Ow1dmVzci86K62aH3FbYTOMKozPrvOZ6fvjABxa5GK3nCWHd+GQYrCRub2VpEstyWoGlfxSPngV5+BKdGv0cWokuSh52p6JT47wn9PnMWYikXWPRKXVeH40/eXgQnRzdlKyHLkmeKryPTo7z4q6HHdwlwdX70fmka3V8jP2PC9Dp0YvGzSEqKnlGOjo/zusz35ajp7eOQueSvCfRsyAEtodsquvcHDJd3QydIRo4HD0LRJjJLxY1sAs9DUJie/hH9dXoYoQytQc6R+S1OR09DYJKO0ObA7YcdrEOm0CHotFxQFj6N4eoqKR7eV3jfWbCdZ2n+Pu5+g2vwY3oeRAe7uNz1CUGNIdMI55DJ4q8hD8noeeBb+fxuHINXLEBPQ/CxfaQ6Y31oROlh23864fX7Fv0NPBnRCl05ijzx+Z19DyIAJfFeYcM+lYxcd1kdLrIG70YPQ8il/IHOmuUqSt6HkTmTnS+0KqZ9aSgV290wsjzSmm2s2ZIN5ZAp4w8b/s49DyI1DPolGHdYMxTwOO6rELnjDzvjwz0PIjAA5vQ6SLPK2rihixOt4cbRqLTH7l6fdFZI89b2Ak9D8JVcTsfR+Kl/rIUPRF8+RSdOJyzDWwOmV5piE4ceV6bXuh5EI60j/aiE0Xe3jpj0BPBr8ro3KH82hOder86vIHOHXneIP1XP1TmdnsaMGCi5M3R9nCpsc0h0zfcW0MDf+r92qrxaHSCyPPefwU9D4Jxsj1cava2apPKohNInrfqR/Q8yNu4A+jskOdNmI6eB4E52B4Mbw5RXDyth94d0PMgd2Pq8IUDXtxTKeiJIIBz7WGU8c0hU6cJ6DSS5z2p4wa/P7+ETgt53llfo+eBGIPRiVTrInS+xeAXKTroU1C3MyBHvIrOCXleyfvQ80CYv106YaahmR8f52LLdnQuyfOKPIqeB9mlPchDo/Ea3K/bf4YgXnCnPfwei062QPXboNNJnld1C3oeHJd8bi10MshLKJuInghivRCHTqkivyehUy3WCwvRGSVvbxU9NtfocA46E5T5EzMUPQ+Eu2MZOqlK3GxZc4iKyqiCzil53jv3oOdBVFSrp9FZIM8bbeKWSiG95UJ7eDIZnWYJtqxAp5U8r9oU7Cxocj06A+R5xZ/HzgJp3pqHTq10s2xsDpme5d7eGvh9Km4GZNzL7Xs18OdK3BSQ7JYEdHIl+wudYXmuaoBOLnneT6DVD0lX8QwHvPSbTd5SKaRb7H64VAidX5l61uHmS3jNGqUBal+A+zJq4GLDt1QKaa3N7aGQpY+Vjqv3GDrD5HnFCqqu+9CN6JjJ86oXUF139SxuD7Y3h0zLz0InmTzvkNLX0ylfouOlzHvG51XWHMba9uBAc8g0nc8YNKBw86WW76CDJS/urybKCo611s5lcaWdaA5RUUlDdqJTTV6ffWo2UriNq980cOlEJcXWQkt0smV4E51VdZqUQSebPK/6dfJfT/OQcR0MNOaQcSEsXPfgxmOl45Y3R+ebMu8fvpW7oVdywT7oEMmLvtOG0wAicZ5tuzxavM4hd524+ZIGpO6p8ENtdHjkeaVGSCyxpobZ1R4uQOdTvZQH0UmnTCvWyyrwOnRo5HntGssqr9aG2XSuzAx0NiGm/gudd/K8sbdJKe6aa9GBkRfziJTaGqBDTXTuhfkWnUuUh9qhU0+e96eEynaZi46KJt86R0JlDfGDLZt67UNnEmi+PT3eXP1E7/afMggdEnnNdwuuqlnq2/HLUhmdR6gBj9m5esUoMb8IrWnTouiAqKgD22bk73Qb2oOzj5WOazoKXQLyGgp8CFHApleCZmpQ0KbDh306PQZdhsCcbw6Zph9CV4GKnS6omPFl0aE4L+YPxDa8+vnQ9PbwDTqDWki+pzu6EM5rW0lIKVdyO1a0QjOFVNICH0ajaxFII3T+dJHxDJfVov1HQB2b8owfsP5NBZTRFveZ3B4eRGdPIwMWoKvhvAWBi/i4Ld8RmuqN7wVciha5D10Q/z5C504vy/lQAmzF0mAVPL04OgK37dzHl9E5/Gzq3UMLdOa0c8t+dE0cd1eg15k/cwkc1IJJoi5EixjaHu5E501HlfloAqp2gB+YxnbtfWaaTcvFXYY2MbI9PIPOmp6azJqMrozTeoz0W7lhtp7ZaISFL4i8Cq1iYHtgc8jL7n7o2jjtxRR/ZTvf9I/LTRb9UYbYi9AqP5s2Ndkc8pZ8zyJ0eVx28Rg/RfuajwRxCjt4hkMkFpt199AenS+9pe1BF8hl3/mo2LgJ6FG7q9944RegbYza0LsgOlvaG/EZukYOOxxxuQZUR4/ZWbXukXD5Wed8Y9pD+mB0rkwwvgi6Tu76I9JivYgesbNm+HxN5JrzDVmKk/43OlOG6MLXDyjXRFapp9HjddXvW+RcehaqOw1drHDE8dOzcKVdOQ9dLUfFRbRjayP0cB01erGsK89GTcei6xVa3B3oLJmkdXN0vRzVoGL4RfoNPVg3NZvPbTMiUl7/9sDmEJkCqeiKual22Fsu1UUP1U0vO3xotE/Li6GLlr+4tegMGSfjI3TR3BTuhq0ZPCYUoN8UqRedpZbvRNctP3Gd0Pkx0ZbC6Lo5Kcy73HXocTpowt/Jci85Wz2gcXtgc/BpPI8WVa9ZWN/DLEYP0z1t9/BgUL/0bQ9sDr7FD9b8kaGNvgrjrWcFfnWs2tOt5F9v9npA0zMoJ7M5BND5J3T93BPGoriq6DG6phq3zQjmBz03BPsCnRfDtT6ArqBrloU8ovg89BAdU+JcvnAISsd1D8sqobNivsXcXEOt10L8Fo0sgR6hU+ZW6anmQrPbmhroQuY0rzE6JzZIfpuPuZX6Nv96nIken1OenKnmKrPeUM3+1LTdgc6IJdL+QJfSKTH5/iC9ko4en0OaT1R1jdlvhFZLbOc+is6HPSq+yaNF1amaTyWS+J2xMoeuVnaBueATjZZwFq+PzoZVJnLzJXU+zLsOV6HH5oxF98eru7ycMLMduqbH1fwBnQvbNOa/VlV6J+VZhYXosbliBle/CTdOk/ZQk1uiiLdZu+8ObPVLXiWojB6ZI27mGQ4yjNPiz00Mm4MMaXcnoCvrhlpjci/AGH4+pkIR/nxI8t9a6NpmNod30Vmw1dDv0LV1Qx6HoP+IHpcLGmzm6jdpWsN354lmc5Bnx2h0eV2Q+81DBvzScsCfG1RfUk5Zjl41zXUOUrU35Cxxo+3LLfMF0aOyX6mhqi8n12CPA2o7DB2/7ZpcH4cssBNyu3mIn4Aele0O8dBo+ZYDX57tZXOQb/lGXIEdUfnUrH+BHpPlil3DFQ4qvAdrD3s7oGN3w/eXoCrsiFqnHvTwMHpMVku4MhFwHTkJ1R7+v707cfSpWv84/r0o9dNBmm4l15AGQ6XRUBpQoZxCI0mXkFQihZSk1DXkhgaVjk6GqEzFObo0KJrrihRpUBqP0KB0NfyMxXHOd9h7r/1Za+/36x84az3P893PWXtYi+YQGh4/mHV64YBfrB5RpL3HA4fwZEvukU7ibaXwzJmqSHFsrCsc79fUI4qwMmzKFqq+gh1by/9DPet4mX1I+DmOj9k7Brsem7OasucffOEQsvB3bB1dVz3n2FnJ5kvGnLVjqO9XjyeqON9HIewdWwelPHMRgWt8y8nhZjk+snZ8g6aTejwRVfpt0U8n5t5+Lsws13hJPd946jEwzCzHyf+2D/PX6tFEUxk2+lfpFuJ9h6GfqmcbW734+sGI3bYP8rHq0UTRoFt44KAz/Myw8tz6b+q5xtkCi459io7J/bYLMd9JB2/qcNkvBhv1WxdOnvtPUM803i58umY4iY6VF/8K8LfqsUTPYp5TqnW4OYxEXzZHPc/YG3x1GImOl4f/Cm9V9Vii5vCfdb8VbDPgSvOZPqmNepZIJIYcZj7T8dLqr9Mru6rHEi3jVu+8UQkEVh1qOtUnNVLPEZvkfBD6Jy4RV3lbaOeoRxIpra7jDAdb5BpuDxVoDrYY8Hhns7mOmUe2BfZa9UgiJH/fwcrfCHaUN95kstfWU88Pf5lzhslcx82e28J6r3ok0bHuW+XvAzvpd5S5ZPNA2jL3cfR0cLK3BnWceiBRMfQt6Y8DRbjQ2JtLXbmDaB2Ong7M8Vsimq0eR0S0Wp6r/WmgSPuYSfe6fqn/NMJWfyxnPwTjsS0BbaseRzTs01f7u0Ax6htpD+vYXdFO3Uqz33QQhm4J56XqcUTB2pu0vwkUz0R7oDnYq0HL4PMdQ+9sDibHtPo29zO+cLDZ3UEnfB03EW32FlsD+bdgUySHq0fhvn91U/8ckNSqgLfkW88p4XbL/aZVsBmPoaqbAnmnehSuY0sl+7VZHGTGu/LfgPX6Tgky43G0z6YwnqgehdumPar+HSAdvYNL+VBuK7ngIY4082XapiB+px6F06quUv8IkJ7jgkr5VS3UU0F6evJ2qx+b/gky+DFp5F29VP0DQNouCuarzzpsn+GMRmc0DCTn8XTrxgh+oR6Es9YPUVc/MjE8gHe3p5+jngUy0aS5/5zH1RWJRJ56DK4ad4u68pEp32/C8zm8c0q2DuTnHkP3JxJ91WNw1Hcc++Kikj6+7hn5GPvvuujUguB+9nFyBqeGerMoO3VRwkpv7OrtoJgrS72jHjq8GbMvm2t48EMicaB6DA7q/6W63uFHg1OvzOxtlk4fX89S0WWjyhi6FETZR4nEo+oxOKf84zPVxQ4gEzmnT1dfN5wzLZHoqR6DY0aW5kNZwDl51zVVXzscMzmRuEQ9Brd0r6uucgBe3Pee+urhmLzENeohuGT9C+oKB+DVKPb2zsS8xC7qIbhj6PGN1eUNwIfbOK8gffcl3lQPwRXNjuPAF8Bx9aucrL6SOOPfiYHqIThiKtvrABGQ9436WuKKUYnr1ENwAmc4AFHR9xn19cQNQxJnqYfggPYfqusZQHBmVFBfU1xwAWuHlAoe5AwHIFKGlRqtvq7Y77+JX9VDsN17nOEARE6j/UaqLy22K5F4Wj0Eu1XgDAcgkpq8rr66WO4fiRXqIdhs9LvD1CUMwJAP9lRfYay2LDFWPQR7jTymkbp8AZiTu7yV+ipjsXcSpdRDsFZL3mIFIq7X5+rrjL16JNqqh2Cp2n3UdQvAvIv7q681tkokblMPwUrl9+ctViAWhp2Ypb7eWCkrkbhTPQYLzfp9jrpiAYSlx/Ky6muOhcokEsvUY7DPKZ+oqxVAmAZ34ejpwu5OJCaox2CbMjeoKxVA2DquU195bHNwIlFfPQa71H4xR12mAAQuaq2++tjlwY0xqa0ehE2u4QwHIKZm3t9ZfQGyyR8bQ9JdPQhr5D9WSV2fAHS6ndFQfRWyR4mNATlDPQhbtKyrrk0AWrPvVl+HrNFvYzj4WHqz1mer6xKA3krOftgsa3Mw1KOwQbMVF6qLMhrqftn2xoEfn/L6YUfsuXUD/au6j3jwltPqdlOPLEIGl/h59cDdxm85ILlm1pNr9zrq3v0eXN3nob+pRxYNnP2wyaGbQlFJPQq9kZdOUBek+5444PLPJyaL8h7/d/TlH7yqHqbT/jt26pS9kr1GMmmvEXf8j70j/Wpz7qyALzEO2nVzKMqrh6F21NfiYnTes/efku7bHoPq7P99rnq8Dur76D0t0y3oCi/34d8df7IP8XgxiY7rNwci5o9h2l8hLkTHffrZ7gWZxvw/L5+mHrZLJqx+JuP3ztdO/ZK3s/345+GZhjxilm0OQ6xPh5t0CQ8cvBvwwLleN7gcd8z3jdXDd0KjH7t7POKy7O7vfqoevcPqr5nrsbYjoWDLzzPGj6XzHxsjLkGX3XlpM1/RH7Shz3D1HCxX95LF/l7AP7IUTyE86/YvX7F3295bYtAhtqdvd22grT6XVTou6SPodB16gHoi9up1z/QgQvze/9QTcVeTxUFkwEk/bQ3Bf9QD0cjiwuTZlw8Hl4ZvBqtnY6XbXgssxNNPZY3mVbu4Hj09amsAXlYPROK3HtKqc1jjD48MNBMNN7yknpJt6r8Y7DPRSdXYJMajVQ/G8uyHSdt2I31BPRKB5tnSknPYgBMDuaW0g5G7VVRPyyYXftU+8BBPfp4W7FHffQLPhv2mbJv9gJrqoYSt9W3KanPZzCpDjWQkf8qt6qnZ4sI1hkJ8Nf3BoxnxO3r62j8n/4t6KOEq+7Sw0JzW+A9zW+DTHza78DNzW+qPfIw3XD1aHbdvhv96mbOteihhyh/xtrDKnPZzJ7OZ4f3ixDnzjYZ41qVsxeRNt/1itbf3mdvNPEZnqra8S1dhbhuyt/HkFPyUehhR1sD8C5S1Ls9Tz9JRTRYZT449tr+98rp6MGHZo6SsuBy3cL9QEnRVZfVEdbp9HEqI57+gnqirFjwXSoJssP1d3irqwYRj7hpZYTlu1Wcnh5Wku+9TT1bk/NCOrazDEx6PqowLK0daJ20/6YMmq4cTgob/4owBj5aE1hs2+VU9XYWO68MM8RS+QPSmza6x2Nv7/B0mvZt6OOYtbiIqKOfdOj7kVK2L36dba0IOcbk71DN21ewYPH4YWW+HKZ+gHo9prX8WFZPzPu0S/jsLX9yknnW42pwSeojLPfkHe+R680Lkv36oU2jGod46CF3NmL8L412/czUZO0s98TBdEPyn0eno9Ip64q4aG/GvH74sNN/L1QMyqTRfOHhU0uzr90mcFJutTuq/qXqTPv9gdufzZs7LUX78MD+n0HSXRncb71M+UdRPFMwObptQD6qopx+OXl2FMR60RD19V903RZg2w8buNNur1UMy5PYh4VdONNRTfx36e+F/YaKo4xfaIK+/WB0BV406TJs5Y2ruvHt1A/WYjJjeVlA20XCJfm/GX9QxMO8KdYzLlXt4tjoIrro+mmc/nFHEVCN4ClLNB3NDr5iIuOgqdfI2WXeQOg6G9VRHeLP9OF3Um1U/TVLnLniz+hYxUwv+iwlW/r5s6uZRk0PVydtqfbRT+KY6vluVPz/1WFGUMR9Hbo+654ucaLCnUcmN7xhunURHo3/Z84rCtBbqaJiT87w6un+pwOM5j76O2E2XkUW/LNhOPa4gTe8TcpFER5XR6uRtLyu6e+q+p47tDu5dqo6Hqz6M1OOH6sXM8kj1wALTajkPHDz6n9kzHDL3xTJ1SMwYZtsrkQXLOWndm1W7ROjo6eI2HLpAPbCgfF7UcxWkoaOFy+SsSB5o1ri6Oq47G7R6pjosjur7gzp3QSm8icZfnlEPLRD9V4ZYFpHS4jx17oo0P4rnmZVWR7VIT7ZTx8VVKyOy+dK3xc6wRQQOxxt9fv0QayJKFh7bVJ28Ykyco45N4MI5S8mDxQ3UoXFU/TVWPa/zqHuSGf6mHpxvU3l125v6pSw+2OQ/UTvtcoU6osXL35fH0940mqrOnX93Jplfj+nq0flzCJ99enTaEercJbW3Oj7BWqKOZ3JvrlIHyFHZgp3YA3Ve0umdrR6eH4cfGFIRRE52HXXuUjlaHaIgXayOZirzz1GHyFUHOv3V2KR5yWfXXT1Az8rzwMGjHvc4cHDs/eooBadXaAdIe9fya3WUHFX/fIfPfvgqxeR6tVKP0Jv83hwa7VGVLHXy0hKZ4+L6rVWHMi0ciuJRN2c31+iaclPkp9VD9KQrb1p4tMDuBw5/GR2VPTWsv4u3VdldovYuQFgalFHnzpOGaWxLcJJ6kJmb/of5jEdTx5bq3KWvTDQ+1bpEHcf01ThxmDpajmrrxnp8R2+mMbFs/b7+mSn4lW0zvJm3rzp3GSlq33nn3KCOYkYq3KCOl6Py3nRuc40zG6czsdPVw8zMebye7U3j1a49P/tQHTL/3q6hDmKGNtRTh8xRSy3cKiWZue+kNy+X/qNcN8psjqPrWfcOPpzk/v5Ze6tjmLG5PdUxc9UFyhPDM/ZCmrPKteJcsHT0/9loeiOs0THq3HmR7Dt/J5yojqAXXZ9Qh81VZ09U5y5t1dKeVF31UNPzxWqDiY20VXfMVSfPmxPVkfOnr5sHTebvO1gdOVeNdeSHdmYGc/pZPdh0DGQ7em9yTp+mzp1XtdK8OWopC/dHT0+rs4arY+eog6qpc5eOaRl93HKNergp1ellKp9Rd/Fl6tz5cLc6en4cr46eD6OfGqAOn6OyF6lzl1JBhids7aMecHKc4eDVJ83VufPnbHUAvZvjyF2GYlzlcOi1TrD8i9P8LzOcUIcj1UNOYi4PHDya8y/Xj/CY7u79RJfeBSxSS3Yk8Gis1S+PZ76HWSV7j9L+baGB/MXCGquLND27qoPo1ffqyAVgQyV1FB1l89kPB3uYT4v56lEX7Zeo7LcTunaWZjRDr6rj6NHt6sAFoeBXzn7wZratZz+UTrn3XlGsbA/PvRF01uJituMPHP60mzqS3lyvjltAniypjqSrHrDyO7J9PTWHje3BupPiaj3OGQ7e9Dh3ljp5gemoDqYXM+29U5up5pzA6M2FxxWoc7eTfdPaXakor9ZWj31H540JMldx0naQOncBulIdTS/WqKMWpO/aqMPpqL4/qFNXyMc+JvNpe/Xot7N+SGBJiplXjlTnLlgOFkIH13bfSy7L8Y/WdVb2V+due96eOWxTqbV6/Nt80dPzEijm+u6mzl3QHFw8jFXHLGjrZ6hD6qj6TzVT5+5P6W+uVLR569Uz2GJqo0BSEz95A53baD61C9RRzVSHKN3Z22oKuxV4M6+0OnVbPe17KgfZsO/CIp6DedQ2Wnc0tnJuP4016ogZ8RuPH7z52oojGasEMJOF8jch+y8IYBqxNCMS79gXIcN9YdQaR+eFpR1k9eQdQm/O0X8ucHogExl2rnQSWV9xuK03y16TJs6k3urYZqaPOl7GHFFZHVtHDbhRu29BVomgZvKHcBbL3d1XR+vt0iOFaTOsVUY7DsvZcHfWlJZ11dF11JzvhFk7M8CPAxqIPnwY2Zt9XbzJfTCCD6O3c406wJl4Qx0ts652/0BXjfvuVaXssUC3Y58gOQ/39SZBziFGcq4fqshXiIb6elE7ZM5vzppC2V1y1SF21AVrJfn6Meh5VAn90MNxbYOeQ1w0cOq4c2/+qQ5y+vJaqYNl3Pw+6iA7athT4R8m29LAPqYtwj32sPwu7NPtzZjH8kPNlMbR6jCn7xZ1rMLA2Q8eTfgu3H8eCsaa+az4/BDncAZfv3mzysKdvkwo208d6bStU8cqHB/PUwfaUUvPCzFL72ebmkaLQ0Kawkn/MDWFqPvApp2xjPpDHep0jVFHKiy1fuLsB28uDutX27mnyWlUDuMjjvnvmpxClHXcK4T0WOIZdbDTtUYdqfC0/8CllwUs0qHq6DDyc8wcs9NY9abxKXxudgbRNbi68dxYpGagL+UZdJQ6UmHqOkodbkf129X45nxdnzU/jVffMzqFacF84B0/ecuN5sU+J6gjnp7h6jiFrPrf1BF3VKPlRp8Y1l4SzjQ6mtt5af6PM8OZQ+QckGUsKZY6Rh3y9Cg3GtB4mscP3nSrZuwT1tE3hpeUE8xsDTC0VGgziBg7Nn0MV3t10NMTq9t9W1x1mzrornrnETMZOfagUKdx9vjAZzDxxVBnECGNHonwlkrFc2Kj1pzO6jApNDf23mTUzbs88M/jOl8e/n5EHbtMDnIKixfwuoM3w96dG2Qi3HG+OvLp+K86ShqT72H3TI8W3hjornadTtTc6Kv0TWDTOLqjZAZR8FCnoJLgmt3VoU9HVXWUVE5mIxzPbvkoqCz8INxxJmfG7yf7n8Hr17rz3attev3gP/6uKnDhpPHu6ijplOHtVs9evc7/PpoNrzx+uHoeNz0/zs8UntuF42k9y7u8qe8acthd6vin1jjaG6mn0CXAUwRi57R7fT2B2PtaOzYjyvnHNXt52vit5ik9P1UP3mE5baf7KR/3Ha/OQGp11THSmvTTheoMOGzmDX9f7yns03tfZNUepvWWdMnw7Nyuxz6gHrTbhsRgn+7kDlanILUf1TFSe7KdOgVue6fKbjUyCnjB3j9ZuV3up6d/3DqtCTR9/ZsHeNTgT9+rvfxWo6WMOgmp9VbHSO//vlYnwXXZxz+W3jZ9zXZfcUF99WiTaPTKLdVem1bs8AsO63LczxX5HtqvvOWxvp+91Uj7H0vHfn1XbtP5vxPUaXBfvTd+PPfm4vdA7Ty+9+Mv9HLko4B3vr7p0VJVzzqjd/XPF938w9EHn7t8xZLKF3wif4QeDTkvis75tk1FdSZSaRzoN0HOqrU/jx+CsbTugR+svubY35/f7ZDur/2y4Zhqu9x/wAvP9uLjEmz1hpl9TBxk/T3tT9QRskV761MFuO++X9S/dHs8qE5GKiXVEbLHeD54BYxaeE+sv3AopIs6HancoY6QRfI3LFWnA4iu+u/6+vIwcl5XJySV39URskrBLnnqhAARdcIR6t+3ZdqrM5LKKeoIWWY6my8BBty1WP3btk6+7a/wefvUNcpun6HOCRA1lT5W/65tZPudbONnBTtoyifqrABRkver0TNnnfWEOjHJ5ajjY6WGv89RJwaIisa3ZLbVSnysVKcmuTHq+Fiq/AqOngaCMIS718X5UJ2b5Jqo42Otq0qqcwO4b+lu6l+yxU5UZye5N9TxsVjz2ersAI6L7cmTaflJnZ7kLlbHx2q7sjsQ4N3PV6l/wnbbVZ2g5Faq42O3rCW2v5EM2Gr2IvXv13Yb1ClKbog6Pra77L/qFAEuavPdLPWP13oPq5OUXEd1fKyX/xhnPwCZupYtlVLrqs5Scnep4+OAmvurswS4ZchJ6l+tEzqp85TcMnV8nLDHC+o8Ae5YyqHR6VmrzlRyfO+QnkXZ6kwBbugxUP1rdQZrh4iYyuYaQEozVw9S/1TdwdohKpr91EGdLcByH05U/05dQneIjqEvNlbnC7DYkL3Uv1G30B2i5PbT1AkDbNVrivr36RqeO0TLoibqlAE2yruuqfrH6RzWDhHT8IxG6qQBtslpO139y3QQ3SFyvig1TJ02wCoXdFX/Kp3EnaUI6mT5mU5AmCpVV/8iHUV3iKR9PlVnDrDDqqdrqn+OruLOUjS1Wp6nzh1ggXZ7qn+L7rK8O1RUx8ddWQeokweoNVms/h26zPLuwNrBh64N1OkDlLodM1L9I3Qa3SHC8p/n7AfE1/lz1b9Ax/FUOtJqXqLOIKCxsr/61+c81g4RN3GBOodA+HrVUf/yIoDuEHnNZ6uzCIQr7yy2zQgA3SH6Zu3aRp1HIERta6h/c9HAc4c4GHetOpFAWL7k0OiA0B3iYe0V6lQCYbirufq3Fh3cWYqLxXXVyQRMqzSCLxyCQ3eIjfx9B6vTCZjU4/Ky6l9ZpNAdYqTV3xeqEwoY03aQ+hcWMTx3iBUeTyOqRpVR/7oih7VDzKwfpc4pELwJG/LVP63ooTvETpcx6qwCwZq5opb6ZxVFdIf4mbRipjqvQICuaK3+TUWT5d2B8x2MaH22OrFAUO46Sv17iiq6Qzw15+sHREKlx3jgYIrl3YE7S6bkj6ikTi7gV943BepfUoTRHWKr4FeOnobblpys/hVFGt87xFiNJer8At41WK/+BUUca4dYO/JZdYYBbyZsUP96Io+1Q8yV7qbOMZC5YWs6q3860cfaIe7mlmqszjKQoVEV1L+bOKA74LIL1GkGMrH0aPVvJh64s4Ry5TawuQackfsrb7GGg7UDNpp06ip1qoF05BwwVP1riQ26Azab1kedayC1IV3Vv5QY4c4Stnq/gTrbQHItuqh/JbFi+dqBfZbCxOYasNmcXZuqfyLxYnl34M5SqMpex9GisFSHS8qrfx9xQ3fA9r44f4A658DOGh/Pw+jQ0R2wo6s+yFFnHSjkYr5+E7C8O/DcQaDMG+q0A9vr9bn6NxFPvLOEnZ3H13GwRu7yVuofRExZvnbgzpLGpP05ehp26LOn+tcQW3QHFGniC+rcA4nErYvVv4QY484SivFatjr7iLt6pUeqfwZxxtoBxZlcrY06/4izVcfVUv8G4o3ugOJ9sbq+ugIQW9fXVtd/3FneHXijVezwBeoSQDyV2Etd++C5A5Lrfqu6CBA/S89T1z2sXztwZ0mv4e+N1GWAeFlVlfN9bEB3QEpzefyAED06TV3x2IzugDT0X6muBMTFE+PV1Y6teO6AtBzyqroWEAeNHuELB2uwdkB6mg7MVVcDoq5xqdHqOsdf6A5I156PqssB0TZkvbrGsT26A9K3eLa6IBBdlaqr6xs74rkDMrHfcHVJIJpyr6mpLm4UwtoBGRnXc5i6KBA9OdezT7d96A7IUAXebkXARnVVVzWKQHdAxu7m8QMC1KKLuqJRJJ47wIOpc9SVgagY/ltTdTmjaKwd4EXnFavUtYEoGHDjXHUtozh0B3gz/48cdXXAdTnXt1fXMYpHd4BXZQ5UlwfcNup2dQ0jGboDvFvE42l41uIXdf0iOboDfJg1lbMf4MnCe3gYbTu6A3yZe/5MdZHAQaV4GG0/y7sD50rbr3VJdZXANWy35wTLuwNrBxcsylbXCVwy5mh1xSItdAf4N/m6PHWlwBUz95+krlekh+6AINQ+R10qcMPPe6hrFemiOyAYLRuoiwX2+3qxuk6RProDApK/YYy6XGC3Cb05NNoldAcEpmZVjp5GsTpU5Xwft7BHKwI0tK26YmCra2urqxMZojsgUJfdpK4Z2OgFvnBwD3eWELDdl6mrBraZvUhdlfCAtQMC90g3dd3AJo3OaKguSXjB2gHB63x+fXXlwBbD3h2trkd4Q3eACf1XqksHdvhyrboW4RV3lmBGHc5+QOKT5uo6hHesHWDIrJc5+yHm6pVWFyH8YO0AY+aOVdcPhIatKa+uQPjC2gEGTfxeXUFQuaCTuvrgE90BRj0zWF1DUJh3nrry4Bt3lmDYT+oiQuhm3thMXXbwj7UDTDv8BHUZIVwrOcMhEugOMG9RL3UhITzZn6vrDcHgzhLCcCxHi8ZEm2qT1cWGgLB2QChqvJijLiaEYDXbZkSH5d2hojo+CMxlM9TVBNMWPKeuMgTI8u7A2iFKfrhPXU8wqe5R6gpDoCzvDqwdouW7OeqKgiktquerywvBsrw7sHaImPL7r1LXFEzIPVZdWggc7ywhXEP7qIsKwbttmrquEDzWDgjb3i3UZYVgvfK6uqZgAt0BoWu16wR1YSE49x2iLiiYwZ0lCJS9Rl1ZCMqv6mKCKZavHXhnKar2eEhdWwhCnyfVlQRj6A4QGZGtri74tpe6imAQd5YgM5XH025r0FVdQjDJ8rUDT6UjrdU3ueoKg2cTRvD5W7TRHaC05wfqEoNHJ9ZUFw8M484StA4doy4yeNBmirpwYBxrB4iNfkFdZchYA76NjgG6A+SmXqiuM2TmaXXJIAzcWYJemWXqQkMG+p6pLhiEgrUDLFB2tbrSkLYXm6nLBeGgO8AKi+apaw1pGTZCXSoIC90Bdsiqqy42pCG3u7pQEBq6AyxR8zR1tSGlty9TlwnCQ3eALUZWUZcbUlg2X10kCBHvLMEeA9X1hqSemKuuEISJtQMs8nxjdcWheP+cpK4PhIq1A2zynrriUKyf1cWBkFm+duB8h7jpvkpdcyjaCbPUtYGQWd4duLMUO1cOUBcdinJTU3VlIGx0B1jmkGHqqsPOSpRV1wVCR3eAbarzaNo6d7F7RgzRHWCdS9Vlh0L+VkNdExCgO8A+x6nrDjuYM1FdEVCgO8BCb6kLD9vJ/Y+6HiBheXfgjdaYYs8li5ynrgZo8DUcbNS5l7r0sM1n6mKAiOVrB+4sxVWFXHXtYYs3GqprASJ0B9jpGXXtYbN5WepKgAp3lmCpnuriw0Y5i9V1ABnWDrBU07vU1YdE4id1GUCH7gBbHZGnLj/8Y6S6CqBDd4C1nleXX+x1eFJdAxCiO8BeX6rrL+5+U1cAlHgqDXtN76EuwHirm6+uACixdoDF9lMXYKzV76TOP6ToDrDZKHUFxtmN6uxDi+4Am3XiKCCZMTXV2YcW3QFW+0xdgvF1tDr3EKM7wGrN6qlrMK6GqFMPNboD7NZbXYNxVUadeajRHWC3/IrqIoynyurEQ47uAMu9py7CeDpJnXfIWd4dOBsO5diNT+AiddahZ3l3YO0ATnpQWK/OOvTYSQPWa6Iuw/g5QZ1zWIC1A6z3sboM4+codc5hAboDrDdrgroO46ajOuWwAd0B9rtOXYdxU12dcdjA8u7AO0vYqHOuuhDj5e1Z6ozDBpZ3B9YO2OQWdSHGy9PqfMMKdAc4YL26EONlvjrfsAJvtMIFz6orMU7YRAOb0R3gAvbiC9G96mzDDtxZgguaDVCXYnx0KFBnG3agO8AJt6lLMT4+UOcalqA7wAlHq0sxPvZR5xqWoDvACQUd1LUYF/3UqYYteCoNNyxQ12JcXKHONGzB2gFuOFhdi3FxqTrTsAXdAW7IUtdiXAxSZxq2oDvAEXXVxRgP36rzDGvw3AGO2F9djPFwozrPsAZrBzhikboY4+EQdZ5hDboDHFG2vroaY6GZOs8R8fH56hH4x50l4y6+XT2CiCihrsY4eEKd5Wg4/KZEH/UY/KM7GHdQ4kY2rgnC4+pqjIN31VmOgkk3bozko+pR+Gf5xvmz1fEJwEGJxDucxBiAfdTVGAePqbPsvpqXN9oUyQhsV8VzB+MO2jSRJ+5WD8N9e6qrMQ64DerXd922RJI7S6ZF487SZiXGqwfivDnaYoyDXHWOXde8ybZQ0h1Mi1B3SCRe5CtUfx5QlmI8lFDn2G1DH/0rlHQH0yLVHRIHTVWPxW13CCsxJpaoc+yySVW330iY5w6mRea5w1bLePzgwwhZHcbGdeocu6vhI/V2CCXdwbSodYdEYsZa9XjcNV5UhTEyRZ1jZ929rFAoubNkWrTuLG1xwHT1iFw1SFKDscL/Lt70X7lTKFk7mBa9tcNGed+0Uo/JUQsVNRgr6gy7qfyaIkLJ2sG0KK4dNmrxi3pQbvo2/AqMl+HqDLuo4X6NioolawfTIrl22GRGBfWwXPRC2PUXN1HYmyBsV1YsOpasHUyL6NphkyVZ6oG5p2241Rc/36sz7Jz1pxUXS9YOpkV27bBRj+Vl1UNzzSWhFl8MReCKFqqTf2wc5VjSHYwrrjskEoOPzlcPzi3nhlh6sdRTnWG3DMxLEku6g2kV1fEJQPHdIZHoyOZLmXgstMKLqRXqDLukTq+ksaQ7mBbttcNGOQfUUI/PIb+EVXdx9aY6w+7YY+cvHHZEdzAt8t0hkehxzyz1CJ3xcDhVF1/V1Bl2Rc39U8aS7mBa1O8sbZa9SD1EV7weRs3F2SPqDDti3wmpY8kbraZF+I3W7bVrrx6kG/5jvuLirbc6w04oMyqdWLJ2MC0Gd5Y2W1WVo6fTcJnxgos5ukNq405ML5Z0B9NicWdps6VXq8fpgMMMl1vs0R1SmVWtR5qxpDuYFpe1wyZsrpES3cGw0uoM2+7Kwvt0F4/nDqbF5LnDVlVGq8dquSMNlhoSPJVOocLFGcSS7mBavLpDYvhv6sHa7SNzlYZNeKM1iaFLit82owjcWTItTneWNmvB44ckFpmqM2yxizrD9qp1aofU8dse3cG02HWHRKJjS/WA7TXFTJVhm8fVGbZVw2PqpY7ejugOpsWwOyQSJQ9XD9lWI0zUGP5SRZ1hS+3+SeaxpDuYFsvukJi5hsfTRZpqoMSwnQ/VGbbS2hleYkl3MC2e3SGRaFRtsnrYNrom8ALDDl5RZ9hCg671Fku6g2nx+RqusGyOnt7ZLcFWFwq7T51h6xS8mewMh2ToDqbFde2wyYwy6pFb58tAiws76aDOsG1GLPUcS753MC1m3zsU0pajp3f0RIClhaLMVafYKi07+ggl3cG0eHeHRB6nsezg7eAqC0U6TJ1ii8w/x1coubNkWpzvLG3Wdzf18C3SKqiyQnEot21qXpPrL5R0B9Ni3x0SiSE8ftiGbZaM+0adY0vkd/H+wGEruoNpdIdEIudFjp7e4rxAagpJHKDOsR0uK+E/lDx3MC3mzx226nGWeg52qBpARSGpEuoc22B0muf7JMfawbT4fu+wo+yb1bOwQbsAIomkeKW1XLlqQfxiWTuYx9phm9s4erpcr0AiiWRi/5Rr8eyAIsnawTSeO/zpwqfjfvR0+WACiWRifv7PtA8DiyTdwTS6w3aWvqeeitbuQQUSxbtWnWWpa1YFF0nuLJnGnaUdPPScejJKPJQOQRT+H/NqN99vsW6PtYNpUajVALtDYljPL9TT0TkwwECiOOPUaVZZPyTYQNIdTKM7FNZoakP1hERmBbjqR7GeUedZI+vHjA6NTgPdwTS6w85mN1fPSGNdwHFEkd5V51lhcrUegQeS7mAa3aEoJa9Sz0nhm8DjiCLcqs6zwOefGAgkT6VN46l00e7orJ5V+FYaiCN2Nk2d6LB1DfiBw1Z0B9PoDsWY85t6WmFrZiKM2NnL6kyHq/9FhuLInSXTuLNUrBbV89UzC1V1M2FEYSvVmQ7TyT3rm4oj3cE0ukMSHRerpxYmNlkKybDy6lSHZtKvXg+NTgPdwTS6Q1JfdlJPLjRNO5gLI3ZQWp3rsIwYYzKMPHcwjecOKXw1Wj29kPxgMorY3kPqXIejZQOzYWTtYBprh1Ta7DpLPcFQlDQaRWwnZ7462SGY/5bpMNIdTKM7pJa9SD3DEMydaTiK+Mub6mwbV7CLz0Oj00B3MI3ukI4Tor8531TjQcSfstXZNq16oNvtFYPnDqbx3CE9q+eqZ2lYxxCCiG26q9NtVJlRoQSRtYNprB3S1O2Ykep5mnRYGDHENiXV+Tbo5CU54QSR7mAa3SH9UEX564fTw4khtmg8XZ1wU5qeFfx2e8WgO5hGd8hAu8jukPPFhWHFEJv9pM64IaeEeDQ53cE0ukMmVl0T0aOnB4YWQmzWraw65SYc/s8wY8hTadN4Kp2ZwVerZ2tEpRBDiE2+U6c8eOXHGttSqUisHUxj7ZCpIRXU8w3epaFGEBtVito3lvkfdws5hHQH0+gOGRtWKmpvt47sG24EsdHH6qwHq4zhbTOKQHcwje7gQaNHovV263lhBxCJxCfqrAcpq60ggjx3MI3nDp58+5F60kG6K/wAIlFNnfbgVGujCCDdwTS6g0cHjFNPOzD3KuKHHlH55mHRbE0AubNkGneWvOpxXVP1xIORX1ESP1ykznwgnntBFT+6g2l0B+96TVHPPBDPiMKHu9Wp92/0Z+G+xbo9uoNpdAc/ZqxXz90/lg4yg1upk+9TwzMaCcNHdzCN7uBL4x+z1LP3a4QuerG3Qp18f67U/mPBU2nTeCrtUxvHP3odPUcZvZib6fK5IZ1kDxy2Yu1gGmsH33r9og6AH8drgxdzF6jT71lWlWHq4NEdTKM7BGBIGXUIPHtfHbuYu1RdAB69Gdo+3cXjzpJp3FkKxB+uvru+TB25mBvu5HOrq/+mjtsmdAfT6A7ByD3Vyb292blb7TR1CWTudUtOmaU7mEZ3CMqYg9VxyNx/1EFD4lh1EWToiCvUEduG5w6m8dwhOMteU0ciQ81aqEOGRP3D1GWQiUGldF+/FUZ3MI3uEKQZa9WxyEhldbywUYtm6jpIW9mBFjyM/hPdwTS6Q6Aatx2qjkb6OPPHDiXVhZCuEXYdIUh3MK2iOj4BsKg7JBIdTlWHI11rV6ljhS3OUpdCWsqMUsepELqDaawdArfUjaOny2erA4Vt6qiLIbVBivN9kuOdJdN4Z8mAGberQ5KG79VRwp/6dVJXQwqzqtn0wGEr1g6msXYwYVjP0eqgpGLfv4JxNniQuh6SutLKjyZZO5jG2sGMOZZ//XCuOkDYQQl1QSTR/jZ1dIpGdzCN7mBK3XXquCTxmjo6KOTiWeqaKEbBqReqY1MM7iyZxp0lc96qrY5McVr2U8cGhS2wsz28t1QdmGLRHUyjOxiU9/fJ6tgUieZgo8rqsihCpxvUUUmCO0umcWfJqOyb1cEpQksL3z+BhauHk39srI5JMqwdTGPtYNhp1r2seCQrB0vdpi6NHS3PUwckObqDaXwrbVyVL9QB2kHLNuqAoDgXq4tjOxsGq6ORCneWTOPOknkLl6sjtJ3mrBwsNqOmuj62WtdAHYrU6A6m0R3C0NeazTXuZnMlqzUor66QTeafo45DOrizZBrPHcIxZL06Spv9YM/u/CjSv8epa6RcwS656iikhe5gGt0hJI2vteAE4X2tfgcFm7Q4SVwk9j9w2Io7S6ZxZyk0be5RB+ondQiQhg7PKGukZV31/NPG2sE01g4harGbMkyTHlDPH+lZMVJVI89ZuqVSkegOptEdQtVxL1mUJr6knjzSdbHmMNFaq9UTzwh3lkzjzlLI+og2X7p7oXrmSN/g7oISKd1NPe3MsHYwja/hwpY7UBEjt/4rRKJU2ZAr5MyO6ilnirWDaawdwvfJ7mFH6P1X1XNGplq0DLNCylRWzzdzrB1M47mDwivjw4xP2ft5kdVFYyeFVSHt26nn6gXdwTTuLGl8uTa08LzOwsFR884LpUDKPmjr+T7J0R1MY+0gMuz8cN5LqfGHeqbw7o3nzFfI//VSz9IjuoNpdAeZMQ+bD03D73hVyW13GN6Xr/aJ6hl6xlNp03gqLVTX9J2DdXeppwi/6n3X1FyBZD3VQT0/71g7mMbaQeql3fLNxWV9ZfX0EIQWGwwVSOdL3Nhurxh0B9N4Ki126z6GojK/rXpqCEpdE+9A17jf8buO3FkyjTtLcg1M9IeT16inhSBVPKYg2ALp/+MA9Zz8Yu1gGneWLNDrkVbBRuSwts7/9FHI8BXzgyuQj37OUc/HP7qDaXQHK9Qb2DmwcDT85Qb1dGDEgi6BFMjcc53bNKNI3FkyjTtLluhwfTAbr60/rq96KjAm99EpPpeZk3+4YqZ6FgFh7WAaawd7VDrucJ+RqPBgtnoSMKzf9XW8F8jeJzZSjz84rB1MY+1glSHVvG/wvcebT6iHj1D0u/5zDyuIybsviVBrSLB2MI+1g21GndXaQwye+/Xf6oEjRP0qf3Pl3PTLY/SVA69oox5z0Fg7mMbawUINVj+/PoP5n9S759fqIUPg1T7XnbJHquo4/POB7e5Tj9QI1g6m8TWcpTq8subS91P9dzh63aWrh6xSDxVSdT849ff3jlpfo3BxTNz746c/vFU9OoPoDqbRHaw276GeZ/1y5LhCE+48cXyd3gO/emieeniwyfDs//6v7ePHjf3x+p8vLlFJPRrzuLNkGneWnLDs+/+1e7HUjU+XevShf49RDwawAWsH03gqDcBFdAfT6A4AXER3MI3uAMBFdAfT6A4AXMRTadN4Kg3ARawdTGPtAMBFdAfT6A4AXER3MI3uAMBFdAfT6A4AXER3MI3uAMBFdAfT6A4AXMQbrabxRisAF7F2MI21AwAX0R1MozsAcBHdwTS6AwAX8dzBNJ47AHARawfTWDsAcBHdwTS6AwAX0R1MozsAcBHPHUzjuQMAF7F2MI21AwAX0R1MozsAcBHdwTS6AwAX0R1MozsAcBHdwTS6AwAX8c6SabyzBMBFdAfT6A4AXMSdJdO4swTARXQH0+gOAFxEdzCN7gDARXQH0+gOAFxEdzCN7gDARXQH0+gOAFxEdzCN7gDARXzvYBrfOwBwEWsH01g7AHAR3cE0ugMAF9EdTKM7AHAR3cE0ugMAF9EdTKuojk8A6A5A/NAdTGPtAMBFdAfT6A4AXER3MI3uAMBFdAfT6A4AXER3MI3uAMBF7KRhGjtpAHARawfTWDsAcBHdwTS6AwAX0R1MozsAcBHdwTS6AwAX0R1MozsAcBHvLJnGO0sAXMTawTTWDgBcRHcwje4AwEV0B9PoDgBcRHcwje4AwEV0B9PoDgBcxDtLpvHOEgAXsXYwjbUDABexdjCNtQMAF7F2MI21AwAX0R1MozsAcBHdwbSK6vgEgO4AxA/dwTTWDgBcRHcwje4AwEV0B9PoDgBcxButpvFGKwAXsXYwjafSAFxEdzCNO0sAXER3MI3uAMBFdAfT6A4AXER3MI3uAMBFvLNkGu8sAXARawfTWDsAcBHdwTS6AwAX0R1MozsAcBHdwTS6AwAX0R1MozsAcBHdwTR20gDgIt5oNY03WgG4iLWDadxZAuAiuoNpdAcALqI7mEZ3AOAinjuYxnMHAC5i7WAaawcALmLtYBprBwAuYu1gGmsHAC6iO5hGdwDgIrqDaXQHAC6iO5hGdwDgIrqDaXQHAC7inSXTeGcJgIvaqS88/t2ujmFyL6njE4Ae6iACCF1J9YXHv67qGCZ3nzo+ARigDiKA0L2gvvD4t04dw+SWquMTAHUMAYTvQPWFx7/u6hgmN0EdH/9aqWMIIHxvqK88/u2ujmFybdTx8a+8OoYAwtdAfeXx7z11DFNQx8e/2uoQAghfL/WVx79j1DFMoZY6QL5Z/lYYABMWqq88/n2jjmEKV6kD5NtR6hACEBipvvT4dr46hCl0VQfIN9vv3QEwoYb60uPb9eoQpvCwOkC+7acOIQCBMupLj283qUOYwgh1gHx7Wh1CAAI/qC89vt2nDmEKD6oD5JvtqzMAJuyqvvT4NkwdwhTaqgPk2yvqEAIQWKO+9Pj1pDqCqdygjpBvldQhBCCwQH3p8cvyjTQSib7qCPnFRhpALDm/wfTv6gim1FQdIp/KqAMIQKGx69euH9URTOlMdYh8ekwdQAASrn+sVUIdwJRKq0Pk0/3qAAKQ6K2++PiUqw5gSmvUIfLpQHUAAUisUV98/Kmgjl9qrr+0VE8dQAASF6gvPv6MUMcvtYVu72V1lTp+ADRmTlZffny5RR2/NFymDpIv+6rDB0DkffXlx5cm6vClYT91kHypog4fAJFj1ZcfP5qpo5eO69VR8uXf6vABEKmsvvz4UUcdvXQ4/bV0Z3X0AKjkNVRfgHz4Sh29tByhDpMP1dXBAyCzSH0B8sGNDeKqqcPkw1vq4AGQGau+AHl3uzp26TlQHSfv8tuogwdAxuGN+AaqY5eeCyepA+XZOnXsAAj1V1+CPHtWHbo0vacOlGdssgTEWVX1JciraerIpetsdaQ8G6wOHQChbPUlyKvl6silq0OBOlQeLVZHDoCUq1s9uPOh1tXqUHlUSh04AFJ3qC9C3nRSxy19V6hj5dEEdeAASFVycxfRseq4pW9mljpYnvygjhsAsVPUlyEvJndThy0D96ij5cmX6rABECupvgx58Z46apmYrY6WF7Ubq8MGQMzJGx8PqKOWkZbqcHnwjTpoAOR+VV+IMndEjjpoGXlLHa/MzXJjFysAJk1oqr4UZex4dcwyU39PdcAytkEdMwAWeER9KcpU1gB1yDL0lDpiGbtLHTIAFvg0X30tytCN6ohlqkczdcgy9Jo6YgCscK/6YpSZ0T3UAcvYN+qYZei/6oABsEJFtxYPl6jjlbmDaqmDlpG91fECYAmnFg/j8tTh8sCtxYMru6MDMM2pxYOTxw44tXh4WB0tANY4T31BSl/tVepgeeLSQRosHQBsM6aV+oqUtnPUsfImt7Y6cGkboY4VAIucqr4kpetMdaS8aqeOXLqaubTDIQDTLmyvviilJ9+dU38KO1QduzQ9pQ4UAKtUVl+U0vOyOk7e3aWOXXrWquMEwDI/qC9L6ajRTx0mH65TRy8d+aPUYQJgmXkuvHPp9JE0HVqrw5eG39VRAmCdUuoLU2rPqGPkzw3q+KXm9OIMgCHvqy9NqXQeow6RTx+rI5iS04szAIYMtn0n0RPUEfIrz/Z7S2eoIwTASj+rL07JTVXHx78nZqmDmNR6N79DB2BcafXlKZn1rp35U5T91VFMpmy2OjwALJV7kvoCVbxmn6ijE4jd1XFMoo86OACsNfgL9RWqOCNnqGMTjDbPqSNZrL+rYwPAYq9MVl+jirFGHZmg9OqsDmUxbm6sDg0Am52uvkgV7VJ1XIKzUh3Loq3lSwcASZ2rvkwVZfFMdVgCtFodzaKMHqwOCwDLDVukvlDtbNpwdVQC9bw6njtrOEQdFADWa7OH+lJVWEFFdUyCNfMjdUR38pU6JgAcUHG0+lpVSGV1RIJWz7YGvJ86IgCccKtVr9U0vEgdj+AtvUod1R2UzlEHBIAbvrWoPUSxOWxsD/PVcd0OzQFAuhrY0x7aqWNhRotp6sD+6Rh1LAA4pK4lzx5mVVZHwpS+tjx7+J2VA4AMNBmkvmpt0uo0dRzMeduOPTWqqeMAwDEv7am+bpUrV3CnOgomdVuvju9Gp6qjAMA573RSX7lOfkIdA7PadFdHuGFbdQwAOKjfa9pL1+2V1BEwbdgIbYTLR2TjWwAhayzdc+mQXPX8Q/DUSGGEr3pVPX0ArvqgQHXlanhcPF6luSlLFeFyp7RRTx6Au5at1Vy5apdQzzws85prItw0MidmAJDocLDi0vVwN/W8Q/SrIsKt66qnDcB1H4b+3XSrseo5h+uV2mFHuNy+nPUDwLfB48O9cvW/VT3jsA0/JdwI1yqpnjGAaLgmzEvXGavU0xW4pVaIET60r3q6AKIiO7Tlw9qO6rlqjJkSVoS/WKKeK4AIybllbhhXroL9o3SAdGZuC+fpQ5c4PfAHEIJ6XcxfuV5roZ6lUr9qDY1HeOL36lkCiJ43Jpq9ck2L/bPSfx9pNsJlnx6gniKASLrE4KkPtZbHYeeMVK41uTPu1bFemgEwqcNnhq5eWT+xrcNm9Q+oYCbCTS9lVyUAJl3bOvgr155rOqinZZEPDws+wgW/jVFPC0DU5ZT8KNgrV5lzhqnnZJnvHw42wiezMgMQiod2C+7KdfeX6tnYqGLvsoFF+PYq6tkAiI8JK/YI4sLVvuo76pnYqsdXZYKIcK1HnlXPBEDMfL/fOH8XrrmPHKieg93+cZbfdwDq/MGLYAAEvj/Y8/e9WaX/qR69C0ad5fmAjZqff8BGrABkXnr382aZXrcm3f1ZE/W43bF0ydUZL9Iajt/lzvrqgQOIu/pDqr4+Od3r1qz3f50R372UPMr59sab0z/Dde3LlXuoRwwAW+StHLvfUdOTX7VOPvSY+w/kZodXd1a55+H2ySNc/qMRPy2Ypx4oABS26tU3Hh3796Ob95/01xWr5sT/q/7b/R/MyOaDtyC0uODsNQM37L12+wP7nnz/3pdXHHBgk4PUgwOAlDos7DZm6YSDcrn7bcqqHnPGLH17eB736WDG/wObTifXkyPd2wAAAABJRU5ErkJggg==;" parent="S5GqEVZqtkomO6TtCBoP-22" vertex="1">
          <mxGeometry x="50.37935897435896" y="42.72250000000002" width="43.354937500000005" height="43.18453125" as="geometry" />
        </mxCell>
        <mxCell id="S5GqEVZqtkomO6TtCBoP-23" value="" style="shape=image;verticalLabelPosition=bottom;labelBackgroundColor=default;verticalAlign=top;aspect=fixed;imageAspect=0;image=https://2.bp.blogspot.com/-3d3U9jpT-dI/WSHzct3o_uI/AAAAAAAAATc/SbJBfXzhMOEOV3BtoqONyaqA5ZVZSkXsgCLcB/s1600/AAS%2Blogo.png;" parent="1" vertex="1">
          <mxGeometry x="630" y="282.01" width="141.18" height="109" as="geometry" />
        </mxCell>
        <mxCell id="S5GqEVZqtkomO6TtCBoP-24" value="" style="endArrow=classic;html=1;rounded=0;exitX=0.972;exitY=0.507;exitDx=0;exitDy=0;exitPerimeter=0;" parent="1" source="S5GqEVZqtkomO6TtCBoP-20" target="S5GqEVZqtkomO6TtCBoP-23" edge="1">
          <mxGeometry width="50" height="50" relative="1" as="geometry">
            <mxPoint x="460" y="430" as="sourcePoint" />
            <mxPoint x="510" y="380" as="targetPoint" />
          </mxGeometry>
        </mxCell>
        <mxCell id="S5GqEVZqtkomO6TtCBoP-27" value="KlantenService" style="shape=image;verticalLabelPosition=bottom;labelBackgroundColor=default;verticalAlign=top;aspect=fixed;imageAspect=0;image=data:image/png,iVBORw0KGgoAAAANSUhEUgAAARsAAAD0CAYAAACrSILCAAAACXBIWXMAAAsTAAALEwEAmpwYAAAFu2lUWHRYTUw6Y29tLmFkb2JlLnhtcAAAAAAAPD94cGFja2V0IGJlZ2luPSLvu78iIGlkPSJXNU0wTXBDZWhpSHpyZVN6TlRjemtjOWQiPz4gPHg6eG1wbWV0YSB4bWxuczp4PSJhZG9iZTpuczptZXRhLyIgeDp4bXB0az0iQWRvYmUgWE1QIENvcmUgOS4wLWMwMDEgNzkuYzAyMDRiMiwgMjAyMy8wMi8wOS0wNjoyNjoxNCAgICAgICAgIj4gPHJkZjpSREYgeG1sbnM6cmRmPSJodHRwOi8vd3d3LnczLm9yZy8xOTk5LzAyLzIyLXJkZi1zeW50YXgtbnMjIj4gPHJkZjpEZXNjcmlwdGlvbiByZGY6YWJvdXQ9IiIgeG1sbnM6eG1wPSJodHRwOi8vbnMuYWRvYmUuY29tL3hhcC8xLjAvIiB4bWxuczpkYz0iaHR0cDovL3B1cmwub3JnL2RjL2VsZW1lbnRzLzEuMS8iIHhtbG5zOnBob3Rvc2hvcD0iaHR0cDovL25zLmFkb2JlLmNvbS9waG90b3Nob3AvMS4wLyIgeG1sbnM6eG1wTU09Imh0dHA6Ly9ucy5hZG9iZS5jb20veGFwLzEuMC9tbS8iIHhtbG5zOnN0RXZ0PSJodHRwOi8vbnMuYWRvYmUuY29tL3hhcC8xLjAvc1R5cGUvUmVzb3VyY2VFdmVudCMiIHhtcDpDcmVhdG9yVG9vbD0iQWRvYmUgUGhvdG9zaG9wIDI0LjUgKFdpbmRvd3MpIiB4bXA6Q3JlYXRlRGF0ZT0iMjAyMy0wNi0xNFQxNzoxODo1NiswMjowMCIgeG1wOk1vZGlmeURhdGU9IjIwMjMtMDYtMTRUMTc6MjM6MjErMDI6MDAiIHhtcDpNZXRhZGF0YURhdGU9IjIwMjMtMDYtMTRUMTc6MjM6MjErMDI6MDAiIGRjOmZvcm1hdD0iaW1hZ2UvcG5nIiBwaG90b3Nob3A6Q29sb3JNb2RlPSIzIiB4bXBNTTpJbnN0YW5jZUlEPSJ4bXAuaWlkOjM5YzNjMWY4LTIwNjktODE0MS1hMGM3LTQ4MDRkMTlhZGQzZiIgeG1wTU06RG9jdW1lbnRJRD0ieG1wLmRpZDoyNjE3ODMwMS1jZWUxLTcyNGQtYWRmYy02NzNlMzAyODkyNmYiIHhtcE1NOk9yaWdpbmFsRG9jdW1lbnRJRD0ieG1wLmRpZDoyNjE3ODMwMS1jZWUxLTcyNGQtYWRmYy02NzNlMzAyODkyNmYiPiA8eG1wTU06SGlzdG9yeT4gPHJkZjpTZXE+IDxyZGY6bGkgc3RFdnQ6YWN0aW9uPSJjcmVhdGVkIiBzdEV2dDppbnN0YW5jZUlEPSJ4bXAuaWlkOjI2MTc4MzAxLWNlZTEtNzI0ZC1hZGZjLTY3M2UzMDI4OTI2ZiIgc3RFdnQ6d2hlbj0iMjAyMy0wNi0xNFQxNzoxODo1NiswMjowMCIgc3RFdnQ6c29mdHdhcmVBZ2VudD0iQWRvYmUgUGhvdG9zaG9wIDI0LjUgKFdpbmRvd3MpIi8+IDxyZGY6bGkgc3RFdnQ6YWN0aW9uPSJzYXZlZCIgc3RFdnQ6aW5zdGFuY2VJRD0ieG1wLmlpZDozOWMzYzFmOC0yMDY5LTgxNDEtYTBjNy00ODA0ZDE5YWRkM2YiIHN0RXZ0OndoZW49IjIwMjMtMDYtMTRUMTc6MjM6MjErMDI6MDAiIHN0RXZ0OnNvZnR3YXJlQWdlbnQ9IkFkb2JlIFBob3Rvc2hvcCAyNC41IChXaW5kb3dzKSIgc3RFdnQ6Y2hhbmdlZD0iLyIvPiA8L3JkZjpTZXE+IDwveG1wTU06SGlzdG9yeT4gPC9yZGY6RGVzY3JpcHRpb24+IDwvcmRmOlJERj4gPC94OnhtcG1ldGE+IDw/eHBhY2tldCBlbmQ9InIiPz5R8CyFAABO00lEQVR42u19aaxu2VHdqv3d18/tbjx0t6eY9ognbJwYE4wIgwRKQHEsjJIYkhA5OBYoJCRiCMJIJPxACSQKykgYlMCP2GGwglAiSIJCgiEEKULEIdCYScbGBuOm3e7mdfd7755d+fGdvU9V7ap9zh1e+77v7pLcfu++e7/h3G+vs2pV1aojZsaIESNG3Oo4GpdgxIgRA2xGjBgxwGbEiBEjBtiIIKLxW75A8bqX4XM/6xX4jKtHeEo+xrH+ZYEAEBhggAhgAOUXqMRFrj/SRP0njv6lfDSAvWK5PIP7YSHn+bh9oOVb9i9+l45Av/JBvO9/vBf/9eaEj3uPfZk008FsRjwp8de/GN/wdW/B33z1C/FiPG0+tblzggvMyJPuQY/3PSy+RsHj2v9vEKQBpxZ12AWxJRKAx4APfgAP/8j/xLu/8fvxTQA+NpjNiBG3IJ52Fff/8LfhnV/8RfhcPAHgI8D1h+bzSQZrZvChNP/7hpt+PfMOMDBr5qMoj6VNHqBJLCTzffP3lr8XmkTm+44ScP/z8Ixv+Bq8/Y2fiTd99T/G33nPr+OHB9iMGHGeKSzwzPd+L37pRZ+Be6dfB27cBGi3/wcSB5IlE3AOtDz8JbcqDIYpACUWj0UaNHj+WfIAJC3PWV4js34dnA0gkXgv5XHn13WcgZt/COAPgFe+Es/5mR/AD33+27B7z/vwrgE2I0acU/z4O/CTL3o97r3+/wDe7RkLBKuwqYplKYXhVHHFAk3AXJqfF+yFytezAZn5yQkzgBmgqoAjv10ClngMy5KI9iftj94P3P0C4Me/Df/uuX8VP339GL8/wGbEiDPGW78AX/+mt+INN39lDzSuNkP6oLPUacQBZm4PcgGNRo/BAhiFgahv4ZYJkWEmHkOyAMP+t6jnIYOE6Qh47APAMz4V9D1fhXd+5XfjCwfYjBhxxvjGN+Eb8TAwZUFZnINcDnphMBKIGj2GNUbJx1OARLE+7JWx2FIr+VgCkKpOAwfkHACD8328A/gDwF97I77gW38YnwbglwfYjBhxynjl8/EnX/MqPI8/YnSXQMStZ99UejygaXCDhYBr2QRavQU0p1GMtsolvpcNsHFQay+idqQZeXne49eApz4HePNn4ksH2IwYcYa4/1l4CZ4KTNdacIlK00r4zQvYkClty1QmIkwSLOyBJ9IAVUFHfn827MQBQgVSvWANjCiaUAZecz9eNdKoESPOEPfcjTsbEbhX8YHQV2QaJStHzhkmrAi0DpA1JW7DuNjRcchjLAJEyAMd+9rJpIYTcPUIdw6wGTHiDHH3U3AHdo62UUrQQgthU1VSfXbiYBcdRukfWMTgWqY2jIPIrzrV1CgvwCZBsRGlyWEz5BAbR2iOssibE24OsBkx4gxxc0Ju2IgnyGbxT85ptA1zqhHQlKQ5SGHYokE24GG0nVr6Zid1Ige0CI2Y7HUiy54ikZ7xAJsRI84WmtQY7YOz1kOk0MsRSEAzCu4d/ohpcJvOqNfhaThuI48PJPLrDXaSy3oG2IwYce7QI8Xg5LARATASCNiAQtFI3H4Yb9aJWxCQB55tqmXSpOZrJo2T5XuFK7wCVJcwBtiMuDXwYvpSyBlBICzCMFFbXlYVHGgGgkArqc/JcdnaCsh2/KA25DlaTXlcd1jb6yAeMcBmxJPDZtSskDyDuU1ppH5Djg4jq1NN6uSJuwYwiIMGP/N3CthM6alhIz5zT5DuJpoDbEaMOJ+0Cfrwy4oPiW5fl3lwe3jr15NJVbzngtGGopIQB2kYt+lSM0DKQWoVXRb2X8IAmxEjThsUFIcCDUWOF7Bp3mPLdKzek80cUgcQ2BN+ydFp2LAv+xg9trVFtzIvYYDNiBHnwW5sZcakU2Q1GfIPMjsmV7WTOGlgaGadorTF6wqGX12yuoxKoTrXQHl89awHB9iMGHFKoHEIA2hJbWyJu3ydEOguUgeCmPq2qc6aLkIOy+CgATFiYlgHGe8pCaZZcYDNiBHniDvmUDcCqvCeIavXQICSQzTUEGTPspPgjhNYoGlK2NSC0BYmQ52n5cuYPw2wGXELNZt6WJvUpxzs1Lrb2Sa4opvYPhtXiF0zmPGAgR02BdOxjPXHlcKvssUg/WONjcYAmxEjzo/VNPrEDECWQcBabXI73Y0tQEMdRuNoLBXoQgOcbUwGIi2Ubn8waSR4o6A8wGbEiO2ajWfdSWwOtv05YS1h0xgFCkDf4sE06fU2JShGs4YD3GkyNpPuzctrG/5ogM2IEecBOKTBQ05lWwOrOoYAk1L1Ste9lSzU6eQlNH08m5rxuPUdVl7EpiPZtbbYkJYNsBkx4oTExh1mtB42zv1909xTL30CVClcHnqyOkrUoBe9HmqN0CnwVvYYFTtuggNsRow4a5BOjcqBzFkDj4cpioBEy+Sc7mB2tjWw51W8VZOxq2CMHkOONuNV25Rt6RCIR4w4P4ypmQ5pewc2KRR7TXw9YAjAwiuDc9RBt8Ji1I+QT5xgtBn3ORwnQMV8BtiMGHE+iMPYsxhaufOHpebOQYXjyudRpK1Ewq2cYWULr30NVqcSD8aW1bC3jHyAzYgRp0qfpCZTLDgp0kS2lp3ZqVB5jXjyefsPFy7Ki/ZDuZPjWQAMtZ473gwV0wCbESPOFsJi03YFh7ucosFICTK51XI4mG/aClpr551ChHK+1xHCFZh6zYsDbEaMOBvW2GqNKn+vsZig67g56w64bK4qeexGOgWSLmlLTYg59k2uQGYaFVmklhhgM2LE+WVR3jwRR+KHZ7/JzloXK42c5ORyS4DUY5H/0mSfDAmzL5sOWX0GXhXLMfoaYDNixFmYDfcPvFeyVlsKpGMe6fI10zqDUd3BuU1pSjXMpnIkRikqczGzWW7FKUjJvEbBxtBrgM2IEWfPpTjSY3jl+23KcVITGNaAYVfK2GoYU7wahh0gJcAtX4fbFCSzojVBaIDNiBEny6Nsb403WsDoe8nI8vUJQEYeZCurEJkyN/ml7KjLl3pgalKyLeMPA2xGjDgjq2nsL7kDDNEh5G1n0q7J7fXGNP00Tq+MZULEftoEwZx4I4ioSzOYzYgR5wQ45UwlXf5t7CXQzgzxJpRpe2LI6/gVhuvsVbjY0WrQVqM8DYbMY+Xe7JN5/MsWA2xG3HrcyVp/UamGPOw9gLEbDzyfB4MyLAHNmdPySthyb7gSfoNhTjavh6jVayyTEddiWEyMGHFu7EY2s3GHtWy0d/CwhdH23jQD4rllMGRyL2J/M6bdC+XpMUR+/1C4SSYPZjNixLkBzaYGvi0P5RxeWWWyO8KbwpVlKb60pHGP/N1UTDGgkffAnhA+St8jRpxzeJYQJ5iBgtVjnDNa18GQo5UYoVnpOaIRr1lCB63ZsEuhOu/Xpoh8wvc+wGbEiJNjTT1jtGEHNrUspDAV6rAR9oRl49ZH1AFBT0/BOgOJ5qZUR3G/a5gH2IwYcQ5Iwx7Q9IhM9nWO6GQqtsOt+x5FlSGb0liWY3UiCkDR2kpwINBwkLqN0veIEecQGXU1LveyKyfNYMMSAL3DOzsrVySDkqmSEnrN6ILtq4lWxzTgZ0HEEXvt4GZN8+Rw5qhGjRhxtmAGh1sqSbMYpbsIdkHmhHtVIGVdIVmKt6ZX6DTsmKbbJr36VwpYljPYKf+taQx0rsXY9T1ixLkgDpo1t8o8ilvdJawMdTx9FYjxwhzUGhgyT0uNRLSeFQbqNFMnTbJMrn0fQ7MZMeJcwMYwELkyxWvxVw10QeVG6jH2VFdAyACnlj5YvGCOAYLtcwT2Ee4eKcOW3K7hS9hFPMBmxGmip9vO5sN73SIzfG+bOAXrCqzy2b0dTnCYS6P/5DZdsszEji00KZXjPEjOFbE2o+a9DM1mxIjzSKGYAZ7aPhkg9sySlR1y1rPUb/E0HApW4WIBGaJ2BityffBW9TaDmh5q2L4eFukbLd3MY7vCiBEnZzkcAY7aOOkQFnJ0GCUYY9Fgyr8xAEzz15OPYETtzqguSJDRmjy64zAsYicVdFImgqhQFW1pgM2IEWcDHKmJsHHM4+DkNyzCMoQCXmlhMbBAJQ90WqMfLaCw6VpuNCLxOOytYiEnzYMZ1swA7XApO4kH2Iy4FWkUYZo1G88GUzCFLLUQcbcnctgOtSlKfaisGQ2VNKqzQkGCgdVbMiPOtThuPLQl7ro3q6R4u8v7sRhgM+K8VBr9lywmrU1lhgmgbMyrvFHuAkgz0yhre1NamEu4MJM6VSCzWsYyKSX6FmHZ8xpmZwyC27GMprIFDMPzESNOAy42pmPcwPEeHPLkTFFDe83MKQlTAllLUcKcdsCMJkz68JLToOdWm7KvxXj2OIpceWyGWoC1+g51BjB5pFEjRpwtPv4wgJvAjceAzHuLKGZw0XB2O9DMUri6+AFIeyGYJ95LM8x7FkMM4mNgdxU4ujo7/5XDXQ592v98BRrDJJr+GGgh2jbe7V8AtIeyTKGcNcCunw0vr1duCO35HA+wGXFRIn3Jn33OWz77dU/7nNe+5OrLrwDgzMdgZuaUQbQ/1bNYQonmOzoTwKCU5r/XZhPeswsuQgXTbo8AnPeTR/oxACKaD2GlEVS+J0/55iffi9fixYR7nr8ca+b5/NP+PzQ/9Kxs7FFmX6umgiL7lIvBN67z8bUncP3Bh+nxB28iXQGu3mW2S2ZhyWkqVJ6PDHsisGNi7KZ4ZCpL0oDL+Vlmh1ENzWbERY43fv69X/pd//CV/+jlb3jmpyAxcF1ODRKAyXBzs5JN7q0tnN89NUDfkdyKIHk5tQTgMQAPAVd24qi6jlbQP8dwFmLv6c3VxLjrxnVc//Dv4eO/+iFc+xhw59OAoyPDGqTO4o0RcMdlDy3bqKlfgtpFpcTloGeGnLdzmWOAzW0S/+DrX/pd7/gnn/p1uJ6B9z0yH8IjBzBaPaI1lZH/C3KCTSAjHczXFFDS36t8NGdqosajuQWm3R24+pKX4NnPugcP/sIDeOzhY9z1jJnImIoWpeWwK6CB6M1xjNcr9lk9iDVwkPkZcvQYcua3RgfxiAsd//ybXvr9X/udr3k7Pvgo8PFj4GgnQMZydOilSLZPn6VpjG3DPcEtmCeDakHjSwUx8bwsgUa4oUsU8JZJTTeAhx8H7rob933eq/Hge34V1z52E3c9Ux/2Zt2vta7wcFl6Exvgkfjo4jLp0jxvwWy6fAnVAJsLHl/4Wc/4c1/7nZ/6dnzgUeDRCThK5qCjbdNVrbRpOey1pJLg7lXZymTCmzP3/2xdtHiC7tTjDhUQsw/XHgM+6S7c+9oX4sM/95u4/gRw9Q7z1oRvTLd/jhZSZUHGvnQIYig7l2vDYg4oS+D4N6pRIy5U/Nu//ynfi+MMPJrng5SdbjRCo2KSOKDN7td8inQp97fKqTIOxKKlbOrS2bye1DKz5rHLz6Tl5x59DPSc+/C0+z+Cj/3mozi6Z98vxxOQdstKXQkitnGv6C12Vso2F6qfc4TmVY4S4OeoRo24MPFpL7vrT73gs575x/D+a0DKYpLQ3r6ptZBzhd+TaDLytu0xE+NARdCiSW2UKRRgWspFTL7GQwl6UrG85+ScXAaOgTufex8e/q1HMU0AdjPgZFEgooV5WEZBNtOLtBbJcNKC9+u0aQV4MMBmxAWJr/my+/4Gnn4F+PAT81eSSCcwd7sx6lQicywy8NbJP1m7zZopddMcc5LkGky2YnSGciOHANA8mcfZCWFEAA8BeOImjp5xJ+54OuGJa4yn3E1IiZsqkR1tILv9QGIjlqcpFqTUW6DHJ7ukHhkcYDPiEx6vfPFTn4/jyd9RIgd/VIdbSVt2zkHfElm3y8qSjm6F5YVBiZluEo0lqovNYV9yt23z/SZ3scNRzMDxTeCpV7G7+6mYPnYNKTFynscZ5qyLjHZj2Q17K3GtRw7ry7NaQ9rCdmikUSMuUDz8GP2RHiAqIsL8a5N6TD3su1Yb2XQyHAaiSuX28ItUSIGGqY5J8VfmKTLtUqwr8nJw0kNK8/tN1WBdAQhaYCirgD2nwEIeycxzNZPl3K7Z9V62d/nk1wazGXFxQm5Hs9vSqq7h9c+fxCwla+agPDO9PpxSH2Zq/TXN6LW330SBjB3h9rrwbFpX+v+pAi4zI0/7pum0M701hsVIQmXd9pAEYKGj20Tb8uy3O6jGwmpibws/wGbExUGbJSUiBvjYVKOs+HsSns9aPXVZjEldvNu40nZExUud0PkkM9rSvcquZLMLm+9Ni0ILk80Va4hMOErc9BCqt26GL8kplHW34m39tVlNCHoLxGWLATYXPWz6IEvJoWi7UZdxm/Gc0yA7hEt5RymwaF3EZRrVaDJYchbMc1ywqy8lcxMDT9KRi8zultkfZ8rAEfsT5oqgJf13Zt9lb3MmCp/JwHQFgE8JYgNsRtxacjMB+VgItuaEbEYsTyjIzkkRjIHYCBSpFXIpyCNKNYoncZIFwFhXcNVNLPMdc0I5zwxneV5mYJqfIhGQeT+MKsvf6oBbm04sT0c2hQokpHCtLjuYa5z7BKiOcYURFyWs1Z1NWzaCjCsWs/C2tLzeKU0zAziGKlM1h1AYDTcl7KQBgyzIZZHSmXZdCTJImtExgXOuAJEyg48CVhJliwIDmVocbkhItPuKO6THjjUEOs8AmxGfwDQqmU/y1k/oBqG48d7MmpVUB4hJO1/VEQjpZG67k+1jmeVRjahSNBny/RiqiQ1EF/XCuPaZ3f4xi8xDJutyL59lJ85oF0WMZgVo1NORuVcMw/MRFy2J8rWOtZ8SB1i6UzX7aE1KRpGGA2Ps4ggiHCisnHUNWc5qqdwmaXRwzYOdChZxLeqUynoi0x4UAU3kM8wmewsYjQWx+tZEWta2J11OvWaAzW2CN6fXZJKfM7gO4yJdUpPhcLa9wZwkFs7eon4s7evIVsBYp0ySsRTwacpJVsGdfUfL37Imgq4lJ/nsRf05YbVRutF1rEMfGTzOpnMZl2911ACb2zvHMgfYEwqskmm9Ykw6o5pR0DacyIVMxQiYKOiJQVsCqq9jB9X13JSMsp6KrEObS5OKaigUBIvYWOXwBuzubeAMUiXbtMfWk9jzI5PfMPpsRtxWrKcOZ0pm4ownl9NATm5RJhdlKuX5yVTMytjPY8m8wTqVe6PRkkKYtZB2dSXg6DtZTFkKtZeXNOp4Aq6kDZ1G5Gg5HuuxWG4BhZzHyuJyW0Im3xKNatSI2wJnsnN7NSmUNGtp1kXKGSgxoe3115dRhCxWGngdvjKnsBWwOu0t+oWahdvZjDSIxr4GBJY8Kee87HnyFmpTewl4bagyaoqG0MrluBcHhNEU+lTP4yUTiQfYXHhAEQCRTfrAHDf1sddDQ0sawl5J3WMygmWoU5OM7iI7kSfncUzZu9mPyxpk6tezL6iK8W0iUgDA7DMQRNgYrNuVj8OWlYhLFu0LZ8NqnILiSKNGXKA0qZ6iHCT/QWqlOHtaAEbe4mUXMTv2ELZXppZosiOIpBZkyr/nwLjX9vqohd7GlKbnEDi/331D33LJkpcNcqzX8Np0N7XYaAkdoWUxbAfXL2kMsLnQWCMHLhFMYUenRfbnZF0BUjtQ7NeMPYQqnefg9i/BULbh5pYSSIFXbYaQz826B0iNcRvaMC+kkkPlXh+kL9xATYqrdImcy+NchgYGvVEybuBxgM2IC8hspDaSJ5FmzKtb5MFTKQ5iTxmvVGKBxprutgmCo8skAZCOH3JhPmUwidgAonT3Y4fEkHnevaUGpYQ87WeiiPajC5DrV4KqFHP78I1eLbVp6B5GggMipjDYzFuN7QojLmaQqOPCKUcbMFA6TjYdvhAasmEataW1U45BUMIuVp5KyBWT2/XuLvfwJs3cyFawHAElMmiXiFFfztxJvMEyGWTWA3vylUmB3P3ecOatvO+VWD2YzYgLx2zsoZO+Lqp7LOv/J6/xw96uLZiQY0+XBCDJ7y0jBJM5YbYfBjoXUSbsQKPeNkbAHCzf4/2QKmcQLRqN3RqjbH9g9ox7pMMpiTtFsCZVsoKyKtbJ9qZLurhugM1F12ykuOD2q3iL4uwn2x7SecCTzU6SiPsr5mMd/LJuOCHBlLxGPWVv4SUStFjlNRQDy+MItleLWKmACmvzUpHVkbRAhsa7bBc/OK/PSkl1iQRar2PXpWNoNiMuZhYlGAhJxz72NRnbDw+reuY27bJMQT2OZxMK3W2s+mFyy7psdzLBlM0Bt3U3agR0Rh2IErK0xbHWm6YfsWE0vGR+shGvqWdn/9ICQembHcuKATYjLmoWJa0UmqoNkWpHbQ4iGV2HS9evcM0jW8GqlneOMGtPcDLVLrSVLp42vEmTQrlMJsd6EmmJKGP2s2E/i7RbFaRm45miy0F018oHWu5iLwseMcDmwqNNPUXioNcySdTAB1N+Lrf8nS4tk2EPakdUlKrBMJzg9BVB2B12dLr0GtNzj8n4HIIzLzr3bq5GOcORkSmhnTOFMUKULqRSb2/GFDzNZxvSDrAZcQHSKCbTswIzQS0AJ6Xltp0dm4nG+1LejqdWO/G0IPJ0kySqZoymsSQcbejMTTUl915jHyMXpz4BAon0XKndAU7k45C07rFbbVR2ywFWjhhgc/sRm5KiTM4iamm7kETd1THNanSaKGUxZuWVMZnd4Oyt882mSc/rk/FADG166Jr0ejSpIAnrNbmO5BRipvMM3Z3dHKRjIwbY3P6AY0onjeg7s5LS8KdYgGRAApjK5slmvsmUnckZqlST4RPcNQXNCY4mwK0mA7QGX9Gag1JR2+1zp8D+Qbb92Oo/e/Y4vYwv0q9HDLA5kFzKLECys0XZuQXblKXUe02zX8M0PEVBjieLChMms3bFe17oeSfrOl7TpZkVJdKmMAo0hcNf3Y+7q4AsZzuJ9WyU+rrp/M2spSv3Mnp9NSMG2Bwuu0km3YBp20/CnsFhDkrgtb7AcBbdeUZa9nEkWDn4IE9+DTEUWgEwOWKu2KEL2wgo7DPyBPC0h8RsrIrRZo8EuKMKoVNnr0g2YoDNAaHMkvqUgyttJlT9lpZ8wdsiibQopnK4sxmSlMIyaQGk9tCQfyhBbc7SHNLJaUC07zm1paDme7IwzaL6VGkmSIC5HI585da4vJ1/t+LXunU78gCbEU9aCgXRg690mZ6/penSrRPgaEFGVbuyw1icpXCq95+drZxO13Ij/EYziDPzyYJ1JQ2GzBnEvN+1S8sCpmR1mtRa5ni6jrem5ZYwGT7FkowBNiOePGaT9yt3y5Gq2ka57Vr10gKNNTeXk9Uz06igYdYDQDjzkcdi0OYl6psz/EqVPYHy3/LibQyay/mTSKNo76ZZAW7/dfYwms1+PLSEkJ4MPYb9lG6AzYgLhDUstgfQMtijNhnY/hbSt+06VW20EDm/VDvU5IpfoaaSp2xw25SimIzj1tec9vk9kF0DsxN60n7QkplBStTO1byGzMZJaVYVMZcnRY9hp6g2NJsRFzOLstsDsm9WriYRoQ87icPO0J4yDfhwABDst724prs9c91oQ5wY9CyMK2cw5nSJkpCJ9s/BmMGHUmPDmURTn332ZhzhVqVLzru25fgBNiMuErMhX2wwqQslI8qyr73A88aZ2hPieRPL7Q2ImEzUjAdfp+GbMyrsADqqZW3mCVSYTNpVxsXBc2ertwRSFt3idIkz3D7EZiX4WFI34kJqNvITzMbDsnHay8b2fwYTCTBuGVvaQ6ydJhtZW1DI0YjGq8a8RmbRK7PXZRjarY85+wZhBkmIRJ+zU5S7lemS8e9qtmHK3h6+xCnVAJuLnUehtcIU+k1jhA7TWWx2YitDq3IKjMBMATdgx3hLdbQk/+TZkQb5jzQvqstlaDOpVUrsefSoB1+oSs77AcwdNcWr2hVwy5iMh/3R+t1b9FoG2Iw4O7OxTRnS57eas0i+Xv6NhHcMoBr7irhMshLkiL+R8Zad9kbQQUydvVV5qoNIPPfVzAtZwKL6Vr8GU3YX/p3sDZHfKi8ZL1Uzkx5s/26v5CUFnAE2FxtruJaNVeet+SRTp87bVJ3gMBl5YrzTSfCNq3oAOf97aUJMuwV0cgZjAvF+DIHE2kleHcCcSZEARuUNbFnEeWa0HjMJzBEVyFCr3wzNZsTFy6JUyuAZV7EWhsnqO8563qZdFrHwWytekzY3h/MYSoyWDYJp/vI0AwtAgqFxYT8pmZyHZvBpAWiZsNg39qkKPJ8j1niispfRrWSdVtMZadSIC8pwnCVvrFv2l4qU9AVG23FMdtw5Bx9+ky7VdMxbpERoJ7dlSravVJHSm8Tjl0V6vOxg2T+8r9GQgptJfT07XjWnvuTcrt2Vgm8lOtY40FvL5VzeMa4w4mKBjB0hsDNKisnkgBUZVuN2/a6BBmmdRjlHTfO/JbhbIEz5m9WmTQIxgWslLGlmwHpWi5Aq2+F8DJqO97qNzGjSOaRLDmuR8pZ8ecronNpiYfmZnDUojVUuIy6UaKO7e3M7p+QtloNjvksUbNT0LDhLpBZwFGmRYJJaxlJHIPZ6E5eOYLVBrrzEphvFZGkzCGGafWwmhSz1VVCbUW5OlSCarUmvgrEgY/tnyEmfys/LyyRfFw2wGXHBRBuzSVKCjLFdkE5R8hSpcrYtV+d2W4I9harknoWGs5t9jcuA5ASS5fZZFGY1usDaB8I+vl2yXXpxeJ4R40mxpHK6Jcwqr/Y1FgMzceGVr8uvgZy0iMW/WSDi1vVPbTMeYDPiQjEb6Rts55oabOJ4ImBL1y+ZuSrPHa++HtmMl2dNRjCcuoc76xPKBJrTnkbMhpObAEC+6azu1Wmd9AxOtILfubNml1vAacAEga2yWdzJxkNMOXrsH3us3x1xgUSb4kon/YXJa3SzIwoUrD/JjglWCvSY8jjH5sDOwJSP3bSL6ymdTHpF/kl291YxKB/Plao8gxvrDREVj3l7amKH4oXERI77qh2qV8bpwSqvBt+sxLXIUGO7wogLlEYRlpEDgjNCTOzsXnJayRzBlqzq4A1cTvoLBWTKrTvtNRnmrBkXJYALExPASPP3zieTQGCyLoTHQD5ezqLyQjbpmOmy444nV9FkVPFIdgXAtRt2QaNp1DbA5TIqC0iXTLQZYHOB44nHHnsCeAyYrndkzZYMQdWIpVi7A+iIdLnGERsQzWDlpaRSHqNoKfXlJMSDSDQDDJap7fpWymNPszEwzH4qISwrqsC6TubshrI9MjZDZNMIyEBoci47DzxnD5MmLZdIDILSmI26nLG7srvy7Gfd+Xwc58L7efVAn4ianCoygHTvs+57LvI9wB032KQarO+YViBA2+EGBvITwPEjjDwRdncB6Qr5OQa3QsM8JEmQGxzyUsYuGg4iIWO5pAUJuTCT6cZel6F5kV6yqGDGKliLw+Vy8GxengWANEpV9NuV368lJp1NMUKvMCLnobnd6oBLuvf7soJNeutX/Im3fekbX/4ln/Hq57zuefc9ZQ82jAw3/1hlFXTOoMMAp3R0dITHCLhPtpG5zbFsThW5JfL8BHDzY4wnPgRc+4098Bx9EoXGLllsZACBqFSXGMQ35/Of6l2brdjhltrF5cg3hN1pWnQZ5Z1ZTr6TEs6iOTPJfQ3YmV15MFfPNuIZoqTAp2JDsBSUoDUgr4u5Me8aTn2XI1790md++g+968vf9ZrPfNkrgGPg+jXg8akM2+wu1It9PAM3502XfeCi5qveTpLd04Erzybc/Srgrpcx/vBngOsfBY6epsXZ6itTUp1FMyl6C5dkaL6ds9yUIE+baEok2u3L4DzNZWwxeiF1mUJRQE4+Q1qvyTcXWJKbZcgQPwjLZW8/HhlgkozEabKORtOsxlN56nDqu1xg8+f/9Ev/0rv/01vfhTuuAr/7eyfs/PrEacTnRrn5JpAf3wPC1RcQnvcXgD/4CcZjv0O48vR52V0WuJMqbaI6JCn6c8oAArMYHxAKSu103jMWnm5AT58nDTB8UwCJFUzQjmqYeTGlz4q0yLqa2omNxgII5uU7vwN3QSm1YjTM3kC+xLhzacDmJZ/8tFe9+7+87V0gAO//A+AoXVKlbmYENx/aM5pn/RnC772bceNjxLunzjacy+nYH9zFb6Z8vf6XWaRRnsXn3ABYemVot+wGL4/dnGDRDEPS+2YSFCLPTYMtmbO6jDtDSW1Syo6oXLsO4IjM4nsp2jjMcEFwaDYHHD/y/W/+UdAdwPt/fw80lzbyIlwcfxy48gzg3s8Dfv8/MjHTHgwYnGWPTgITq/b9Jd/I+9mmvVA0A9SuisrFsHx/AnfC40bkKNiJJdueT8RifL40Ny7Uowxslu7clGJdRDmcGgXOWy5avybYEJvdfrTidSzTrltifzHA5uLEl73plX/l9V/8ulfjQx++ZEBjSsswp4sIOH4EuPNFhLtekvHIA8RXni4mBvVj8XzCqP55Tl/qSUoLu8nHc0k8LSyHs9NoWLQXL6WdC4QF+GoH9bEonfNCihi6HUcUq2o5m9pZpqZ25q0sd6pQ7sIICtgUdxS3ATaHE2//y6/9auDm3jcy0SUBGQkwjHACvLCMp9xP/MgDDM7kg9Xyd2Exvtdrql/wtKRctduXBWuRSmnUPid2R0n3qZKS5Wl+/qXfRlb/5VA77DQ2dKeAWhBhRWVboqZ2REE+nq12wV45s25mgM0Bxu5od/XTX/Pc1+PGtUsCNEBdPNewBCkyiOa7fAO44x7Q0d17S046QtPPT2g9hCVjyUX8Te3zhhajMGto5qY+lo2DcxUsTyBkMBGoFA1L1Yw6q1NyK+Yqw0H7UiMMlHjd0V3C9VgFM9l40w+wOZy4/1lXX/jMZxzdicenA3+n3B5gwKnHJsdHYQLSVWB3J3Dz4zPYQIsVxhNzf0efZr1ElL2VqJEFi/LWBsvxabH5Uwx5ci2Dl5bC2a6izkMJUy4xH8YrKZC16FQCrmPvSaTTIffdSPZiR9VgLssQiA8vnnoH30tHmZAPidUYa7heXRZmWlDd6ksuMEE74dHSJcjOc/M0351vLie1NuTllkElEroLdConp9glk6mrf/e9/vvXJHp96vI9UhMaFiMhUqZEGjMbr3dZmg6n532y00uZLPaKPqAx9X1QCUXGdHhNVQHI9OQbq3YS6/1NIkXipo1W7BbnAjJyRIFbI/ba9cum5isNv+Rq4T3QFE8cKqeWEpj3zd37xmhhIwr2x6wlqZKXgdsUiXuXkkLZaiFljn2Q7bdh01RdjQcHszm4yIfBZORJyY5qKfURkQMApgnEelJmc2ufWgbFpbrkDGHaUyY9akgACx3px+dsmvqkiLHYUhQxWvsOz7qUaNtlonmMAo07qZtROsSNPHLIulpNzmxTlZ3EJS3Ftcpm4MxIDbAZcTHx0uH1TVca9HI41UhiSt+2lFJPIy38hiUDkaeLFmbkWpHalZS0+BRX86tUdRm1wqUCQ/GxKa84Qe2t4gxOtEyOi7dkzUwbUtiB8tWdTtymUc2UNzeX003dLpsN8WUAm9v4HhLNhBpjFeu0F+YH9jSY56LSvDIviuOsVwhI1mKBRq6WIbNQTlnjpbqgjovdBKW9kfn8uKzyjPKcxwJ4ZWNfOwBvW3assZV62cGHRBGQqPLkLbowmxTkwrpNqdsAmxFPbprkmViZT7g6AFIkcISJiHV42xXyBGBuyCPhsqdOSeEPIktt1vOKCUYxrbgHmDxj1WLIy9VaFFg2YMI4FDqDRuDWr4YCJuN5BxtAUb060KmUe6mzMUF3ZqBcrBpp1IhPLIPhPnevdVhrC+o1bUj2YlbfNtYN8xHPN/fibzoSpuTZDKwmNGX2quMYf+T55/YvOS+7uynpA1icCGfGwlXbEUOdBZhkecezApVlbm4zy4bhbPzt1F172QEqxJPfyM3eveFnM+ITyWQylG9wNI4MKHComw7s43qTg0VjYfIHfCR7kOkPxL8r+4j5B9NuZkM8//9yivcgw7XxjkSpmpCFaLqAafUcVjYThvF5sCpMxlPWb1sWxmDkLDJpjp2BIvEYFRPl5Qia9ySouet6McBmxJMm+FoNBmISmrVLngQL6n2KJWCY2yhD6yous0rl2FKzZgCG5Sgmw0rMLaeXxOuhUk9i6/RtF+1NWh8K94872sn8n0R+agRy0iJn1skr4tW9emYBBZvslK3U1knphgfxiFvHZNSBpFagrdpGFpYO7AutVjyQy9zsdKGbWkmAmkTKlPu3YmUynkVtVwxJzoBEvNd2aBY3WL1PoflUwEJnmV6c4yjLiGKQBSBxsJ4q+A2pt5uF91cyGnkwrsArWXCTQg2BeMStYTK2iys7nF4eaOiUqCEjdh+TzdCorekqhpDhblkgo0BzSddI9800PTf70vZ+jCCpTSX7NkEzIiF3idsmFs4nw3E4GoxkIc6Zb+4D0E3WStaCyTY9nQgBk4lwe2g2I85Xi4mm+WBEV4sUZKYFA09eDj7BJB5fKZf2NSXDZuSaXfN9BGPlKQy2hJixt/5kSOGaieCXceS+8hOCDFoph2xznakMUWfQnFhYLlvthVtc4YideNnnJfawGWBzS0DG02IMx1ZCb0Kz+awettwyIFuytiKE7ZGv32d5u5m4bjwRpBcmBGux6Y8DMhAbMOcOYSKaqzFZjzwQBSLHKS690GjISWuos8tJ7nwiD2CMlegmUBmAc2nBhm8tyFg/3M7tU+1fJS0OEDufZgkKRtytPwPfSKUpicuNmF4uIU+QUFZZVpho6fYVPTf7PsDJlHFm32E1hmBKQ+fhsSAeIvc8fqnFa+VIinbvN4kd33xSncUhq3XJxfJrHB3EI7aGsa1g0s5NNlVS/y6MTaRYXIckIVRJDmwjyHFvkuwooTXS6t1diWq1i42XcJn0rkyG5rcwl7alLFStP2W6lGCb8c71dsLmj1Fznee45/VEou0AaAYzo8bL4Do7RHKAzWA2Kw8nm8s8AFC3UTYpERlQEGIpedmO6W8BWvfs4kkDx1pCGrAUQITZOLkHIwKYOU9Mu1I+T1QX1PHSC0Tzey8Mh2vpmZa0S9IDMoYuJ/3tbUg9ZPk7e9uFYTQZip9LNU17r6VnpOWMiblC8RhXGGATp0qiilMLNqab1lLmZtcrm9K10HjUAKU1W7EdwxD9NsHttfGfJPg7vkU+UZtJZKts8Y9Js8UDCwG47GIyZRxZL25O3S36JXsbEkzvIuAU/+yyOrSTF94lDC0p5D9n0/ANhyENsLnsYENwS8Qy+Qd0utOUlm2viPmzVSXtyLBaNWs20Tem4WzEZLQdarXyI4Ra61dTxN98EywnjKqXMIsNCoLN5GyE33R+ALN1pIDbtxtab9oeya3rVRgB+2x/rQgArdHxB9hc1pB3/GyaK8gcYKf0rEhQ7nNn2/YKmF55mFsuOyADh8VQkH/Yn7dcHwzOjDwR7472vTKz9SZXhoNWQMbkAAM/6Qa7sgemWRpH7TYFe99wL51zCWUbk81Wm24G6t/6hnnWpWY2xm1OJu/2dmRTKXYWTNuJPfaEBgs0aEsfHKmR0huYzMgyrbwus0SBmUqJe7/Tu+xkmitNczWqNujJdQaQ1yA/yQjTisPJE4WhOwKAgBx6KY65xC5xhbM/qgc+NJjNJQ3LZJxmO/X1DLXsvscY5EY09aGWzXHCnJblYGZ2RGczclCFhiyAL0j/POytLnnSOW8ilo8n/GnqoGTzevnJBZlSLHN2o5D1I4Zp5yFs6+YNUqtG3w+ACezM1QJjI+blS5WAcGJOzSFZhlKGbyYn9SLNkjzvAzh6hjq09nWhM8WNlsurdC1SNLlze+c9nEkbCMacLon1LfXEn3exb8P+9QIyXrsOA3nmX83KW8/egYOPBfnZativSS1xlI3TzGdTEQfY3FYAQ4HgK/QYEn9mY+WmDj53DrmT0KtE3+nmZaGpUArSNmiNhyRITZpxuXXZyFiLQp2FlXlLdoRfvkW/qw5rYOn/uVxP6dFFxNtmkHjb12RvDjmX1zYCRrbQjQ/xAJsDTZOkqVPz4TJG4bUH3h5EjyObpN0tR5iPW9WCSvWogJ0opfdaYVXZOzsHNXeE4ajuasVx06PTmJzfYh2mOe0Ols8pVJl8WL48m5/30iHqy1gekyHyiafxIHPd+rbi6QCb2x5rDJtRn4Ik2ufTvjTcuNzZxjzWfgYWXFSnsKUlzkpGaV7VmGWRML2S9dyMbktryLZ6uQl0OcfWkc9DGlur1nhMJkqvnDTqOJt3uwY0aC+bZSBuZhe0QDWuIdQ15xsdxIeXRZFzZ2HnU1k6fLOjtcCkE4zGaLwe0h0a3wLpiN181rzFQtBgxGz2ZQeP4zIP2pZH8GRW7OJ8m/Fo492dvRSSQo1HqkdEYsuy06IUAh0HPvBwPGwiPSf42Lm4uv9V5QE2h5hG2fSEjVekbTVtGvBsClJSIm53sKqtkE5vjC1xN5vspbewTYuSBkZvzio6Eas3VHZ6iJ7sX5NpWKGAIHlrUngBGtdzhnzgYY4JmLcfioPtDfKHbeGRnYx8lL4PkNd0b/KeFqPmn2BUQPK9CxR7mhAO0jS7t4HGa1KlahxoMltE360gk+dBy9md/BOx8V4+L1HfhKpumSKFkYkcVYo6mXXAOChw2yJjF+RmZhQsIc2bFaoBNrc/symsAEs6wjaV4bbvnRzBVt7iZO97mTNqFrfloKpkACSsSpHzGi2Y0Yb3bwULIQh72taTCTL7MdDFKFAxDxbvlFaPbCVHQS+knZ8KUyP4+o/ntsrU7vqTe6z6QtkAmwMiNqRBxnXsZ2Po5ICCXcJWNxZYi02b3jiipN2f7Y0yREC4miaho4oG2zU/QQAj3yJJRlOzW2mNLvaQE6msdF8RL86BzuVhp7EvOR8HZ16V2bcWtW1OVsPZQBAHszk4VlNTk+ynSrBzSuS0e7K2a2uAy3BmEuICOztYIXZeg9BWljL8YU46RZpkUi8XhG4xo6lYx/olkU/gWpBZOoMJYjw7s1i5wlpjJz9zXZ2Bcu4VzafBWgqRXikz4tKmUYF3DDlqoV0qJEeC5RaARkU0XcZKLRQpmVuSjqz6t4JMBDTsnGqPNdGTADJG6AgWt1mQUXVowryxgdtJEuytLirgROzCK793UqiAuLQsZg3rT353GGBz+xKcbGw1TS9Mo8HIj4Iz+0Qei0FrNl5v1VNwyiwYeFaetIGFRGMYGdu62m4R4GT2LXkYSwcwm9SqfhuDeEmd9iKrAKPUZrj1KbndtiD381EwcOlVsZh8DedUIKOfIA2wOTjNJriRNCUFO4qb+4yhRw54y4Ig7rCYk9wIHevPzSlXT8s5C7izv5TNCO3MvudCJGlry43WFZEJ/qgCxaVwXrm05MhNZ0qVxvrdQ9ZsxN6mWp/kYNv7BD3MaFbOesREGpyoKejAFAWE1tnptHqM93xRnmJfT54Z106sGTjjIeo1kBiPB3ZObBWBqxd8ZBzvdTQUR3Hxq3OaqClybZX3CW/n1GlBxukJGk59B0tuCM12g2YoOsephtR4OGIV3H8MD/wAbOvZX0uVeownO6lY1iMI1qf4tEwGHayrOJRNJloSJm3Do142o0chm0JhI6klP0XivO0981lApgc4Q7M5THLT3hnR2mOqQ0yOAx5r43DVgMd9DYXX8i7awGTsXqme+zbrk6ZWu8jUJZ0vyAQHjY3ctVwJ1owmcwjTfo0Z7nQHRdMcHdzyhvMzn/EzRzHgEA3N5gCRxjMx8Ww74fu8kDEg32QYxYEWE33K1z7VOWA5K87bTcnbGuGegdUwrxI5FpYQFGpN8vuW6+5rKbQpW2HugEyHfJ1pUqPX/uQ3F46mvgPNpeBbMphPZDOVzB3w6KVKjg9B9Cnk6FMb9cXIP8s5KWe6nIwIIRtR2NvCdgqA6QFNeUq3uYVbr+Wo3z96nn2DTUNe5csNS9b2lpTP6SNGffzvmrEPsLndyU2ui+9bnUXe2b11K9Zbt9O5yzng0BzrDS5TyR0gi26jpFMlT7y2zysX3GEFcJRCSq0mxiz6EFl9GcI5D/M6mApGpK/n8jOBpmUvx1xap87bY9pAQE/DYLZuZYDYPejZJQ2wOaA0iiKzcEsULKNgY7nAgTixIgZ01yZ6aVKCtgiNXJtg9Jjc/wR7o8xldS6cXU+K2AX2qaICxeI6kAAVKItOkS5R+1hdoPEqbivGfo3bK86h0zfSYTr3ExIWSOK9DoH4wNInVrewaPaJTJcwbPphS8aWsTiL5FZBJtJ0GK2NRHNcsIxgQD8/sbMixpwW2clM8+PYdoCeOir69pkdDQasUif20iW32WVJB6kAWBLlbo6JYmExPRWLz6N87eFeYKDOnTYtojEbdXhijbNkuUmbIttQCzKrLOY0IBPoPqEXjamAKa3D2SHFsmua43SPO7qMI7nUdKmTWfDaYFIz0Sit16HRQyJFShrwRP8Nz+CWzO4/PktlqVNVai41b8iCMZjNweLN0q/OG6pKjTAAdynd2mkMQYZXhABPbcxLqqR0GmhPgyY9TKLEPzmeCsAyFMrOGBU14MO51WQw75OiOi45dwd7TuAs2EpuPTf1inPHnKyKIMvNgkSKSKTJ25m7fWkFcNAxNOyTwwE2ByfaEMxdNGIxjjbCvWHIUOAIvuZ3drV/t9Pf6Nj3274hMhTjOOD62X0fTEa6Ep3X0kSc6j/RfvkLi14ZyfwSKcs6IgIrIUUPWxLRMgOVYXwehKqa9ws81eAriR4bFuNw5yj/ecSV1+5V29SfATYHJRQ3qZKXumwxp+ptOKNTMBivdD2J1036zwpMHLP1IviyFJo9kBHsB4JFmFazymSgU8/9S+FFFWOzARStVsSe4CzSKM7B/Bo51ztz602PYIHoSUHEI7EdE67Vir2nMeFyxSUpfU8GaAKVuOtHEDEgT0/paTHecycDUFLMpjhV40i0lhs17WMnAToOgMp9VCw7fKE8ZQp94ECN1R35a7oW1ilILa/HlaimL/AkWgytfA+tMBk4NQNsIMEDbA6Q1ZBlHeWAstP4FnHh3oQhr9wqvZECoQn1djs1283kusUp2G7ppXWekUsGcKyen3NenPPMtdhnLbR0/AYd0Uvhb0OTXp6vS5qBMGeRYtH+33NuD6/wgCbB7Ih4G7HpaTG8AjCnTYy0pdFIow4OaEABz5b/dhIG4x1kzwyrV10SRrnsfFKrzmQ2MCjdSQrcCf2u4xyAHDfEjHblspSDrJbZVjAKV6yw4kC1YkSJdAmcbfpn/Z+xmNPIa8LlpIrSuvhzjjb4RvcA71d+Hksm1gFrjCscVpQPbg5Kvlv9Y6zmwYH+EukyZjKcVnCtAIrUPuomTE/cnUTK5IFMajUpkgZitnIkN0ruHfC0RkGdLNHZd0JLlWp1nKsAVhbVQxY3hvnvvJgPq0xMPX3PeQMdPWYLyKzRJ1phRaPP5hDJTTZbKNe2pUUT1x7ARGKx040Mkyp5DSoqZTIDlcrtr+vFAO3qLQRnz8C9ANgMDmybH7PdJmqnrllvZAPc7uBNI9Tc62NiBTTk7PGSDGxzG9SaHsMrOo5HItlZBYaTyVQDbG5faoOTecd4ekxg2++yIHnA5fbMJJRM7+l5/h6b5rADMuR8ypMBKJpZnbzVe48py8dkOoO9g+o4TFX7HFny5oVqrJFIZl8QTsLPk5d+Ht2LyPUtlzSwl8F6C+5cgNlaM/Ay055lEV0+/6wjXPpYE32prxxGvTF2C5pXppacvYBQBalIdObgtRfdRvTlkHnNlRlF2lI74xR2tRG1WhMjaARcsbHIRqthuz+FFYMit0ObFn1JFt56a3O5P05wkrSJ+YTAtP/e4Wdz+ICy4gnc3P3Z6CFe1SijtZZw0rVmjzWZRkNnO72qHHXyAM6m7lu9NdFsjvDMthhOVy/F7CDKRbbqHe5mUejRL8UGSM9cOWsvmUjJxaEmc9pJ7y0gA6drwf+ojQ7iw8Wb3sS194ki7xPfsp9e2bqZs5SHXmxdqOJ16oBjCpROu0mB0I42BA5S7oZJZ/i0di5LobZkN9ReSnuZEmmGYgmZXWHQ279t7DNIvDxmp8laYmDP7aOXep1QQOboMXQv4zTA5tKwm16HL6FtuLPpU8dLmJy7P0sTk8kBEu92Hr0HmS7JU5bR77cJuqHdt+EMTc6Hm9WMJ8f6BIlUqYBNEj+cSAMQd4W3eW+Ul4qSbb3RLIbWNZTu34G2uXyjWhhmvWNc4TKATs8ovNcQN+sp9rZFAiiYWo8clmwj8iEW1bLGVCpwASQx6V2e262OWWbk/XvuHPYISHlbuiTGCtRLEBrNXmIqE93CSgK2hG4n1VllgMjsz0adIWHhXo3gtOkYDbA5xKA+E4l6bazF5uR8Yhz10d1C702XE1wvGpXGGHCUFaWQxQCxsbpZP4wTnEQBMNyzEW005/k1JDhd2gtKEFjREp6HMhGKwctj8Qy6pWOZt4Dglvfq7QcXhbFTPQet8qcBNofBZnqdXT0HPGedLovbtF0d0Og4HDCKHtBJCwyh1dQVwIHvsAIysTKyVqpYV6rMZHf/8PG6ObvcblmzUJtmcd0JRSBdyualodAacKkNFyysSEVPYqb9/9hLqTzMCiQ87lg/89aPXG92d/8rGGBz+JrNytoVmVI03i5Y0hXizv4pCwa0QZNB+xqavpq1XqBoslCAlN2jJX1nvNEt6XPTrCmXmouzU8X67MzaDZfZq05PCznl9b1GzWqFLhXriplApR6QrJSjeW3bjtfihJVsXEiAREoLH9WowwUaCm4zMHd8+aPeLS3rA9WMQUhxolfNMqmUexByACj271LITsF725ADNBV+9l92tPDa6iyCInDmOtxJSpexl0hvmmPTwWzHLO0q8dzbZux1a/dHCvrjbydJm1qf+AE2BynbNB9JmLTC3v3kvijpI2PMS0j0xzSHvHcLJPjWFhx4FXgjEjn45Is1LgoUOxqN6888A52dxk7zc+bS4QuEQ6tCTCeivnDRPERnjor1DcF9dloBgLwCMj35i105a5Xx8KVUay5dGkWtfuPuXzUrdy3jKEyGrZ5j2Uf0iTIzTWpvbHY+tdaTRp60HdQwjvsa8oapQja6sdPRK/+eJRCZ3bf1e7IAbd0Ew+A9RgvwWWadltcU9kcyuZfXuqOGpJY3gMPKXFPImnrfw6fQfgbY3MbplB3I7H2oZIcYb+itWbsNy/1TZCb1mDu6kjdsaSbJJYtRu0p6xunB1xS4th7EmgUZT2d5ikVK2nT1mqlxsj7EOWI79u2X6hX580bkEMYt7GJNArOXOwIWA0Y1zTsGkEcadYCUZtr/dnmCMp5i9lOJpjojbToJ/Uk9KwxAiLJiywP3hAUgHnlIWuy1Aiwie/+1clNHO8nSLjRoGXDBQEyRC4ApDGZZZicUU2+zg1e8M02ATZ3Pzj+dxCb0JLKf1zhu7UIF+cuejDfA5uDUYf2bb9wJWH8qWKYgnijLWN9QNonHnZbmP46GKtd8Ki27sn6UeQPnNybhcotmtQUthEq8vkTta1eT2NKehcxVn3tfbD+SSmmCDuIGJ7kdieB2/KvIaWrg/gTayqpQ3HFr9eawAoeTUfo+WLxpbnfkMBi7AtczzfI+I0mnWGw1Dw6mrrNhLVbIZiP6iv3cXY0omNWSuQZPZmEc/NEBchwEJ7FPVm1b821Cic3AEjvPtyYEd/xw9LvYi9dMQbpDG56rRwAjnUauUy9Opqw3HJ+ZYQ2wuZ1wx9uDPYm0ZIe4Ca93SxPL38gCVF7JCbxbudFzZE8Leu2ra1+Xk+Ck7Tjr2ACM+CteVxV6RY7gpE4NnRAdxeyVkFVKYq7LmukWKY6G1Owa3wAmkS0RVu4xXkz6JdMaOA2wOSDJRmonkHpNNtpJEtqM3UpACMvQVTtJwhUwumNbIJKNLbJzrhhe9VKvKFWy+QcZoLU2palW2MgCszzJxSFP9etQkPIsiwE58/aD1U55njRRhgvHpzUs542Aw6219aod6eggPsQUSt5ly6dicsBjTUBNiw5TStIE4b6XjZ5iE/0UfIIl6zIpDOeNt+TeyINt6JN61IIQLDtz5YqEPINMsnXb4Navnpr7m2+8y3QGv8zoltDFtrVp8ABk6qcmsoX21rZvo6EDbG5vwJnMwY0YhWUGUlOZl7/RvMmAyzrbHOgjvX1R0lLClC2ox2J6lSXHgq5ZNQzTkGI0LTvRPYPzUgknk2WadKqKvuy/7Z7VwzmY8taloBt32/KWdIZ8DA/7gHo6z9BsDlykYQk0FkRgAMc55FKYBZnHQvxz7qZLtCCjUpy8slaxAzCVCckTJ0Xrvm8lyQyuTAlaq8/IJc9uxfReblSFz+cEMgIj0fMU7gm1vAIOWbiWrj3WCnCN2ahD123CRNwDBdMhXA/ShG5jRcNe5OuQ5uNJz1XxFoCJPGvgWDjIcojQlJqHYZ1GJWO9KXUYKd6KwXLO7Hqhd61ET2vT0DvD0V7AiGmsyV9kpDlJGAdrGWDTinBSS7GfJpNO2bt/1XkkEzmaAWcygCKHL5O+pdYuXxjf4a16jBVjs99UlnO74ZOoZWje1gZPvGANbFy8Z4pHDXhxvXBeetPbsnWly0nkOCuR0OaVTv2UyQGZU5fNNzzVAJuDSKM2sB1722I5RmCZ0eTcJtkAmGQWcLpfe2a4vY9mdsq01qQrGRZjhjGl0QsLW7uuMKrb9pQ05KQe5BWU+PwSB+70LzJIT4qjg6He0ggpcfV2REWp1xaQdIp/A2xu/xSKGve8BjQgjEZye/Bchz3G0pOT0ZS0aznc2kj0uoQ5EDcYzUYGW2utZfJZp6GkT44SfiUdmICctIZVZRjWXcFktJkOLrKXMp2TMMNeJ4LEM0HkmIJVvEHxLk+BHBdJXVtTJ3YWawxmc5i5VMO75QEkU61Ztd6P+HZRDUUKxQYowuEa73GzzgsqKM7bMWkn3p4oVVcHQW/E2GEyRPC2QpB7kPR2BYvFy2gCznXlo8wAKfj1Lqboi0TV3GKivswcFCvXfvVbLCXsuvIVDjvA5rYGGlru4s3gIozFpnXFC7YRyDSp2dHR02J4hX+zszGBtfbDYq83O6MYgJPfMJreGjk5XQaUCNS+rPn7M+t1R87lYeZzBZlm0mTjAScyKZGD6+r+EhUWT0k/WO/9W+3kGmBzEFkUtLhLYshSaTdr/epoGUlNlVi1/K8zLO82af11SJ8InhlTaSKs6VKpak1w+/85x6dH+g/PIxuNrVXBTjvtCI+gnUO6ZO2EeoDC7VMqt+mOTUTYvXAe2JhbLPbwbqRRh5pBqelm7xbm1DpdxdT4+NKWO3lkF2G9bGyXs7gt1vW8JDyQRXOhMkXXQ5LL60twW1nFUCQzmGZ2U02u1KlxUqhzFH5VZ4BHTmGcWzmQTxjgBH8LTnSfOSUwqkvIfrLsqYYjjTpIbuOJvkbDaTZROp8k4jZN4ZMAjAE32yxoNR474a3W1JJhQuXPkxYbVDqV9am2/UXEImtjuCu/4QDNWViM+DUUIPEcWptLTisPazPTXvn6tBTDkeTWFDmPWw6wOViKQ/Brmh1ruOZ2tGWymnwhQAnTVo9x/s02qig8lBPbBkw5Wg3gbXtggCfeD006ulIz2X2O1SXPfpm07bMqoEV20p4uwk7j+HmV3u2vssOHvas/0qhD1WyaT3fvU2crQHJ/1BYtpsdkDGCxEA9kqboBDeORU2eyIh/l3uI6yWpMs2LOzlsho3Dy2X8fjkmhGkh3mIMyKezIYHI4MqxAyXvOCUrYbFnYRjbDG/48wOZgCA07t9EEtzxR75bez3g8GiK98SpC9tw71SZ535M9NI0hSxYvSTQWNiAV7R+ZTyFFVKGyBbFusuDTOYFMhrs0Ql6G5q2In7UpVbjMIWpn6okpKx8hDqwsPBazBfIxwOZQuU3wUSi6SU2+14qUzSa1Ni2Rw4skGEydUTJ1CrstgG3KZIXkhMZXs1bdUoexlTJJmq3k2AjS5sTlcy5hO37qarzAWS5hcVStqArsj7c22YVE1HQ/c8CebHq0pdJEA2wOHWqo5eH14NvbZA9kogw8qMHK6peq5dpdTtIkK4vKU25HGyjYs83O62JnHox284bLyQAlnZ/wG4EMtamSJXyNxGUyUXD8K+YTfy6cSGh1+s4nofNpGHEJmY24s0/tipLQ6p63AY7VTCJbB5JbEdDWdtlMb/MEt1LmOnbLUypMwYjbrW352KSNNUch5nmO7KwVJuuQSrFYyp6zXfB3mbE2l/CkABjtcsptuuQtUrAPRRvxbKRRh63Z0FIOlhWe6YS3QHb0GPbTMnmLVhPXybEMtWJFtLlzbRWLbOArw5h2gZ1J/9i8Dj4Hti/sjWlNA/EUU2cczK4MB/SfZW8ie1pPDwWobcTz0qU17YWxbWnOYDaXQrOBZhabkvi1iWyzx5Ws0GB6XSTAqVTJUzWx8nG2DnzWiCubpddShJZfco/GyZ1ZbLZoUiFb5XezQed0h6aF1M5KSYmLeAP76un4Z9Bl1lgMDbA5ZHYj/YF72wyAeI2K/VSbzFyeHupk+fXOPTnsKJgGV+kOm9Srs3JG7Sg3j1tbcelsH39vIRt0u5C1omgsO8ns8aMglbIgRn22QsG2U1vJ8iyDt4BPBEhAPGJ7mfWcS7bKxXO3g27t93xjIo2HDdioyb+5amSXuuWsP+UcmfQGGb8se8tTW3ZAqUoWmU2ccnWLbQ8+haJgZpiKywXBwXXhD+9V6avUhbYboGEkNo3izskuJFJkuLQi3WzhuF7W5/HPlas7/GwOXcRp7z3i7k+5ve1KoxMr7NZ0SN7ahfUmBACFIxMdbUhVoLKv8bC9nUOAjlVYvX5/Ot0lhLO/zugobDRupuAWXwpyHFABivM7at0x1Dfm3madAFjWNrjQht9c5xY3wOYg32DCEZK19WQjCtgEXth7ygVxVWAmJy2RPS60WHQiB4k/L85OvCb4stZ5OLc7SHp+u0ytVaj7cfdcrwSOCI+bZljSpigdZrIqg9mSs3UANF0AbrOd+HVGvJE6kO9lclGi3VlbuBa7ATYHFE8c04PIxcGbfEWz+fRPenyX5W2XdcOIW5WybbDsdKB1FrHx5AsN1ceYdcmH4YsbEhGaExd0tZG5QMt/SY1pGWAIl4giJmwRyHTBCaYBe9cecrmq/DQe5D2/rDUjV68pIcLbO45wdYDNAcUHHzx+/0MPHT9yz0uf8nRcY3NLNmIBuD3IEFahdUNB0HFbq02REtpx5eOMeOIGokOYTGnHGxgKhGY53CmVVO9ezEZHTga7LPnySs1mcJ7WTjT0YHsDMKSzQ0p9+rCms/TSIt6Y7K710ligqXOuO+CRx/HQAJsDihs3phu/9tuP/tpnv/7eN+Cjj+u6bOPhK04MWXbgrNmtrOVYpDmCXPNa8TTDb52Ffj650RJoNh7orjnLaNiAHjnWdbwklQxu1tkW9z5jUhg8jKuaUk/7Zp9wUu/SBT+/aQNmB5qjdklg/Tm2uhqVJ/ql38UvDbA5sPjRn/jQD372X3zpGxbtIguDKSyajNfZW3dH2TEA2by3M/lEr3YrgKZ+yewVZ2ebpHLJsyIx+dYXXokkHB2k8nBEpjCuiFHunFIDNAxTWfJYDQfphr0fIEixNlbu10TeHjPpVao8BpR6LImB+z4J+OhDwH97H35sgM2BxXe/8/3f946/9fK/9+xPf+bz8GsPA1d2aCa2pQUcsSOWlk//ccsqpK9B4/2S2xyjVquSNlyxmxcsSJAzU2VnmixDkutyoyNUscZryNFY1+z0s9mX6Jchu+yzY8ZLnjAMhHOvzC1YrTIK9EcOoi7gHkh1Et8QzO6+F/jWH8S//Nhj+PAAm0NLpW7m/Oav/IW3/Px7v+hn8Zw7gY9eXwpHciBTnhZbVumZmKu1Lc4JVcKGoAZ5ijN86qgPHNyzuwuu7T5xvZvb7dBlByhS8DMS98rtXWJkr58/uGyNMBvgf0el6vbM8AadZc2JIiEuedu/Txl4yf3AT/8i3v9P/zv+Ni5ZXJo+m//1yw//3De/7X9/83f8wOd8B+7cAR+4ZkDGVHHq1wIDFqte2kaRymiyfz9kOACxQViWZWxKrebT1H7JuW3bbuf2+KlZ0hVR1x2ehJbBbNbqDswHQNSMFXCMvz3beu6kSUC/FB4xmagtKInvnTJwxxHwwk8GPvBh3HjLv8EX4RI2El+qpr7v/MHf/s7f+NC1D3zPv3j9P3vWK+55Fv7oCeChJ4Cb3PbVMwOJ9P3LHTWW/jLZbCywOo+hDTaHcJkNaVZUSkMqXUtBvmHaaKVSa1eSp/3bZXIwyJwkb9zAPbXkUAA7NK+FaPVzTdeBuSTlNSbxv/IrSqS6ntwhFMK2hj2JgQmxL5cCJwZ2CXjKEXDfM/ay3o/+PN7zVe/EVz38OH4dlzAuXQfxf/ipj/z7n/rj//kn3/F3X/FNX/7m+7/ixS946v143pX9Qc5rthKMsEjalK6Bdj8tVsj6lnpG2qBQOPfeyAcHBBzdAVy/gfQEgOvmU+GVZ3iFFvRYUCSkELB57bkEsCPgBR8FrtwArj5luUL3XNnwetbWuHR+3at19bR383jwGvBTv4L/+69/Ft/3Y/8H/wqXOI4u45t+9Hp++Fu+/YFv+ZZvf+DbXvWqp33ay19016vvSPx0TDhWZpjt8qGgdpLJeIna3MwTLCj4Ovc/yhY1utYT1EqpzmNTAvIx8WPMPIGRavmbiJCYK3VbeIxcZhdLGggzjf27sWNFTskOep0VKS6FlHB07RFO168jp7Q8xhU6UTNfKNPwBh3HdG6BABztsHv0CTz4Ww/il3/nIbwXIy4n2Ejt+IEHHvnFBx545BfHR+F2j+EgM8BmxIgRIwbYjDhlnGbcaMQAmxEjRn4zYoDNiAEwIwbYjBgxgGbEAJsRI0YMsBkxYsQAmxEjRgo1YoDNiAsGKmtLtUaMuFxgwzzOwGAxIwbYjBgxYoDNiBEjRgywGTFixACbESNGjBhgM2LEiE9Y/H+RbUMNB4+wGQAAAABJRU5ErkJggg==;" parent="1" vertex="1">
          <mxGeometry x="840" y="228" width="63.21" height="54.5" as="geometry" />
        </mxCell>
        <mxCell id="S5GqEVZqtkomO6TtCBoP-28" value="MedewerkerPerformance" style="shape=image;verticalLabelPosition=bottom;labelBackgroundColor=default;verticalAlign=top;aspect=fixed;imageAspect=0;image=data:image/png,iVBORw0KGgoAAAANSUhEUgAAARsAAAD0CAYAAACrSILCAAAACXBIWXMAAAsTAAALEwEAmpwYAAAFu2lUWHRYTUw6Y29tLmFkb2JlLnhtcAAAAAAAPD94cGFja2V0IGJlZ2luPSLvu78iIGlkPSJXNU0wTXBDZWhpSHpyZVN6TlRjemtjOWQiPz4gPHg6eG1wbWV0YSB4bWxuczp4PSJhZG9iZTpuczptZXRhLyIgeDp4bXB0az0iQWRvYmUgWE1QIENvcmUgOS4wLWMwMDEgNzkuYzAyMDRiMiwgMjAyMy8wMi8wOS0wNjoyNjoxNCAgICAgICAgIj4gPHJkZjpSREYgeG1sbnM6cmRmPSJodHRwOi8vd3d3LnczLm9yZy8xOTk5LzAyLzIyLXJkZi1zeW50YXgtbnMjIj4gPHJkZjpEZXNjcmlwdGlvbiByZGY6YWJvdXQ9IiIgeG1sbnM6eG1wPSJodHRwOi8vbnMuYWRvYmUuY29tL3hhcC8xLjAvIiB4bWxuczpkYz0iaHR0cDovL3B1cmwub3JnL2RjL2VsZW1lbnRzLzEuMS8iIHhtbG5zOnBob3Rvc2hvcD0iaHR0cDovL25zLmFkb2JlLmNvbS9waG90b3Nob3AvMS4wLyIgeG1sbnM6eG1wTU09Imh0dHA6Ly9ucy5hZG9iZS5jb20veGFwLzEuMC9tbS8iIHhtbG5zOnN0RXZ0PSJodHRwOi8vbnMuYWRvYmUuY29tL3hhcC8xLjAvc1R5cGUvUmVzb3VyY2VFdmVudCMiIHhtcDpDcmVhdG9yVG9vbD0iQWRvYmUgUGhvdG9zaG9wIDI0LjUgKFdpbmRvd3MpIiB4bXA6Q3JlYXRlRGF0ZT0iMjAyMy0wNi0xNFQxNzoxODo1NiswMjowMCIgeG1wOk1vZGlmeURhdGU9IjIwMjMtMDYtMTRUMTc6MjM6MjErMDI6MDAiIHhtcDpNZXRhZGF0YURhdGU9IjIwMjMtMDYtMTRUMTc6MjM6MjErMDI6MDAiIGRjOmZvcm1hdD0iaW1hZ2UvcG5nIiBwaG90b3Nob3A6Q29sb3JNb2RlPSIzIiB4bXBNTTpJbnN0YW5jZUlEPSJ4bXAuaWlkOjM5YzNjMWY4LTIwNjktODE0MS1hMGM3LTQ4MDRkMTlhZGQzZiIgeG1wTU06RG9jdW1lbnRJRD0ieG1wLmRpZDoyNjE3ODMwMS1jZWUxLTcyNGQtYWRmYy02NzNlMzAyODkyNmYiIHhtcE1NOk9yaWdpbmFsRG9jdW1lbnRJRD0ieG1wLmRpZDoyNjE3ODMwMS1jZWUxLTcyNGQtYWRmYy02NzNlMzAyODkyNmYiPiA8eG1wTU06SGlzdG9yeT4gPHJkZjpTZXE+IDxyZGY6bGkgc3RFdnQ6YWN0aW9uPSJjcmVhdGVkIiBzdEV2dDppbnN0YW5jZUlEPSJ4bXAuaWlkOjI2MTc4MzAxLWNlZTEtNzI0ZC1hZGZjLTY3M2UzMDI4OTI2ZiIgc3RFdnQ6d2hlbj0iMjAyMy0wNi0xNFQxNzoxODo1NiswMjowMCIgc3RFdnQ6c29mdHdhcmVBZ2VudD0iQWRvYmUgUGhvdG9zaG9wIDI0LjUgKFdpbmRvd3MpIi8+IDxyZGY6bGkgc3RFdnQ6YWN0aW9uPSJzYXZlZCIgc3RFdnQ6aW5zdGFuY2VJRD0ieG1wLmlpZDozOWMzYzFmOC0yMDY5LTgxNDEtYTBjNy00ODA0ZDE5YWRkM2YiIHN0RXZ0OndoZW49IjIwMjMtMDYtMTRUMTc6MjM6MjErMDI6MDAiIHN0RXZ0OnNvZnR3YXJlQWdlbnQ9IkFkb2JlIFBob3Rvc2hvcCAyNC41IChXaW5kb3dzKSIgc3RFdnQ6Y2hhbmdlZD0iLyIvPiA8L3JkZjpTZXE+IDwveG1wTU06SGlzdG9yeT4gPC9yZGY6RGVzY3JpcHRpb24+IDwvcmRmOlJERj4gPC94OnhtcG1ldGE+IDw/eHBhY2tldCBlbmQ9InIiPz5R8CyFAABO00lEQVR42u19aaxu2VHdqv3d18/tbjx0t6eY9ognbJwYE4wIgwRKQHEsjJIYkhA5OBYoJCRiCMJIJPxACSQKykgYlMCP2GGwglAiSIJCgiEEKULEIdCYScbGBuOm3e7mdfd7755d+fGdvU9V7ap9zh1e+77v7pLcfu++e7/h3G+vs2pV1aojZsaIESNG3Oo4GpdgxIgRA2xGjBgxwGbEiBEjBtiIIKLxW75A8bqX4XM/6xX4jKtHeEo+xrH+ZYEAEBhggAhgAOUXqMRFrj/SRP0njv6lfDSAvWK5PIP7YSHn+bh9oOVb9i9+l45Av/JBvO9/vBf/9eaEj3uPfZk008FsRjwp8de/GN/wdW/B33z1C/FiPG0+tblzggvMyJPuQY/3PSy+RsHj2v9vEKQBpxZ12AWxJRKAx4APfgAP/8j/xLu/8fvxTQA+NpjNiBG3IJ52Fff/8LfhnV/8RfhcPAHgI8D1h+bzSQZrZvChNP/7hpt+PfMOMDBr5qMoj6VNHqBJLCTzffP3lr8XmkTm+44ScP/z8Ixv+Bq8/Y2fiTd99T/G33nPr+OHB9iMGHGeKSzwzPd+L37pRZ+Be6dfB27cBGi3/wcSB5IlE3AOtDz8JbcqDIYpACUWj0UaNHj+WfIAJC3PWV4js34dnA0gkXgv5XHn13WcgZt/COAPgFe+Es/5mR/AD33+27B7z/vwrgE2I0acU/z4O/CTL3o97r3+/wDe7RkLBKuwqYplKYXhVHHFAk3AXJqfF+yFytezAZn5yQkzgBmgqoAjv10ClngMy5KI9iftj94P3P0C4Me/Df/uuX8VP339GL8/wGbEiDPGW78AX/+mt+INN39lDzSuNkP6oLPUacQBZm4PcgGNRo/BAhiFgahv4ZYJkWEmHkOyAMP+t6jnIYOE6Qh47APAMz4V9D1fhXd+5XfjCwfYjBhxxvjGN+Eb8TAwZUFZnINcDnphMBKIGj2GNUbJx1OARLE+7JWx2FIr+VgCkKpOAwfkHACD8328A/gDwF97I77gW38YnwbglwfYjBhxynjl8/EnX/MqPI8/YnSXQMStZ99UejygaXCDhYBr2QRavQU0p1GMtsolvpcNsHFQay+idqQZeXne49eApz4HePNn4ksH2IwYcYa4/1l4CZ4KTNdacIlK00r4zQvYkClty1QmIkwSLOyBJ9IAVUFHfn827MQBQgVSvWANjCiaUAZecz9eNdKoESPOEPfcjTsbEbhX8YHQV2QaJStHzhkmrAi0DpA1JW7DuNjRcchjLAJEyAMd+9rJpIYTcPUIdw6wGTHiDHH3U3AHdo62UUrQQgthU1VSfXbiYBcdRukfWMTgWqY2jIPIrzrV1CgvwCZBsRGlyWEz5BAbR2iOssibE24OsBkx4gxxc0Ju2IgnyGbxT85ptA1zqhHQlKQ5SGHYokE24GG0nVr6Zid1Ige0CI2Y7HUiy54ikZ7xAJsRI84WmtQY7YOz1kOk0MsRSEAzCu4d/ohpcJvOqNfhaThuI48PJPLrDXaSy3oG2IwYce7QI8Xg5LARATASCNiAQtFI3H4Yb9aJWxCQB55tqmXSpOZrJo2T5XuFK7wCVJcwBtiMuDXwYvpSyBlBICzCMFFbXlYVHGgGgkArqc/JcdnaCsh2/KA25DlaTXlcd1jb6yAeMcBmxJPDZtSskDyDuU1ppH5Djg4jq1NN6uSJuwYwiIMGP/N3CthM6alhIz5zT5DuJpoDbEaMOJ+0Cfrwy4oPiW5fl3lwe3jr15NJVbzngtGGopIQB2kYt+lSM0DKQWoVXRb2X8IAmxEjThsUFIcCDUWOF7Bp3mPLdKzek80cUgcQ2BN+ydFp2LAv+xg9trVFtzIvYYDNiBHnwW5sZcakU2Q1GfIPMjsmV7WTOGlgaGadorTF6wqGX12yuoxKoTrXQHl89awHB9iMGHFKoHEIA2hJbWyJu3ydEOguUgeCmPq2qc6aLkIOy+CgATFiYlgHGe8pCaZZcYDNiBHniDvmUDcCqvCeIavXQICSQzTUEGTPspPgjhNYoGlK2NSC0BYmQ52n5cuYPw2wGXELNZt6WJvUpxzs1Lrb2Sa4opvYPhtXiF0zmPGAgR02BdOxjPXHlcKvssUg/WONjcYAmxEjzo/VNPrEDECWQcBabXI73Y0tQEMdRuNoLBXoQgOcbUwGIi2Ubn8waSR4o6A8wGbEiO2ajWfdSWwOtv05YS1h0xgFCkDf4sE06fU2JShGs4YD3GkyNpPuzctrG/5ogM2IEecBOKTBQ05lWwOrOoYAk1L1Ste9lSzU6eQlNH08m5rxuPUdVl7EpiPZtbbYkJYNsBkx4oTExh1mtB42zv1909xTL30CVClcHnqyOkrUoBe9HmqN0CnwVvYYFTtuggNsRow4a5BOjcqBzFkDj4cpioBEy+Sc7mB2tjWw51W8VZOxq2CMHkOONuNV25Rt6RCIR4w4P4ypmQ5pewc2KRR7TXw9YAjAwiuDc9RBt8Ji1I+QT5xgtBn3ORwnQMV8BtiMGHE+iMPYsxhaufOHpebOQYXjyudRpK1Ewq2cYWULr30NVqcSD8aW1bC3jHyAzYgRp0qfpCZTLDgp0kS2lp3ZqVB5jXjyefsPFy7Ki/ZDuZPjWQAMtZ473gwV0wCbESPOFsJi03YFh7ucosFICTK51XI4mG/aClpr551ChHK+1xHCFZh6zYsDbEaMOBvW2GqNKn+vsZig67g56w64bK4qeexGOgWSLmlLTYg59k2uQGYaFVmklhhgM2LE+WVR3jwRR+KHZ7/JzloXK42c5ORyS4DUY5H/0mSfDAmzL5sOWX0GXhXLMfoaYDNixFmYDfcPvFeyVlsKpGMe6fI10zqDUd3BuU1pSjXMpnIkRikqczGzWW7FKUjJvEbBxtBrgM2IEWfPpTjSY3jl+23KcVITGNaAYVfK2GoYU7wahh0gJcAtX4fbFCSzojVBaIDNiBEny6Nsb403WsDoe8nI8vUJQEYeZCurEJkyN/ml7KjLl3pgalKyLeMPA2xGjDgjq2nsL7kDDNEh5G1n0q7J7fXGNP00Tq+MZULEftoEwZx4I4ioSzOYzYgR5wQ45UwlXf5t7CXQzgzxJpRpe2LI6/gVhuvsVbjY0WrQVqM8DYbMY+Xe7JN5/MsWA2xG3HrcyVp/UamGPOw9gLEbDzyfB4MyLAHNmdPySthyb7gSfoNhTjavh6jVayyTEddiWEyMGHFu7EY2s3GHtWy0d/CwhdH23jQD4rllMGRyL2J/M6bdC+XpMUR+/1C4SSYPZjNixLkBzaYGvi0P5RxeWWWyO8KbwpVlKb60pHGP/N1UTDGgkffAnhA+St8jRpxzeJYQJ5iBgtVjnDNa18GQo5UYoVnpOaIRr1lCB63ZsEuhOu/Xpoh8wvc+wGbEiJNjTT1jtGEHNrUspDAV6rAR9oRl49ZH1AFBT0/BOgOJ5qZUR3G/a5gH2IwYcQ5Iwx7Q9IhM9nWO6GQqtsOt+x5FlSGb0liWY3UiCkDR2kpwINBwkLqN0veIEecQGXU1LveyKyfNYMMSAL3DOzsrVySDkqmSEnrN6ILtq4lWxzTgZ0HEEXvt4GZN8+Rw5qhGjRhxtmAGh1sqSbMYpbsIdkHmhHtVIGVdIVmKt6ZX6DTsmKbbJr36VwpYljPYKf+taQx0rsXY9T1ixLkgDpo1t8o8ilvdJawMdTx9FYjxwhzUGhgyT0uNRLSeFQbqNFMnTbJMrn0fQ7MZMeJcwMYwELkyxWvxVw10QeVG6jH2VFdAyACnlj5YvGCOAYLtcwT2Ee4eKcOW3K7hS9hFPMBmxGmip9vO5sN73SIzfG+bOAXrCqzy2b0dTnCYS6P/5DZdsszEji00KZXjPEjOFbE2o+a9DM1mxIjzSKGYAZ7aPhkg9sySlR1y1rPUb/E0HApW4WIBGaJ2BityffBW9TaDmh5q2L4eFukbLd3MY7vCiBEnZzkcAY7aOOkQFnJ0GCUYY9Fgyr8xAEzz15OPYETtzqguSJDRmjy64zAsYicVdFImgqhQFW1pgM2IEWcDHKmJsHHM4+DkNyzCMoQCXmlhMbBAJQ90WqMfLaCw6VpuNCLxOOytYiEnzYMZ1swA7XApO4kH2Iy4FWkUYZo1G88GUzCFLLUQcbcnctgOtSlKfaisGQ2VNKqzQkGCgdVbMiPOtThuPLQl7ro3q6R4u8v7sRhgM+K8VBr9lywmrU1lhgmgbMyrvFHuAkgz0yhre1NamEu4MJM6VSCzWsYyKSX6FmHZ8xpmZwyC27GMprIFDMPzESNOAy42pmPcwPEeHPLkTFFDe83MKQlTAllLUcKcdsCMJkz68JLToOdWm7KvxXj2OIpceWyGWoC1+g51BjB5pFEjRpwtPv4wgJvAjceAzHuLKGZw0XB2O9DMUri6+AFIeyGYJ95LM8x7FkMM4mNgdxU4ujo7/5XDXQ592v98BRrDJJr+GGgh2jbe7V8AtIeyTKGcNcCunw0vr1duCO35HA+wGXFRIn3Jn33OWz77dU/7nNe+5OrLrwDgzMdgZuaUQbQ/1bNYQonmOzoTwKCU5r/XZhPeswsuQgXTbo8AnPeTR/oxACKaD2GlEVS+J0/55iffi9fixYR7nr8ca+b5/NP+PzQ/9Kxs7FFmX6umgiL7lIvBN67z8bUncP3Bh+nxB28iXQGu3mW2S2ZhyWkqVJ6PDHsisGNi7KZ4ZCpL0oDL+Vlmh1ENzWbERY43fv69X/pd//CV/+jlb3jmpyAxcF1ODRKAyXBzs5JN7q0tnN89NUDfkdyKIHk5tQTgMQAPAVd24qi6jlbQP8dwFmLv6c3VxLjrxnVc//Dv4eO/+iFc+xhw59OAoyPDGqTO4o0RcMdlDy3bqKlfgtpFpcTloGeGnLdzmWOAzW0S/+DrX/pd7/gnn/p1uJ6B9z0yH8IjBzBaPaI1lZH/C3KCTSAjHczXFFDS36t8NGdqosajuQWm3R24+pKX4NnPugcP/sIDeOzhY9z1jJnImIoWpeWwK6CB6M1xjNcr9lk9iDVwkPkZcvQYcua3RgfxiAsd//ybXvr9X/udr3k7Pvgo8PFj4GgnQMZydOilSLZPn6VpjG3DPcEtmCeDakHjSwUx8bwsgUa4oUsU8JZJTTeAhx8H7rob933eq/Hge34V1z52E3c9Ux/2Zt2vta7wcFl6Exvgkfjo4jLp0jxvwWy6fAnVAJsLHl/4Wc/4c1/7nZ/6dnzgUeDRCThK5qCjbdNVrbRpOey1pJLg7lXZymTCmzP3/2xdtHiC7tTjDhUQsw/XHgM+6S7c+9oX4sM/95u4/gRw9Q7z1oRvTLd/jhZSZUHGvnQIYig7l2vDYg4oS+D4N6pRIy5U/Nu//ynfi+MMPJrng5SdbjRCo2KSOKDN7td8inQp97fKqTIOxKKlbOrS2bye1DKz5rHLz6Tl5x59DPSc+/C0+z+Cj/3mozi6Z98vxxOQdstKXQkitnGv6C12Vso2F6qfc4TmVY4S4OeoRo24MPFpL7vrT73gs575x/D+a0DKYpLQ3r6ptZBzhd+TaDLytu0xE+NARdCiSW2UKRRgWspFTL7GQwl6UrG85+ScXAaOgTufex8e/q1HMU0AdjPgZFEgooV5WEZBNtOLtBbJcNKC9+u0aQV4MMBmxAWJr/my+/4Gnn4F+PAT81eSSCcwd7sx6lQicywy8NbJP1m7zZopddMcc5LkGky2YnSGciOHANA8mcfZCWFEAA8BeOImjp5xJ+54OuGJa4yn3E1IiZsqkR1tILv9QGIjlqcpFqTUW6DHJ7ukHhkcYDPiEx6vfPFTn4/jyd9RIgd/VIdbSVt2zkHfElm3y8qSjm6F5YVBiZluEo0lqovNYV9yt23z/SZ3scNRzMDxTeCpV7G7+6mYPnYNKTFynscZ5qyLjHZj2Q17K3GtRw7ry7NaQ9rCdmikUSMuUDz8GP2RHiAqIsL8a5N6TD3su1Yb2XQyHAaiSuX28ItUSIGGqY5J8VfmKTLtUqwr8nJw0kNK8/tN1WBdAQhaYCirgD2nwEIeycxzNZPl3K7Z9V62d/nk1wazGXFxQm5Hs9vSqq7h9c+fxCwla+agPDO9PpxSH2Zq/TXN6LW330SBjB3h9rrwbFpX+v+pAi4zI0/7pum0M701hsVIQmXd9pAEYKGj20Tb8uy3O6jGwmpibws/wGbExUGbJSUiBvjYVKOs+HsSns9aPXVZjEldvNu40nZExUud0PkkM9rSvcquZLMLm+9Ni0ILk80Va4hMOErc9BCqt26GL8kplHW34m39tVlNCHoLxGWLATYXPWz6IEvJoWi7UZdxm/Gc0yA7hEt5RymwaF3EZRrVaDJYchbMc1ywqy8lcxMDT9KRi8zultkfZ8rAEfsT5oqgJf13Zt9lb3MmCp/JwHQFgE8JYgNsRtxacjMB+VgItuaEbEYsTyjIzkkRjIHYCBSpFXIpyCNKNYoncZIFwFhXcNVNLPMdc0I5zwxneV5mYJqfIhGQeT+MKsvf6oBbm04sT0c2hQokpHCtLjuYa5z7BKiOcYURFyWs1Z1NWzaCjCsWs/C2tLzeKU0zAziGKlM1h1AYDTcl7KQBgyzIZZHSmXZdCTJImtExgXOuAJEyg48CVhJliwIDmVocbkhItPuKO6THjjUEOs8AmxGfwDQqmU/y1k/oBqG48d7MmpVUB4hJO1/VEQjpZG67k+1jmeVRjahSNBny/RiqiQ1EF/XCuPaZ3f4xi8xDJutyL59lJ85oF0WMZgVo1NORuVcMw/MRFy2J8rWOtZ8SB1i6UzX7aE1KRpGGA2Ps4ggiHCisnHUNWc5qqdwmaXRwzYOdChZxLeqUynoi0x4UAU3kM8wmewsYjQWx+tZEWta2J11OvWaAzW2CN6fXZJKfM7gO4yJdUpPhcLa9wZwkFs7eon4s7evIVsBYp0ySsRTwacpJVsGdfUfL37Imgq4lJ/nsRf05YbVRutF1rEMfGTzOpnMZl2911ACb2zvHMgfYEwqskmm9Ykw6o5pR0DacyIVMxQiYKOiJQVsCqq9jB9X13JSMsp6KrEObS5OKaigUBIvYWOXwBuzubeAMUiXbtMfWk9jzI5PfMPpsRtxWrKcOZ0pm4ownl9NATm5RJhdlKuX5yVTMytjPY8m8wTqVe6PRkkKYtZB2dSXg6DtZTFkKtZeXNOp4Aq6kDZ1G5Gg5HuuxWG4BhZzHyuJyW0Im3xKNatSI2wJnsnN7NSmUNGtp1kXKGSgxoe3115dRhCxWGngdvjKnsBWwOu0t+oWahdvZjDSIxr4GBJY8Kee87HnyFmpTewl4bagyaoqG0MrluBcHhNEU+lTP4yUTiQfYXHhAEQCRTfrAHDf1sddDQ0sawl5J3WMygmWoU5OM7iI7kSfncUzZu9mPyxpk6tezL6iK8W0iUgDA7DMQRNgYrNuVj8OWlYhLFu0LZ8NqnILiSKNGXKA0qZ6iHCT/QWqlOHtaAEbe4mUXMTv2ELZXppZosiOIpBZkyr/nwLjX9vqohd7GlKbnEDi/331D33LJkpcNcqzX8Np0N7XYaAkdoWUxbAfXL2kMsLnQWCMHLhFMYUenRfbnZF0BUjtQ7NeMPYQqnefg9i/BULbh5pYSSIFXbYaQz826B0iNcRvaMC+kkkPlXh+kL9xATYqrdImcy+NchgYGvVEybuBxgM2IC8hspDaSJ5FmzKtb5MFTKQ5iTxmvVGKBxprutgmCo8skAZCOH3JhPmUwidgAonT3Y4fEkHnevaUGpYQ87WeiiPajC5DrV4KqFHP78I1eLbVp6B5GggMipjDYzFuN7QojLmaQqOPCKUcbMFA6TjYdvhAasmEataW1U45BUMIuVp5KyBWT2/XuLvfwJs3cyFawHAElMmiXiFFfztxJvMEyGWTWA3vylUmB3P3ecOatvO+VWD2YzYgLx2zsoZO+Lqp7LOv/J6/xw96uLZiQY0+XBCDJ7y0jBJM5YbYfBjoXUSbsQKPeNkbAHCzf4/2QKmcQLRqN3RqjbH9g9ox7pMMpiTtFsCZVsoKyKtbJ9qZLurhugM1F12ykuOD2q3iL4uwn2x7SecCTzU6SiPsr5mMd/LJuOCHBlLxGPWVv4SUStFjlNRQDy+MItleLWKmACmvzUpHVkbRAhsa7bBc/OK/PSkl1iQRar2PXpWNoNiMuZhYlGAhJxz72NRnbDw+reuY27bJMQT2OZxMK3W2s+mFyy7psdzLBlM0Bt3U3agR0Rh2IErK0xbHWm6YfsWE0vGR+shGvqWdn/9ICQembHcuKATYjLmoWJa0UmqoNkWpHbQ4iGV2HS9evcM0jW8GqlneOMGtPcDLVLrSVLp42vEmTQrlMJsd6EmmJKGP2s2E/i7RbFaRm45miy0F018oHWu5iLwseMcDmwqNNPUXioNcySdTAB1N+Lrf8nS4tk2EPakdUlKrBMJzg9BVB2B12dLr0GtNzj8n4HIIzLzr3bq5GOcORkSmhnTOFMUKULqRSb2/GFDzNZxvSDrAZcQHSKCbTswIzQS0AJ6Xltp0dm4nG+1LejqdWO/G0IPJ0kySqZoymsSQcbejMTTUl915jHyMXpz4BAon0XKndAU7k45C07rFbbVR2ywFWjhhgc/sRm5KiTM4iamm7kETd1THNanSaKGUxZuWVMZnd4Oyt882mSc/rk/FADG166Jr0ejSpIAnrNbmO5BRipvMM3Z3dHKRjIwbY3P6AY0onjeg7s5LS8KdYgGRAApjK5slmvsmUnckZqlST4RPcNQXNCY4mwK0mA7QGX9Gag1JR2+1zp8D+Qbb92Oo/e/Y4vYwv0q9HDLA5kFzKLECys0XZuQXblKXUe02zX8M0PEVBjieLChMms3bFe17oeSfrOl7TpZkVJdKmMAo0hcNf3Y+7q4AsZzuJ9WyU+rrp/M2spSv3Mnp9NSMG2Bwuu0km3YBp20/CnsFhDkrgtb7AcBbdeUZa9nEkWDn4IE9+DTEUWgEwOWKu2KEL2wgo7DPyBPC0h8RsrIrRZo8EuKMKoVNnr0g2YoDNAaHMkvqUgyttJlT9lpZ8wdsiibQopnK4sxmSlMIyaQGk9tCQfyhBbc7SHNLJaUC07zm1paDme7IwzaL6VGkmSIC5HI585da4vJ1/t+LXunU78gCbEU9aCgXRg690mZ6/penSrRPgaEFGVbuyw1icpXCq95+drZxO13Ij/EYziDPzyYJ1JQ2GzBnEvN+1S8sCpmR1mtRa5ni6jrem5ZYwGT7FkowBNiOePGaT9yt3y5Gq2ka57Vr10gKNNTeXk9Uz06igYdYDQDjzkcdi0OYl6psz/EqVPYHy3/LibQyay/mTSKNo76ZZAW7/dfYwms1+PLSEkJ4MPYb9lG6AzYgLhDUstgfQMtijNhnY/hbSt+06VW20EDm/VDvU5IpfoaaSp2xw25SimIzj1tec9vk9kF0DsxN60n7QkplBStTO1byGzMZJaVYVMZcnRY9hp6g2NJsRFzOLstsDsm9WriYRoQ87icPO0J4yDfhwABDst724prs9c91oQ5wY9CyMK2cw5nSJkpCJ9s/BmMGHUmPDmURTn332ZhzhVqVLzru25fgBNiMuErMhX2wwqQslI8qyr73A88aZ2hPieRPL7Q2ImEzUjAdfp+GbMyrsADqqZW3mCVSYTNpVxsXBc2ertwRSFt3idIkz3D7EZiX4WFI34kJqNvITzMbDsnHay8b2fwYTCTBuGVvaQ6ydJhtZW1DI0YjGq8a8RmbRK7PXZRjarY85+wZhBkmIRJ+zU5S7lemS8e9qtmHK3h6+xCnVAJuLnUehtcIU+k1jhA7TWWx2YitDq3IKjMBMATdgx3hLdbQk/+TZkQb5jzQvqstlaDOpVUrsefSoB1+oSs77AcwdNcWr2hVwy5iMh/3R+t1b9FoG2Iw4O7OxTRnS57eas0i+Xv6NhHcMoBr7irhMshLkiL+R8Zad9kbQQUydvVV5qoNIPPfVzAtZwKL6Vr8GU3YX/p3sDZHfKi8ZL1Uzkx5s/26v5CUFnAE2FxtruJaNVeet+SRTp87bVJ3gMBl5YrzTSfCNq3oAOf97aUJMuwV0cgZjAvF+DIHE2kleHcCcSZEARuUNbFnEeWa0HjMJzBEVyFCr3wzNZsTFy6JUyuAZV7EWhsnqO8563qZdFrHwWytekzY3h/MYSoyWDYJp/vI0AwtAgqFxYT8pmZyHZvBpAWiZsNg39qkKPJ8j1niispfRrWSdVtMZadSIC8pwnCVvrFv2l4qU9AVG23FMdtw5Bx9+ky7VdMxbpERoJ7dlSravVJHSm8Tjl0V6vOxg2T+8r9GQgptJfT07XjWnvuTcrt2Vgm8lOtY40FvL5VzeMa4w4mKBjB0hsDNKisnkgBUZVuN2/a6BBmmdRjlHTfO/JbhbIEz5m9WmTQIxgWslLGlmwHpWi5Aq2+F8DJqO97qNzGjSOaRLDmuR8pZ8ecronNpiYfmZnDUojVUuIy6UaKO7e3M7p+QtloNjvksUbNT0LDhLpBZwFGmRYJJaxlJHIPZ6E5eOYLVBrrzEphvFZGkzCGGafWwmhSz1VVCbUW5OlSCarUmvgrEgY/tnyEmfys/LyyRfFw2wGXHBRBuzSVKCjLFdkE5R8hSpcrYtV+d2W4I9harknoWGs5t9jcuA5ASS5fZZFGY1usDaB8I+vl2yXXpxeJ4R40mxpHK6Jcwqr/Y1FgMzceGVr8uvgZy0iMW/WSDi1vVPbTMeYDPiQjEb6Rts55oabOJ4ImBL1y+ZuSrPHa++HtmMl2dNRjCcuoc76xPKBJrTnkbMhpObAEC+6azu1Wmd9AxOtILfubNml1vAacAEga2yWdzJxkNMOXrsH3us3x1xgUSb4kon/YXJa3SzIwoUrD/JjglWCvSY8jjH5sDOwJSP3bSL6ymdTHpF/kl291YxKB/Plao8gxvrDREVj3l7amKH4oXERI77qh2qV8bpwSqvBt+sxLXIUGO7wogLlEYRlpEDgjNCTOzsXnJayRzBlqzq4A1cTvoLBWTKrTvtNRnmrBkXJYALExPASPP3zieTQGCyLoTHQD5ezqLyQjbpmOmy444nV9FkVPFIdgXAtRt2QaNp1DbA5TIqC0iXTLQZYHOB44nHHnsCeAyYrndkzZYMQdWIpVi7A+iIdLnGERsQzWDlpaRSHqNoKfXlJMSDSDQDDJap7fpWymNPszEwzH4qISwrqsC6TubshrI9MjZDZNMIyEBoci47DzxnD5MmLZdIDILSmI26nLG7srvy7Gfd+Xwc58L7efVAn4ianCoygHTvs+57LvI9wB032KQarO+YViBA2+EGBvITwPEjjDwRdncB6Qr5OQa3QsM8JEmQGxzyUsYuGg4iIWO5pAUJuTCT6cZel6F5kV6yqGDGKliLw+Vy8GxengWANEpV9NuV368lJp1NMUKvMCLnobnd6oBLuvf7soJNeutX/Im3fekbX/4ln/Hq57zuefc9ZQ82jAw3/1hlFXTOoMMAp3R0dITHCLhPtpG5zbFsThW5JfL8BHDzY4wnPgRc+4098Bx9EoXGLllsZACBqFSXGMQ35/Of6l2brdjhltrF5cg3hN1pWnQZ5Z1ZTr6TEs6iOTPJfQ3YmV15MFfPNuIZoqTAp2JDsBSUoDUgr4u5Me8aTn2XI1790md++g+968vf9ZrPfNkrgGPg+jXg8akM2+wu1It9PAM3502XfeCi5qveTpLd04Erzybc/Srgrpcx/vBngOsfBY6epsXZ6itTUp1FMyl6C5dkaL6ds9yUIE+baEok2u3L4DzNZWwxeiF1mUJRQE4+Q1qvyTcXWJKbZcgQPwjLZW8/HhlgkozEabKORtOsxlN56nDqu1xg8+f/9Ev/0rv/01vfhTuuAr/7eyfs/PrEacTnRrn5JpAf3wPC1RcQnvcXgD/4CcZjv0O48vR52V0WuJMqbaI6JCn6c8oAArMYHxAKSu103jMWnm5AT58nDTB8UwCJFUzQjmqYeTGlz4q0yLqa2omNxgII5uU7vwN3QSm1YjTM3kC+xLhzacDmJZ/8tFe9+7+87V0gAO//A+AoXVKlbmYENx/aM5pn/RnC772bceNjxLunzjacy+nYH9zFb6Z8vf6XWaRRnsXn3ABYemVot+wGL4/dnGDRDEPS+2YSFCLPTYMtmbO6jDtDSW1Syo6oXLsO4IjM4nsp2jjMcEFwaDYHHD/y/W/+UdAdwPt/fw80lzbyIlwcfxy48gzg3s8Dfv8/MjHTHgwYnGWPTgITq/b9Jd/I+9mmvVA0A9SuisrFsHx/AnfC40bkKNiJJdueT8RifL40Ny7Uowxslu7clGJdRDmcGgXOWy5avybYEJvdfrTidSzTrltifzHA5uLEl73plX/l9V/8ulfjQx++ZEBjSsswp4sIOH4EuPNFhLtekvHIA8RXni4mBvVj8XzCqP55Tl/qSUoLu8nHc0k8LSyHs9NoWLQXL6WdC4QF+GoH9bEonfNCihi6HUcUq2o5m9pZpqZ25q0sd6pQ7sIICtgUdxS3ATaHE2//y6/9auDm3jcy0SUBGQkwjHACvLCMp9xP/MgDDM7kg9Xyd2Exvtdrql/wtKRctduXBWuRSmnUPid2R0n3qZKS5Wl+/qXfRlb/5VA77DQ2dKeAWhBhRWVboqZ2REE+nq12wV45s25mgM0Bxu5od/XTX/Pc1+PGtUsCNEBdPNewBCkyiOa7fAO44x7Q0d17S046QtPPT2g9hCVjyUX8Te3zhhajMGto5qY+lo2DcxUsTyBkMBGoFA1L1Yw6q1NyK+Yqw0H7UiMMlHjd0V3C9VgFM9l40w+wOZy4/1lXX/jMZxzdicenA3+n3B5gwKnHJsdHYQLSVWB3J3Dz4zPYQIsVxhNzf0efZr1ElL2VqJEFi/LWBsvxabH5Uwx5ci2Dl5bC2a6izkMJUy4xH8YrKZC16FQCrmPvSaTTIffdSPZiR9VgLssQiA8vnnoH30tHmZAPidUYa7heXRZmWlDd6ksuMEE74dHSJcjOc/M0351vLie1NuTllkElEroLdConp9glk6mrf/e9/vvXJHp96vI9UhMaFiMhUqZEGjMbr3dZmg6n532y00uZLPaKPqAx9X1QCUXGdHhNVQHI9OQbq3YS6/1NIkXipo1W7BbnAjJyRIFbI/ba9cum5isNv+Rq4T3QFE8cKqeWEpj3zd37xmhhIwr2x6wlqZKXgdsUiXuXkkLZaiFljn2Q7bdh01RdjQcHszm4yIfBZORJyY5qKfURkQMApgnEelJmc2ufWgbFpbrkDGHaUyY9akgACx3px+dsmvqkiLHYUhQxWvsOz7qUaNtlonmMAo07qZtROsSNPHLIulpNzmxTlZ3EJS3Ftcpm4MxIDbAZcTHx0uH1TVca9HI41UhiSt+2lFJPIy38hiUDkaeLFmbkWpHalZS0+BRX86tUdRm1wqUCQ/GxKa84Qe2t4gxOtEyOi7dkzUwbUtiB8tWdTtymUc2UNzeX003dLpsN8WUAm9v4HhLNhBpjFeu0F+YH9jSY56LSvDIviuOsVwhI1mKBRq6WIbNQTlnjpbqgjovdBKW9kfn8uKzyjPKcxwJ4ZWNfOwBvW3assZV62cGHRBGQqPLkLbowmxTkwrpNqdsAmxFPbprkmViZT7g6AFIkcISJiHV42xXyBGBuyCPhsqdOSeEPIktt1vOKCUYxrbgHmDxj1WLIy9VaFFg2YMI4FDqDRuDWr4YCJuN5BxtAUb060KmUe6mzMUF3ZqBcrBpp1IhPLIPhPnevdVhrC+o1bUj2YlbfNtYN8xHPN/fibzoSpuTZDKwmNGX2quMYf+T55/YvOS+7uynpA1icCGfGwlXbEUOdBZhkecezApVlbm4zy4bhbPzt1F172QEqxJPfyM3eveFnM+ITyWQylG9wNI4MKHComw7s43qTg0VjYfIHfCR7kOkPxL8r+4j5B9NuZkM8//9yivcgw7XxjkSpmpCFaLqAafUcVjYThvF5sCpMxlPWb1sWxmDkLDJpjp2BIvEYFRPl5Qia9ySouet6McBmxJMm+FoNBmISmrVLngQL6n2KJWCY2yhD6yous0rl2FKzZgCG5Sgmw0rMLaeXxOuhUk9i6/RtF+1NWh8K94872sn8n0R+agRy0iJn1skr4tW9emYBBZvslK3U1knphgfxiFvHZNSBpFagrdpGFpYO7AutVjyQy9zsdKGbWkmAmkTKlPu3YmUynkVtVwxJzoBEvNd2aBY3WL1PoflUwEJnmV6c4yjLiGKQBSBxsJ4q+A2pt5uF91cyGnkwrsArWXCTQg2BeMStYTK2iys7nF4eaOiUqCEjdh+TzdCorekqhpDhblkgo0BzSddI9800PTf70vZ+jCCpTSX7NkEzIiF3idsmFs4nw3E4GoxkIc6Zb+4D0E3WStaCyTY9nQgBk4lwe2g2I85Xi4mm+WBEV4sUZKYFA09eDj7BJB5fKZf2NSXDZuSaXfN9BGPlKQy2hJixt/5kSOGaieCXceS+8hOCDFoph2xznakMUWfQnFhYLlvthVtc4YideNnnJfawGWBzS0DG02IMx1ZCb0Kz+awettwyIFuytiKE7ZGv32d5u5m4bjwRpBcmBGux6Y8DMhAbMOcOYSKaqzFZjzwQBSLHKS690GjISWuos8tJ7nwiD2CMlegmUBmAc2nBhm8tyFg/3M7tU+1fJS0OEDufZgkKRtytPwPfSKUpicuNmF4uIU+QUFZZVpho6fYVPTf7PsDJlHFm32E1hmBKQ+fhsSAeIvc8fqnFa+VIinbvN4kd33xSncUhq3XJxfJrHB3EI7aGsa1g0s5NNlVS/y6MTaRYXIckIVRJDmwjyHFvkuwooTXS6t1diWq1i42XcJn0rkyG5rcwl7alLFStP2W6lGCb8c71dsLmj1Fznee45/VEou0AaAYzo8bL4Do7RHKAzWA2Kw8nm8s8AFC3UTYpERlQEGIpedmO6W8BWvfs4kkDx1pCGrAUQITZOLkHIwKYOU9Mu1I+T1QX1PHSC0Tzey8Mh2vpmZa0S9IDMoYuJ/3tbUg9ZPk7e9uFYTQZip9LNU17r6VnpOWMiblC8RhXGGATp0qiilMLNqab1lLmZtcrm9K10HjUAKU1W7EdwxD9NsHttfGfJPg7vkU+UZtJZKts8Y9Js8UDCwG47GIyZRxZL25O3S36JXsbEkzvIuAU/+yyOrSTF94lDC0p5D9n0/ANhyENsLnsYENwS8Qy+Qd0utOUlm2viPmzVSXtyLBaNWs20Tem4WzEZLQdarXyI4Ra61dTxN98EywnjKqXMIsNCoLN5GyE33R+ALN1pIDbtxtab9oeya3rVRgB+2x/rQgArdHxB9hc1pB3/GyaK8gcYKf0rEhQ7nNn2/YKmF55mFsuOyADh8VQkH/Yn7dcHwzOjDwR7472vTKz9SZXhoNWQMbkAAM/6Qa7sgemWRpH7TYFe99wL51zCWUbk81Wm24G6t/6hnnWpWY2xm1OJu/2dmRTKXYWTNuJPfaEBgs0aEsfHKmR0huYzMgyrbwus0SBmUqJe7/Tu+xkmitNczWqNujJdQaQ1yA/yQjTisPJE4WhOwKAgBx6KY65xC5xhbM/qgc+NJjNJQ3LZJxmO/X1DLXsvscY5EY09aGWzXHCnJblYGZ2RGczclCFhiyAL0j/POytLnnSOW8ilo8n/GnqoGTzevnJBZlSLHN2o5D1I4Zp5yFs6+YNUqtG3w+ACezM1QJjI+blS5WAcGJOzSFZhlKGbyYn9SLNkjzvAzh6hjq09nWhM8WNlsurdC1SNLlze+c9nEkbCMacLon1LfXEn3exb8P+9QIyXrsOA3nmX83KW8/egYOPBfnZativSS1xlI3TzGdTEQfY3FYAQ4HgK/QYEn9mY+WmDj53DrmT0KtE3+nmZaGpUArSNmiNhyRITZpxuXXZyFiLQp2FlXlLdoRfvkW/qw5rYOn/uVxP6dFFxNtmkHjb12RvDjmX1zYCRrbQjQ/xAJsDTZOkqVPz4TJG4bUH3h5EjyObpN0tR5iPW9WCSvWogJ0opfdaYVXZOzsHNXeE4ajuasVx06PTmJzfYh2mOe0Ols8pVJl8WL48m5/30iHqy1gekyHyiafxIHPd+rbi6QCb2x5rDJtRn4Ik2ufTvjTcuNzZxjzWfgYWXFSnsKUlzkpGaV7VmGWRML2S9dyMbktryLZ6uQl0OcfWkc9DGlur1nhMJkqvnDTqOJt3uwY0aC+bZSBuZhe0QDWuIdQ15xsdxIeXRZFzZ2HnU1k6fLOjtcCkE4zGaLwe0h0a3wLpiN181rzFQtBgxGz2ZQeP4zIP2pZH8GRW7OJ8m/Fo492dvRSSQo1HqkdEYsuy06IUAh0HPvBwPGwiPSf42Lm4uv9V5QE2h5hG2fSEjVekbTVtGvBsClJSIm53sKqtkE5vjC1xN5vspbewTYuSBkZvzio6Eas3VHZ6iJ7sX5NpWKGAIHlrUngBGtdzhnzgYY4JmLcfioPtDfKHbeGRnYx8lL4PkNd0b/KeFqPmn2BUQPK9CxR7mhAO0jS7t4HGa1KlahxoMltE360gk+dBy9md/BOx8V4+L1HfhKpumSKFkYkcVYo6mXXAOChw2yJjF+RmZhQsIc2bFaoBNrc/symsAEs6wjaV4bbvnRzBVt7iZO97mTNqFrfloKpkACSsSpHzGi2Y0Yb3bwULIQh72taTCTL7MdDFKFAxDxbvlFaPbCVHQS+knZ8KUyP4+o/ntsrU7vqTe6z6QtkAmwMiNqRBxnXsZ2Po5ICCXcJWNxZYi02b3jiipN2f7Y0yREC4miaho4oG2zU/QQAj3yJJRlOzW2mNLvaQE6msdF8RL86BzuVhp7EvOR8HZ16V2bcWtW1OVsPZQBAHszk4VlNTk+ynSrBzSuS0e7K2a2uAy3BmEuICOztYIXZeg9BWljL8YU46RZpkUi8XhG4xo6lYx/olkU/gWpBZOoMJYjw7s1i5wlpjJz9zXZ2Bcu4VzafBWgqRXikz4tKmUYF3DDlqoV0qJEeC5RaARkU0XcZKLRQpmVuSjqz6t4JMBDTsnGqPNdGTADJG6AgWt1mQUXVowryxgdtJEuytLirgROzCK793UqiAuLQsZg3rT353GGBz+xKcbGw1TS9Mo8HIj4Iz+0Qei0FrNl5v1VNwyiwYeFaetIGFRGMYGdu62m4R4GT2LXkYSwcwm9SqfhuDeEmd9iKrAKPUZrj1KbndtiD381EwcOlVsZh8DedUIKOfIA2wOTjNJriRNCUFO4qb+4yhRw54y4Ig7rCYk9wIHevPzSlXT8s5C7izv5TNCO3MvudCJGlry43WFZEJ/qgCxaVwXrm05MhNZ0qVxvrdQ9ZsxN6mWp/kYNv7BD3MaFbOesREGpyoKejAFAWE1tnptHqM93xRnmJfT54Z106sGTjjIeo1kBiPB3ZObBWBqxd8ZBzvdTQUR3Hxq3OaqClybZX3CW/n1GlBxukJGk59B0tuCM12g2YoOsephtR4OGIV3H8MD/wAbOvZX0uVeownO6lY1iMI1qf4tEwGHayrOJRNJloSJm3Do142o0chm0JhI6klP0XivO0981lApgc4Q7M5THLT3hnR2mOqQ0yOAx5r43DVgMd9DYXX8i7awGTsXqme+zbrk6ZWu8jUJZ0vyAQHjY3ctVwJ1owmcwjTfo0Z7nQHRdMcHdzyhvMzn/EzRzHgEA3N5gCRxjMx8Ww74fu8kDEg32QYxYEWE33K1z7VOWA5K87bTcnbGuGegdUwrxI5FpYQFGpN8vuW6+5rKbQpW2HugEyHfJ1pUqPX/uQ3F46mvgPNpeBbMphPZDOVzB3w6KVKjg9B9Cnk6FMb9cXIP8s5KWe6nIwIIRtR2NvCdgqA6QFNeUq3uYVbr+Wo3z96nn2DTUNe5csNS9b2lpTP6SNGffzvmrEPsLndyU2ui+9bnUXe2b11K9Zbt9O5yzng0BzrDS5TyR0gi26jpFMlT7y2zysX3GEFcJRCSq0mxiz6EFl9GcI5D/M6mApGpK/n8jOBpmUvx1xap87bY9pAQE/DYLZuZYDYPejZJQ2wOaA0iiKzcEsULKNgY7nAgTixIgZ01yZ6aVKCtgiNXJtg9Jjc/wR7o8xldS6cXU+K2AX2qaICxeI6kAAVKItOkS5R+1hdoPEqbivGfo3bK86h0zfSYTr3ExIWSOK9DoH4wNInVrewaPaJTJcwbPphS8aWsTiL5FZBJtJ0GK2NRHNcsIxgQD8/sbMixpwW2clM8+PYdoCeOir69pkdDQasUif20iW32WVJB6kAWBLlbo6JYmExPRWLz6N87eFeYKDOnTYtojEbdXhijbNkuUmbIttQCzKrLOY0IBPoPqEXjamAKa3D2SHFsmua43SPO7qMI7nUdKmTWfDaYFIz0Sit16HRQyJFShrwRP8Nz+CWzO4/PktlqVNVai41b8iCMZjNweLN0q/OG6pKjTAAdynd2mkMQYZXhABPbcxLqqR0GmhPgyY9TKLEPzmeCsAyFMrOGBU14MO51WQw75OiOi45dwd7TuAs2EpuPTf1inPHnKyKIMvNgkSKSKTJ25m7fWkFcNAxNOyTwwE2ByfaEMxdNGIxjjbCvWHIUOAIvuZ3drV/t9Pf6Nj3274hMhTjOOD62X0fTEa6Ep3X0kSc6j/RfvkLi14ZyfwSKcs6IgIrIUUPWxLRMgOVYXwehKqa9ws81eAriR4bFuNw5yj/ecSV1+5V29SfATYHJRQ3qZKXumwxp+ptOKNTMBivdD2J1036zwpMHLP1IviyFJo9kBHsB4JFmFazymSgU8/9S+FFFWOzARStVsSe4CzSKM7B/Bo51ztz602PYIHoSUHEI7EdE67Vir2nMeFyxSUpfU8GaAKVuOtHEDEgT0/paTHecycDUFLMpjhV40i0lhs17WMnAToOgMp9VCw7fKE8ZQp94ECN1R35a7oW1ilILa/HlaimL/AkWgytfA+tMBk4NQNsIMEDbA6Q1ZBlHeWAstP4FnHh3oQhr9wqvZECoQn1djs1283kusUp2G7ppXWekUsGcKyen3NenPPMtdhnLbR0/AYd0Uvhb0OTXp6vS5qBMGeRYtH+33NuD6/wgCbB7Ih4G7HpaTG8AjCnTYy0pdFIow4OaEABz5b/dhIG4x1kzwyrV10SRrnsfFKrzmQ2MCjdSQrcCf2u4xyAHDfEjHblspSDrJbZVjAKV6yw4kC1YkSJdAmcbfpn/Z+xmNPIa8LlpIrSuvhzjjb4RvcA71d+Hksm1gFrjCscVpQPbg5Kvlv9Y6zmwYH+EukyZjKcVnCtAIrUPuomTE/cnUTK5IFMajUpkgZitnIkN0ruHfC0RkGdLNHZd0JLlWp1nKsAVhbVQxY3hvnvvJgPq0xMPX3PeQMdPWYLyKzRJ1phRaPP5hDJTTZbKNe2pUUT1x7ARGKx040Mkyp5DSoqZTIDlcrtr+vFAO3qLQRnz8C9ANgMDmybH7PdJmqnrllvZAPc7uBNI9Tc62NiBTTk7PGSDGxzG9SaHsMrOo5HItlZBYaTyVQDbG5faoOTecd4ekxg2++yIHnA5fbMJJRM7+l5/h6b5rADMuR8ypMBKJpZnbzVe48py8dkOoO9g+o4TFX7HFny5oVqrJFIZl8QTsLPk5d+Ht2LyPUtlzSwl8F6C+5cgNlaM/Ay055lEV0+/6wjXPpYE32prxxGvTF2C5pXppacvYBQBalIdObgtRfdRvTlkHnNlRlF2lI74xR2tRG1WhMjaARcsbHIRqthuz+FFYMit0ObFn1JFt56a3O5P05wkrSJ+YTAtP/e4Wdz+ICy4gnc3P3Z6CFe1SijtZZw0rVmjzWZRkNnO72qHHXyAM6m7lu9NdFsjvDMthhOVy/F7CDKRbbqHe5mUejRL8UGSM9cOWsvmUjJxaEmc9pJ7y0gA6drwf+ojQ7iw8Wb3sS194ki7xPfsp9e2bqZs5SHXmxdqOJ16oBjCpROu0mB0I42BA5S7oZJZ/i0di5LobZkN9ReSnuZEmmGYgmZXWHQ279t7DNIvDxmp8laYmDP7aOXep1QQOboMXQv4zTA5tKwm16HL6FtuLPpU8dLmJy7P0sTk8kBEu92Hr0HmS7JU5bR77cJuqHdt+EMTc6Hm9WMJ8f6BIlUqYBNEj+cSAMQd4W3eW+Ul4qSbb3RLIbWNZTu34G2uXyjWhhmvWNc4TKATs8ovNcQN+sp9rZFAiiYWo8clmwj8iEW1bLGVCpwASQx6V2e262OWWbk/XvuHPYISHlbuiTGCtRLEBrNXmIqE93CSgK2hG4n1VllgMjsz0adIWHhXo3gtOkYDbA5xKA+E4l6bazF5uR8Yhz10d1C702XE1wvGpXGGHCUFaWQxQCxsbpZP4wTnEQBMNyzEW005/k1JDhd2gtKEFjREp6HMhGKwctj8Qy6pWOZt4Dglvfq7QcXhbFTPQet8qcBNofBZnqdXT0HPGedLovbtF0d0Og4HDCKHtBJCwyh1dQVwIHvsAIysTKyVqpYV6rMZHf/8PG6ObvcblmzUJtmcd0JRSBdyualodAacKkNFyysSEVPYqb9/9hLqTzMCiQ87lg/89aPXG92d/8rGGBz+JrNytoVmVI03i5Y0hXizv4pCwa0QZNB+xqavpq1XqBoslCAlN2jJX1nvNEt6XPTrCmXmouzU8X67MzaDZfZq05PCznl9b1GzWqFLhXriplApR6QrJSjeW3bjtfihJVsXEiAREoLH9WowwUaCm4zMHd8+aPeLS3rA9WMQUhxolfNMqmUexByACj271LITsF725ADNBV+9l92tPDa6iyCInDmOtxJSpexl0hvmmPTwWzHLO0q8dzbZux1a/dHCvrjbydJm1qf+AE2BynbNB9JmLTC3v3kvijpI2PMS0j0xzSHvHcLJPjWFhx4FXgjEjn45Is1LgoUOxqN6888A52dxk7zc+bS4QuEQ6tCTCeivnDRPERnjor1DcF9dloBgLwCMj35i105a5Xx8KVUay5dGkWtfuPuXzUrdy3jKEyGrZ5j2Uf0iTIzTWpvbHY+tdaTRp60HdQwjvsa8oapQja6sdPRK/+eJRCZ3bf1e7IAbd0Ew+A9RgvwWWadltcU9kcyuZfXuqOGpJY3gMPKXFPImnrfw6fQfgbY3MbplB3I7H2oZIcYb+itWbsNy/1TZCb1mDu6kjdsaSbJJYtRu0p6xunB1xS4th7EmgUZT2d5ikVK2nT1mqlxsj7EOWI79u2X6hX580bkEMYt7GJNArOXOwIWA0Y1zTsGkEcadYCUZtr/dnmCMp5i9lOJpjojbToJ/Uk9KwxAiLJiywP3hAUgHnlIWuy1Aiwie/+1clNHO8nSLjRoGXDBQEyRC4ApDGZZZicUU2+zg1e8M02ATZ3Pzj+dxCb0JLKf1zhu7UIF+cuejDfA5uDUYf2bb9wJWH8qWKYgnijLWN9QNonHnZbmP46GKtd8Ki27sn6UeQPnNybhcotmtQUthEq8vkTta1eT2NKehcxVn3tfbD+SSmmCDuIGJ7kdieB2/KvIaWrg/gTayqpQ3HFr9eawAoeTUfo+WLxpbnfkMBi7AtczzfI+I0mnWGw1Dw6mrrNhLVbIZiP6iv3cXY0omNWSuQZPZmEc/NEBchwEJ7FPVm1b821Cic3AEjvPtyYEd/xw9LvYi9dMQbpDG56rRwAjnUauUy9Opqw3HJ+ZYQ2wuZ1wx9uDPYm0ZIe4Ca93SxPL38gCVF7JCbxbudFzZE8Leu2ra1+Xk+Ck7Tjr2ACM+CteVxV6RY7gpE4NnRAdxeyVkFVKYq7LmukWKY6G1Owa3wAmkS0RVu4xXkz6JdMaOA2wOSDJRmonkHpNNtpJEtqM3UpACMvQVTtJwhUwumNbIJKNLbJzrhhe9VKvKFWy+QcZoLU2palW2MgCszzJxSFP9etQkPIsiwE58/aD1U55njRRhgvHpzUs542Aw6219aod6eggPsQUSt5ly6dicsBjTUBNiw5TStIE4b6XjZ5iE/0UfIIl6zIpDOeNt+TeyINt6JN61IIQLDtz5YqEPINMsnXb4Navnpr7m2+8y3QGv8zoltDFtrVp8ABk6qcmsoX21rZvo6EDbG5vwJnMwY0YhWUGUlOZl7/RvMmAyzrbHOgjvX1R0lLClC2ox2J6lSXHgq5ZNQzTkGI0LTvRPYPzUgknk2WadKqKvuy/7Z7VwzmY8taloBt32/KWdIZ8DA/7gHo6z9BsDlykYQk0FkRgAMc55FKYBZnHQvxz7qZLtCCjUpy8slaxAzCVCckTJ0Xrvm8lyQyuTAlaq8/IJc9uxfReblSFz+cEMgIj0fMU7gm1vAIOWbiWrj3WCnCN2ahD123CRNwDBdMhXA/ShG5jRcNe5OuQ5uNJz1XxFoCJPGvgWDjIcojQlJqHYZ1GJWO9KXUYKd6KwXLO7Hqhd61ET2vT0DvD0V7AiGmsyV9kpDlJGAdrGWDTinBSS7GfJpNO2bt/1XkkEzmaAWcygCKHL5O+pdYuXxjf4a16jBVjs99UlnO74ZOoZWje1gZPvGANbFy8Z4pHDXhxvXBeetPbsnWly0nkOCuR0OaVTv2UyQGZU5fNNzzVAJuDSKM2sB1722I5RmCZ0eTcJtkAmGQWcLpfe2a4vY9mdsq01qQrGRZjhjGl0QsLW7uuMKrb9pQ05KQe5BWU+PwSB+70LzJIT4qjg6He0ggpcfV2REWp1xaQdIp/A2xu/xSKGve8BjQgjEZye/Bchz3G0pOT0ZS0aznc2kj0uoQ5EDcYzUYGW2utZfJZp6GkT44SfiUdmICctIZVZRjWXcFktJkOLrKXMp2TMMNeJ4LEM0HkmIJVvEHxLk+BHBdJXVtTJ3YWawxmc5i5VMO75QEkU61Ztd6P+HZRDUUKxQYowuEa73GzzgsqKM7bMWkn3p4oVVcHQW/E2GEyRPC2QpB7kPR2BYvFy2gCznXlo8wAKfj1Lqboi0TV3GKivswcFCvXfvVbLCXsuvIVDjvA5rYGGlru4s3gIozFpnXFC7YRyDSp2dHR02J4hX+zszGBtfbDYq83O6MYgJPfMJreGjk5XQaUCNS+rPn7M+t1R87lYeZzBZlm0mTjAScyKZGD6+r+EhUWT0k/WO/9W+3kGmBzEFkUtLhLYshSaTdr/epoGUlNlVi1/K8zLO82af11SJ8InhlTaSKs6VKpak1w+/85x6dH+g/PIxuNrVXBTjvtCI+gnUO6ZO2EeoDC7VMqt+mOTUTYvXAe2JhbLPbwbqRRh5pBqelm7xbm1DpdxdT4+NKWO3lkF2G9bGyXs7gt1vW8JDyQRXOhMkXXQ5LL60twW1nFUCQzmGZ2U02u1KlxUqhzFH5VZ4BHTmGcWzmQTxjgBH8LTnSfOSUwqkvIfrLsqYYjjTpIbuOJvkbDaTZROp8k4jZN4ZMAjAE32yxoNR474a3W1JJhQuXPkxYbVDqV9am2/UXEImtjuCu/4QDNWViM+DUUIPEcWptLTisPazPTXvn6tBTDkeTWFDmPWw6wOViKQ/Brmh1ruOZ2tGWymnwhQAnTVo9x/s02qig8lBPbBkw5Wg3gbXtggCfeD006ulIz2X2O1SXPfpm07bMqoEV20p4uwk7j+HmV3u2vssOHvas/0qhD1WyaT3fvU2crQHJ/1BYtpsdkDGCxEA9kqboBDeORU2eyIh/l3uI6yWpMs2LOzlsho3Dy2X8fjkmhGkh3mIMyKezIYHI4MqxAyXvOCUrYbFnYRjbDG/48wOZgCA07t9EEtzxR75bez3g8GiK98SpC9tw71SZ535M9NI0hSxYvSTQWNiAV7R+ZTyFFVKGyBbFusuDTOYFMhrs0Ql6G5q2In7UpVbjMIWpn6okpKx8hDqwsPBazBfIxwOZQuU3wUSi6SU2+14qUzSa1Ni2Rw4skGEydUTJ1CrstgG3KZIXkhMZXs1bdUoexlTJJmq3k2AjS5sTlcy5hO37qarzAWS5hcVStqArsj7c22YVE1HQ/c8CebHq0pdJEA2wOHWqo5eH14NvbZA9kogw8qMHK6peq5dpdTtIkK4vKU25HGyjYs83O62JnHox284bLyQAlnZ/wG4EMtamSJXyNxGUyUXD8K+YTfy6cSGh1+s4nofNpGHEJmY24s0/tipLQ6p63AY7VTCJbB5JbEdDWdtlMb/MEt1LmOnbLUypMwYjbrW352KSNNUch5nmO7KwVJuuQSrFYyp6zXfB3mbE2l/CkABjtcsptuuQtUrAPRRvxbKRRh63Z0FIOlhWe6YS3QHb0GPbTMnmLVhPXybEMtWJFtLlzbRWLbOArw5h2gZ1J/9i8Dj4Hti/sjWlNA/EUU2cczK4MB/SfZW8ie1pPDwWobcTz0qU17YWxbWnOYDaXQrOBZhabkvi1iWyzx5Ws0GB6XSTAqVTJUzWx8nG2DnzWiCubpddShJZfco/GyZ1ZbLZoUiFb5XezQed0h6aF1M5KSYmLeAP76un4Z9Bl1lgMDbA5ZHYj/YF72wyAeI2K/VSbzFyeHupk+fXOPTnsKJgGV+kOm9Srs3JG7Sg3j1tbcelsH39vIRt0u5C1omgsO8ns8aMglbIgRn22QsG2U1vJ8iyDt4BPBEhAPGJ7mfWcS7bKxXO3g27t93xjIo2HDdioyb+5amSXuuWsP+UcmfQGGb8se8tTW3ZAqUoWmU2ccnWLbQ8+haJgZpiKywXBwXXhD+9V6avUhbYboGEkNo3izskuJFJkuLQi3WzhuF7W5/HPlas7/GwOXcRp7z3i7k+5ve1KoxMr7NZ0SN7ahfUmBACFIxMdbUhVoLKv8bC9nUOAjlVYvX5/Ot0lhLO/zugobDRupuAWXwpyHFABivM7at0x1Dfm3madAFjWNrjQht9c5xY3wOYg32DCEZK19WQjCtgEXth7ygVxVWAmJy2RPS60WHQiB4k/L85OvCb4stZ5OLc7SHp+u0ytVaj7cfdcrwSOCI+bZljSpigdZrIqg9mSs3UANF0AbrOd+HVGvJE6kO9lclGi3VlbuBa7ATYHFE8c04PIxcGbfEWz+fRPenyX5W2XdcOIW5WybbDsdKB1FrHx5AsN1ceYdcmH4YsbEhGaExd0tZG5QMt/SY1pGWAIl4giJmwRyHTBCaYBe9cecrmq/DQe5D2/rDUjV68pIcLbO45wdYDNAcUHHzx+/0MPHT9yz0uf8nRcY3NLNmIBuD3IEFahdUNB0HFbq02REtpx5eOMeOIGokOYTGnHGxgKhGY53CmVVO9ezEZHTga7LPnySs1mcJ7WTjT0YHsDMKSzQ0p9+rCms/TSIt6Y7K710ligqXOuO+CRx/HQAJsDihs3phu/9tuP/tpnv/7eN+Cjj+u6bOPhK04MWXbgrNmtrOVYpDmCXPNa8TTDb52Ffj650RJoNh7orjnLaNiAHjnWdbwklQxu1tkW9z5jUhg8jKuaUk/7Zp9wUu/SBT+/aQNmB5qjdklg/Tm2uhqVJ/ql38UvDbA5sPjRn/jQD372X3zpGxbtIguDKSyajNfZW3dH2TEA2by3M/lEr3YrgKZ+yewVZ2ebpHLJsyIx+dYXXokkHB2k8nBEpjCuiFHunFIDNAxTWfJYDQfphr0fIEixNlbu10TeHjPpVao8BpR6LImB+z4J+OhDwH97H35sgM2BxXe/8/3f946/9fK/9+xPf+bz8GsPA1d2aCa2pQUcsSOWlk//ccsqpK9B4/2S2xyjVquSNlyxmxcsSJAzU2VnmixDkutyoyNUscZryNFY1+z0s9mX6Jchu+yzY8ZLnjAMhHOvzC1YrTIK9EcOoi7gHkh1Et8QzO6+F/jWH8S//Nhj+PAAm0NLpW7m/Oav/IW3/Px7v+hn8Zw7gY9eXwpHciBTnhZbVumZmKu1Lc4JVcKGoAZ5ijN86qgPHNyzuwuu7T5xvZvb7dBlByhS8DMS98rtXWJkr58/uGyNMBvgf0el6vbM8AadZc2JIiEuedu/Txl4yf3AT/8i3v9P/zv+Ni5ZXJo+m//1yw//3De/7X9/83f8wOd8B+7cAR+4ZkDGVHHq1wIDFqte2kaRymiyfz9kOACxQViWZWxKrebT1H7JuW3bbuf2+KlZ0hVR1x2ehJbBbNbqDswHQNSMFXCMvz3beu6kSUC/FB4xmagtKInvnTJwxxHwwk8GPvBh3HjLv8EX4RI2El+qpr7v/MHf/s7f+NC1D3zPv3j9P3vWK+55Fv7oCeChJ4Cb3PbVMwOJ9P3LHTWW/jLZbCywOo+hDTaHcJkNaVZUSkMqXUtBvmHaaKVSa1eSp/3bZXIwyJwkb9zAPbXkUAA7NK+FaPVzTdeBuSTlNSbxv/IrSqS6ntwhFMK2hj2JgQmxL5cCJwZ2CXjKEXDfM/ay3o/+PN7zVe/EVz38OH4dlzAuXQfxf/ipj/z7n/rj//kn3/F3X/FNX/7m+7/ixS946v143pX9Qc5rthKMsEjalK6Bdj8tVsj6lnpG2qBQOPfeyAcHBBzdAVy/gfQEgOvmU+GVZ3iFFvRYUCSkELB57bkEsCPgBR8FrtwArj5luUL3XNnwetbWuHR+3at19bR383jwGvBTv4L/+69/Ft/3Y/8H/wqXOI4u45t+9Hp++Fu+/YFv+ZZvf+DbXvWqp33ay19016vvSPx0TDhWZpjt8qGgdpLJeIna3MwTLCj4Ovc/yhY1utYT1EqpzmNTAvIx8WPMPIGRavmbiJCYK3VbeIxcZhdLGggzjf27sWNFTskOep0VKS6FlHB07RFO168jp7Q8xhU6UTNfKNPwBh3HdG6BABztsHv0CTz4Ww/il3/nIbwXIy4n2Ejt+IEHHvnFBx545BfHR+F2j+EgM8BmxIgRIwbYjDhlnGbcaMQAmxEjRn4zYoDNiAEwIwbYjBgxgGbEAJsRI0YMsBkxYsQAmxEjRgo1YoDNiAsGKmtLtUaMuFxgwzzOwGAxIwbYjBgxYoDNiBEjRgywGTFixACbESNGjBhgM2LEiE9Y/H+RbUMNB4+wGQAAAABJRU5ErkJggg==;" parent="1" vertex="1">
          <mxGeometry x="840" y="309" width="63.21" height="54.5" as="geometry" />
        </mxCell>
        <mxCell id="S5GqEVZqtkomO6TtCBoP-29" value="SelfService" style="shape=image;verticalLabelPosition=bottom;labelBackgroundColor=default;verticalAlign=top;aspect=fixed;imageAspect=0;image=data:image/png,iVBORw0KGgoAAAANSUhEUgAAARsAAAD0CAYAAACrSILCAAAACXBIWXMAAAsTAAALEwEAmpwYAAAFu2lUWHRYTUw6Y29tLmFkb2JlLnhtcAAAAAAAPD94cGFja2V0IGJlZ2luPSLvu78iIGlkPSJXNU0wTXBDZWhpSHpyZVN6TlRjemtjOWQiPz4gPHg6eG1wbWV0YSB4bWxuczp4PSJhZG9iZTpuczptZXRhLyIgeDp4bXB0az0iQWRvYmUgWE1QIENvcmUgOS4wLWMwMDEgNzkuYzAyMDRiMiwgMjAyMy8wMi8wOS0wNjoyNjoxNCAgICAgICAgIj4gPHJkZjpSREYgeG1sbnM6cmRmPSJodHRwOi8vd3d3LnczLm9yZy8xOTk5LzAyLzIyLXJkZi1zeW50YXgtbnMjIj4gPHJkZjpEZXNjcmlwdGlvbiByZGY6YWJvdXQ9IiIgeG1sbnM6eG1wPSJodHRwOi8vbnMuYWRvYmUuY29tL3hhcC8xLjAvIiB4bWxuczpkYz0iaHR0cDovL3B1cmwub3JnL2RjL2VsZW1lbnRzLzEuMS8iIHhtbG5zOnBob3Rvc2hvcD0iaHR0cDovL25zLmFkb2JlLmNvbS9waG90b3Nob3AvMS4wLyIgeG1sbnM6eG1wTU09Imh0dHA6Ly9ucy5hZG9iZS5jb20veGFwLzEuMC9tbS8iIHhtbG5zOnN0RXZ0PSJodHRwOi8vbnMuYWRvYmUuY29tL3hhcC8xLjAvc1R5cGUvUmVzb3VyY2VFdmVudCMiIHhtcDpDcmVhdG9yVG9vbD0iQWRvYmUgUGhvdG9zaG9wIDI0LjUgKFdpbmRvd3MpIiB4bXA6Q3JlYXRlRGF0ZT0iMjAyMy0wNi0xNFQxNzoxODo1NiswMjowMCIgeG1wOk1vZGlmeURhdGU9IjIwMjMtMDYtMTRUMTc6MjM6MjErMDI6MDAiIHhtcDpNZXRhZGF0YURhdGU9IjIwMjMtMDYtMTRUMTc6MjM6MjErMDI6MDAiIGRjOmZvcm1hdD0iaW1hZ2UvcG5nIiBwaG90b3Nob3A6Q29sb3JNb2RlPSIzIiB4bXBNTTpJbnN0YW5jZUlEPSJ4bXAuaWlkOjM5YzNjMWY4LTIwNjktODE0MS1hMGM3LTQ4MDRkMTlhZGQzZiIgeG1wTU06RG9jdW1lbnRJRD0ieG1wLmRpZDoyNjE3ODMwMS1jZWUxLTcyNGQtYWRmYy02NzNlMzAyODkyNmYiIHhtcE1NOk9yaWdpbmFsRG9jdW1lbnRJRD0ieG1wLmRpZDoyNjE3ODMwMS1jZWUxLTcyNGQtYWRmYy02NzNlMzAyODkyNmYiPiA8eG1wTU06SGlzdG9yeT4gPHJkZjpTZXE+IDxyZGY6bGkgc3RFdnQ6YWN0aW9uPSJjcmVhdGVkIiBzdEV2dDppbnN0YW5jZUlEPSJ4bXAuaWlkOjI2MTc4MzAxLWNlZTEtNzI0ZC1hZGZjLTY3M2UzMDI4OTI2ZiIgc3RFdnQ6d2hlbj0iMjAyMy0wNi0xNFQxNzoxODo1NiswMjowMCIgc3RFdnQ6c29mdHdhcmVBZ2VudD0iQWRvYmUgUGhvdG9zaG9wIDI0LjUgKFdpbmRvd3MpIi8+IDxyZGY6bGkgc3RFdnQ6YWN0aW9uPSJzYXZlZCIgc3RFdnQ6aW5zdGFuY2VJRD0ieG1wLmlpZDozOWMzYzFmOC0yMDY5LTgxNDEtYTBjNy00ODA0ZDE5YWRkM2YiIHN0RXZ0OndoZW49IjIwMjMtMDYtMTRUMTc6MjM6MjErMDI6MDAiIHN0RXZ0OnNvZnR3YXJlQWdlbnQ9IkFkb2JlIFBob3Rvc2hvcCAyNC41IChXaW5kb3dzKSIgc3RFdnQ6Y2hhbmdlZD0iLyIvPiA8L3JkZjpTZXE+IDwveG1wTU06SGlzdG9yeT4gPC9yZGY6RGVzY3JpcHRpb24+IDwvcmRmOlJERj4gPC94OnhtcG1ldGE+IDw/eHBhY2tldCBlbmQ9InIiPz5R8CyFAABO00lEQVR42u19aaxu2VHdqv3d18/tbjx0t6eY9ognbJwYE4wIgwRKQHEsjJIYkhA5OBYoJCRiCMJIJPxACSQKykgYlMCP2GGwglAiSIJCgiEEKULEIdCYScbGBuOm3e7mdfd7755d+fGdvU9V7ap9zh1e+77v7pLcfu++e7/h3G+vs2pV1aojZsaIESNG3Oo4GpdgxIgRA2xGjBgxwGbEiBEjBtiIIKLxW75A8bqX4XM/6xX4jKtHeEo+xrH+ZYEAEBhggAhgAOUXqMRFrj/SRP0njv6lfDSAvWK5PIP7YSHn+bh9oOVb9i9+l45Av/JBvO9/vBf/9eaEj3uPfZk008FsRjwp8de/GN/wdW/B33z1C/FiPG0+tblzggvMyJPuQY/3PSy+RsHj2v9vEKQBpxZ12AWxJRKAx4APfgAP/8j/xLu/8fvxTQA+NpjNiBG3IJ52Fff/8LfhnV/8RfhcPAHgI8D1h+bzSQZrZvChNP/7hpt+PfMOMDBr5qMoj6VNHqBJLCTzffP3lr8XmkTm+44ScP/z8Ixv+Bq8/Y2fiTd99T/G33nPr+OHB9iMGHGeKSzwzPd+L37pRZ+Be6dfB27cBGi3/wcSB5IlE3AOtDz8JbcqDIYpACUWj0UaNHj+WfIAJC3PWV4js34dnA0gkXgv5XHn13WcgZt/COAPgFe+Es/5mR/AD33+27B7z/vwrgE2I0acU/z4O/CTL3o97r3+/wDe7RkLBKuwqYplKYXhVHHFAk3AXJqfF+yFytezAZn5yQkzgBmgqoAjv10ClngMy5KI9iftj94P3P0C4Me/Df/uuX8VP339GL8/wGbEiDPGW78AX/+mt+INN39lDzSuNkP6oLPUacQBZm4PcgGNRo/BAhiFgahv4ZYJkWEmHkOyAMP+t6jnIYOE6Qh47APAMz4V9D1fhXd+5XfjCwfYjBhxxvjGN+Eb8TAwZUFZnINcDnphMBKIGj2GNUbJx1OARLE+7JWx2FIr+VgCkKpOAwfkHACD8328A/gDwF97I77gW38YnwbglwfYjBhxynjl8/EnX/MqPI8/YnSXQMStZ99UejygaXCDhYBr2QRavQU0p1GMtsolvpcNsHFQay+idqQZeXne49eApz4HePNn4ksH2IwYcYa4/1l4CZ4KTNdacIlK00r4zQvYkClty1QmIkwSLOyBJ9IAVUFHfn827MQBQgVSvWANjCiaUAZecz9eNdKoESPOEPfcjTsbEbhX8YHQV2QaJStHzhkmrAi0DpA1JW7DuNjRcchjLAJEyAMd+9rJpIYTcPUIdw6wGTHiDHH3U3AHdo62UUrQQgthU1VSfXbiYBcdRukfWMTgWqY2jIPIrzrV1CgvwCZBsRGlyWEz5BAbR2iOssibE24OsBkx4gxxc0Ju2IgnyGbxT85ptA1zqhHQlKQ5SGHYokE24GG0nVr6Zid1Ige0CI2Y7HUiy54ikZ7xAJsRI84WmtQY7YOz1kOk0MsRSEAzCu4d/ohpcJvOqNfhaThuI48PJPLrDXaSy3oG2IwYce7QI8Xg5LARATASCNiAQtFI3H4Yb9aJWxCQB55tqmXSpOZrJo2T5XuFK7wCVJcwBtiMuDXwYvpSyBlBICzCMFFbXlYVHGgGgkArqc/JcdnaCsh2/KA25DlaTXlcd1jb6yAeMcBmxJPDZtSskDyDuU1ppH5Djg4jq1NN6uSJuwYwiIMGP/N3CthM6alhIz5zT5DuJpoDbEaMOJ+0Cfrwy4oPiW5fl3lwe3jr15NJVbzngtGGopIQB2kYt+lSM0DKQWoVXRb2X8IAmxEjThsUFIcCDUWOF7Bp3mPLdKzek80cUgcQ2BN+ydFp2LAv+xg9trVFtzIvYYDNiBHnwW5sZcakU2Q1GfIPMjsmV7WTOGlgaGadorTF6wqGX12yuoxKoTrXQHl89awHB9iMGHFKoHEIA2hJbWyJu3ydEOguUgeCmPq2qc6aLkIOy+CgATFiYlgHGe8pCaZZcYDNiBHniDvmUDcCqvCeIavXQICSQzTUEGTPspPgjhNYoGlK2NSC0BYmQ52n5cuYPw2wGXELNZt6WJvUpxzs1Lrb2Sa4opvYPhtXiF0zmPGAgR02BdOxjPXHlcKvssUg/WONjcYAmxEjzo/VNPrEDECWQcBabXI73Y0tQEMdRuNoLBXoQgOcbUwGIi2Ubn8waSR4o6A8wGbEiO2ajWfdSWwOtv05YS1h0xgFCkDf4sE06fU2JShGs4YD3GkyNpPuzctrG/5ogM2IEecBOKTBQ05lWwOrOoYAk1L1Ste9lSzU6eQlNH08m5rxuPUdVl7EpiPZtbbYkJYNsBkx4oTExh1mtB42zv1909xTL30CVClcHnqyOkrUoBe9HmqN0CnwVvYYFTtuggNsRow4a5BOjcqBzFkDj4cpioBEy+Sc7mB2tjWw51W8VZOxq2CMHkOONuNV25Rt6RCIR4w4P4ypmQ5pewc2KRR7TXw9YAjAwiuDc9RBt8Ji1I+QT5xgtBn3ORwnQMV8BtiMGHE+iMPYsxhaufOHpebOQYXjyudRpK1Ewq2cYWULr30NVqcSD8aW1bC3jHyAzYgRp0qfpCZTLDgp0kS2lp3ZqVB5jXjyefsPFy7Ki/ZDuZPjWQAMtZ473gwV0wCbESPOFsJi03YFh7ucosFICTK51XI4mG/aClpr551ChHK+1xHCFZh6zYsDbEaMOBvW2GqNKn+vsZig67g56w64bK4qeexGOgWSLmlLTYg59k2uQGYaFVmklhhgM2LE+WVR3jwRR+KHZ7/JzloXK42c5ORyS4DUY5H/0mSfDAmzL5sOWX0GXhXLMfoaYDNixFmYDfcPvFeyVlsKpGMe6fI10zqDUd3BuU1pSjXMpnIkRikqczGzWW7FKUjJvEbBxtBrgM2IEWfPpTjSY3jl+23KcVITGNaAYVfK2GoYU7wahh0gJcAtX4fbFCSzojVBaIDNiBEny6Nsb403WsDoe8nI8vUJQEYeZCurEJkyN/ml7KjLl3pgalKyLeMPA2xGjDgjq2nsL7kDDNEh5G1n0q7J7fXGNP00Tq+MZULEftoEwZx4I4ioSzOYzYgR5wQ45UwlXf5t7CXQzgzxJpRpe2LI6/gVhuvsVbjY0WrQVqM8DYbMY+Xe7JN5/MsWA2xG3HrcyVp/UamGPOw9gLEbDzyfB4MyLAHNmdPySthyb7gSfoNhTjavh6jVayyTEddiWEyMGHFu7EY2s3GHtWy0d/CwhdH23jQD4rllMGRyL2J/M6bdC+XpMUR+/1C4SSYPZjNixLkBzaYGvi0P5RxeWWWyO8KbwpVlKb60pHGP/N1UTDGgkffAnhA+St8jRpxzeJYQJ5iBgtVjnDNa18GQo5UYoVnpOaIRr1lCB63ZsEuhOu/Xpoh8wvc+wGbEiJNjTT1jtGEHNrUspDAV6rAR9oRl49ZH1AFBT0/BOgOJ5qZUR3G/a5gH2IwYcQ5Iwx7Q9IhM9nWO6GQqtsOt+x5FlSGb0liWY3UiCkDR2kpwINBwkLqN0veIEecQGXU1LveyKyfNYMMSAL3DOzsrVySDkqmSEnrN6ILtq4lWxzTgZ0HEEXvt4GZN8+Rw5qhGjRhxtmAGh1sqSbMYpbsIdkHmhHtVIGVdIVmKt6ZX6DTsmKbbJr36VwpYljPYKf+taQx0rsXY9T1ixLkgDpo1t8o8ilvdJawMdTx9FYjxwhzUGhgyT0uNRLSeFQbqNFMnTbJMrn0fQ7MZMeJcwMYwELkyxWvxVw10QeVG6jH2VFdAyACnlj5YvGCOAYLtcwT2Ee4eKcOW3K7hS9hFPMBmxGmip9vO5sN73SIzfG+bOAXrCqzy2b0dTnCYS6P/5DZdsszEji00KZXjPEjOFbE2o+a9DM1mxIjzSKGYAZ7aPhkg9sySlR1y1rPUb/E0HApW4WIBGaJ2BityffBW9TaDmh5q2L4eFukbLd3MY7vCiBEnZzkcAY7aOOkQFnJ0GCUYY9Fgyr8xAEzz15OPYETtzqguSJDRmjy64zAsYicVdFImgqhQFW1pgM2IEWcDHKmJsHHM4+DkNyzCMoQCXmlhMbBAJQ90WqMfLaCw6VpuNCLxOOytYiEnzYMZ1swA7XApO4kH2Iy4FWkUYZo1G88GUzCFLLUQcbcnctgOtSlKfaisGQ2VNKqzQkGCgdVbMiPOtThuPLQl7ro3q6R4u8v7sRhgM+K8VBr9lywmrU1lhgmgbMyrvFHuAkgz0yhre1NamEu4MJM6VSCzWsYyKSX6FmHZ8xpmZwyC27GMprIFDMPzESNOAy42pmPcwPEeHPLkTFFDe83MKQlTAllLUcKcdsCMJkz68JLToOdWm7KvxXj2OIpceWyGWoC1+g51BjB5pFEjRpwtPv4wgJvAjceAzHuLKGZw0XB2O9DMUri6+AFIeyGYJ95LM8x7FkMM4mNgdxU4ujo7/5XDXQ592v98BRrDJJr+GGgh2jbe7V8AtIeyTKGcNcCunw0vr1duCO35HA+wGXFRIn3Jn33OWz77dU/7nNe+5OrLrwDgzMdgZuaUQbQ/1bNYQonmOzoTwKCU5r/XZhPeswsuQgXTbo8AnPeTR/oxACKaD2GlEVS+J0/55iffi9fixYR7nr8ca+b5/NP+PzQ/9Kxs7FFmX6umgiL7lIvBN67z8bUncP3Bh+nxB28iXQGu3mW2S2ZhyWkqVJ6PDHsisGNi7KZ4ZCpL0oDL+Vlmh1ENzWbERY43fv69X/pd//CV/+jlb3jmpyAxcF1ODRKAyXBzs5JN7q0tnN89NUDfkdyKIHk5tQTgMQAPAVd24qi6jlbQP8dwFmLv6c3VxLjrxnVc//Dv4eO/+iFc+xhw59OAoyPDGqTO4o0RcMdlDy3bqKlfgtpFpcTloGeGnLdzmWOAzW0S/+DrX/pd7/gnn/p1uJ6B9z0yH8IjBzBaPaI1lZH/C3KCTSAjHczXFFDS36t8NGdqosajuQWm3R24+pKX4NnPugcP/sIDeOzhY9z1jJnImIoWpeWwK6CB6M1xjNcr9lk9iDVwkPkZcvQYcua3RgfxiAsd//ybXvr9X/udr3k7Pvgo8PFj4GgnQMZydOilSLZPn6VpjG3DPcEtmCeDakHjSwUx8bwsgUa4oUsU8JZJTTeAhx8H7rob933eq/Hge34V1z52E3c9Ux/2Zt2vta7wcFl6Exvgkfjo4jLp0jxvwWy6fAnVAJsLHl/4Wc/4c1/7nZ/6dnzgUeDRCThK5qCjbdNVrbRpOey1pJLg7lXZymTCmzP3/2xdtHiC7tTjDhUQsw/XHgM+6S7c+9oX4sM/95u4/gRw9Q7z1oRvTLd/jhZSZUHGvnQIYig7l2vDYg4oS+D4N6pRIy5U/Nu//ynfi+MMPJrng5SdbjRCo2KSOKDN7td8inQp97fKqTIOxKKlbOrS2bye1DKz5rHLz6Tl5x59DPSc+/C0+z+Cj/3mozi6Z98vxxOQdstKXQkitnGv6C12Vso2F6qfc4TmVY4S4OeoRo24MPFpL7vrT73gs575x/D+a0DKYpLQ3r6ptZBzhd+TaDLytu0xE+NARdCiSW2UKRRgWspFTL7GQwl6UrG85+ScXAaOgTufex8e/q1HMU0AdjPgZFEgooV5WEZBNtOLtBbJcNKC9+u0aQV4MMBmxAWJr/my+/4Gnn4F+PAT81eSSCcwd7sx6lQicywy8NbJP1m7zZopddMcc5LkGky2YnSGciOHANA8mcfZCWFEAA8BeOImjp5xJ+54OuGJa4yn3E1IiZsqkR1tILv9QGIjlqcpFqTUW6DHJ7ukHhkcYDPiEx6vfPFTn4/jyd9RIgd/VIdbSVt2zkHfElm3y8qSjm6F5YVBiZluEo0lqovNYV9yt23z/SZ3scNRzMDxTeCpV7G7+6mYPnYNKTFynscZ5qyLjHZj2Q17K3GtRw7ry7NaQ9rCdmikUSMuUDz8GP2RHiAqIsL8a5N6TD3su1Yb2XQyHAaiSuX28ItUSIGGqY5J8VfmKTLtUqwr8nJw0kNK8/tN1WBdAQhaYCirgD2nwEIeycxzNZPl3K7Z9V62d/nk1wazGXFxQm5Hs9vSqq7h9c+fxCwla+agPDO9PpxSH2Zq/TXN6LW330SBjB3h9rrwbFpX+v+pAi4zI0/7pum0M701hsVIQmXd9pAEYKGj20Tb8uy3O6jGwmpibws/wGbExUGbJSUiBvjYVKOs+HsSns9aPXVZjEldvNu40nZExUud0PkkM9rSvcquZLMLm+9Ni0ILk80Va4hMOErc9BCqt26GL8kplHW34m39tVlNCHoLxGWLATYXPWz6IEvJoWi7UZdxm/Gc0yA7hEt5RymwaF3EZRrVaDJYchbMc1ywqy8lcxMDT9KRi8zultkfZ8rAEfsT5oqgJf13Zt9lb3MmCp/JwHQFgE8JYgNsRtxacjMB+VgItuaEbEYsTyjIzkkRjIHYCBSpFXIpyCNKNYoncZIFwFhXcNVNLPMdc0I5zwxneV5mYJqfIhGQeT+MKsvf6oBbm04sT0c2hQokpHCtLjuYa5z7BKiOcYURFyWs1Z1NWzaCjCsWs/C2tLzeKU0zAziGKlM1h1AYDTcl7KQBgyzIZZHSmXZdCTJImtExgXOuAJEyg48CVhJliwIDmVocbkhItPuKO6THjjUEOs8AmxGfwDQqmU/y1k/oBqG48d7MmpVUB4hJO1/VEQjpZG67k+1jmeVRjahSNBny/RiqiQ1EF/XCuPaZ3f4xi8xDJutyL59lJ85oF0WMZgVo1NORuVcMw/MRFy2J8rWOtZ8SB1i6UzX7aE1KRpGGA2Ps4ggiHCisnHUNWc5qqdwmaXRwzYOdChZxLeqUynoi0x4UAU3kM8wmewsYjQWx+tZEWta2J11OvWaAzW2CN6fXZJKfM7gO4yJdUpPhcLa9wZwkFs7eon4s7evIVsBYp0ySsRTwacpJVsGdfUfL37Imgq4lJ/nsRf05YbVRutF1rEMfGTzOpnMZl2911ACb2zvHMgfYEwqskmm9Ykw6o5pR0DacyIVMxQiYKOiJQVsCqq9jB9X13JSMsp6KrEObS5OKaigUBIvYWOXwBuzubeAMUiXbtMfWk9jzI5PfMPpsRtxWrKcOZ0pm4ownl9NATm5RJhdlKuX5yVTMytjPY8m8wTqVe6PRkkKYtZB2dSXg6DtZTFkKtZeXNOp4Aq6kDZ1G5Gg5HuuxWG4BhZzHyuJyW0Im3xKNatSI2wJnsnN7NSmUNGtp1kXKGSgxoe3115dRhCxWGngdvjKnsBWwOu0t+oWahdvZjDSIxr4GBJY8Kee87HnyFmpTewl4bagyaoqG0MrluBcHhNEU+lTP4yUTiQfYXHhAEQCRTfrAHDf1sddDQ0sawl5J3WMygmWoU5OM7iI7kSfncUzZu9mPyxpk6tezL6iK8W0iUgDA7DMQRNgYrNuVj8OWlYhLFu0LZ8NqnILiSKNGXKA0qZ6iHCT/QWqlOHtaAEbe4mUXMTv2ELZXppZosiOIpBZkyr/nwLjX9vqohd7GlKbnEDi/331D33LJkpcNcqzX8Np0N7XYaAkdoWUxbAfXL2kMsLnQWCMHLhFMYUenRfbnZF0BUjtQ7NeMPYQqnefg9i/BULbh5pYSSIFXbYaQz826B0iNcRvaMC+kkkPlXh+kL9xATYqrdImcy+NchgYGvVEybuBxgM2IC8hspDaSJ5FmzKtb5MFTKQ5iTxmvVGKBxprutgmCo8skAZCOH3JhPmUwidgAonT3Y4fEkHnevaUGpYQ87WeiiPajC5DrV4KqFHP78I1eLbVp6B5GggMipjDYzFuN7QojLmaQqOPCKUcbMFA6TjYdvhAasmEataW1U45BUMIuVp5KyBWT2/XuLvfwJs3cyFawHAElMmiXiFFfztxJvMEyGWTWA3vylUmB3P3ecOatvO+VWD2YzYgLx2zsoZO+Lqp7LOv/J6/xw96uLZiQY0+XBCDJ7y0jBJM5YbYfBjoXUSbsQKPeNkbAHCzf4/2QKmcQLRqN3RqjbH9g9ox7pMMpiTtFsCZVsoKyKtbJ9qZLurhugM1F12ykuOD2q3iL4uwn2x7SecCTzU6SiPsr5mMd/LJuOCHBlLxGPWVv4SUStFjlNRQDy+MItleLWKmACmvzUpHVkbRAhsa7bBc/OK/PSkl1iQRar2PXpWNoNiMuZhYlGAhJxz72NRnbDw+reuY27bJMQT2OZxMK3W2s+mFyy7psdzLBlM0Bt3U3agR0Rh2IErK0xbHWm6YfsWE0vGR+shGvqWdn/9ICQembHcuKATYjLmoWJa0UmqoNkWpHbQ4iGV2HS9evcM0jW8GqlneOMGtPcDLVLrSVLp42vEmTQrlMJsd6EmmJKGP2s2E/i7RbFaRm45miy0F018oHWu5iLwseMcDmwqNNPUXioNcySdTAB1N+Lrf8nS4tk2EPakdUlKrBMJzg9BVB2B12dLr0GtNzj8n4HIIzLzr3bq5GOcORkSmhnTOFMUKULqRSb2/GFDzNZxvSDrAZcQHSKCbTswIzQS0AJ6Xltp0dm4nG+1LejqdWO/G0IPJ0kySqZoymsSQcbejMTTUl915jHyMXpz4BAon0XKndAU7k45C07rFbbVR2ywFWjhhgc/sRm5KiTM4iamm7kETd1THNanSaKGUxZuWVMZnd4Oyt882mSc/rk/FADG166Jr0ejSpIAnrNbmO5BRipvMM3Z3dHKRjIwbY3P6AY0onjeg7s5LS8KdYgGRAApjK5slmvsmUnckZqlST4RPcNQXNCY4mwK0mA7QGX9Gag1JR2+1zp8D+Qbb92Oo/e/Y4vYwv0q9HDLA5kFzKLECys0XZuQXblKXUe02zX8M0PEVBjieLChMms3bFe17oeSfrOl7TpZkVJdKmMAo0hcNf3Y+7q4AsZzuJ9WyU+rrp/M2spSv3Mnp9NSMG2Bwuu0km3YBp20/CnsFhDkrgtb7AcBbdeUZa9nEkWDn4IE9+DTEUWgEwOWKu2KEL2wgo7DPyBPC0h8RsrIrRZo8EuKMKoVNnr0g2YoDNAaHMkvqUgyttJlT9lpZ8wdsiibQopnK4sxmSlMIyaQGk9tCQfyhBbc7SHNLJaUC07zm1paDme7IwzaL6VGkmSIC5HI585da4vJ1/t+LXunU78gCbEU9aCgXRg690mZ6/penSrRPgaEFGVbuyw1icpXCq95+drZxO13Ij/EYziDPzyYJ1JQ2GzBnEvN+1S8sCpmR1mtRa5ni6jrem5ZYwGT7FkowBNiOePGaT9yt3y5Gq2ka57Vr10gKNNTeXk9Uz06igYdYDQDjzkcdi0OYl6psz/EqVPYHy3/LibQyay/mTSKNo76ZZAW7/dfYwms1+PLSEkJ4MPYb9lG6AzYgLhDUstgfQMtijNhnY/hbSt+06VW20EDm/VDvU5IpfoaaSp2xw25SimIzj1tec9vk9kF0DsxN60n7QkplBStTO1byGzMZJaVYVMZcnRY9hp6g2NJsRFzOLstsDsm9WriYRoQ87icPO0J4yDfhwABDst724prs9c91oQ5wY9CyMK2cw5nSJkpCJ9s/BmMGHUmPDmURTn332ZhzhVqVLzru25fgBNiMuErMhX2wwqQslI8qyr73A88aZ2hPieRPL7Q2ImEzUjAdfp+GbMyrsADqqZW3mCVSYTNpVxsXBc2ertwRSFt3idIkz3D7EZiX4WFI34kJqNvITzMbDsnHay8b2fwYTCTBuGVvaQ6ydJhtZW1DI0YjGq8a8RmbRK7PXZRjarY85+wZhBkmIRJ+zU5S7lemS8e9qtmHK3h6+xCnVAJuLnUehtcIU+k1jhA7TWWx2YitDq3IKjMBMATdgx3hLdbQk/+TZkQb5jzQvqstlaDOpVUrsefSoB1+oSs77AcwdNcWr2hVwy5iMh/3R+t1b9FoG2Iw4O7OxTRnS57eas0i+Xv6NhHcMoBr7irhMshLkiL+R8Zad9kbQQUydvVV5qoNIPPfVzAtZwKL6Vr8GU3YX/p3sDZHfKi8ZL1Uzkx5s/26v5CUFnAE2FxtruJaNVeet+SRTp87bVJ3gMBl5YrzTSfCNq3oAOf97aUJMuwV0cgZjAvF+DIHE2kleHcCcSZEARuUNbFnEeWa0HjMJzBEVyFCr3wzNZsTFy6JUyuAZV7EWhsnqO8563qZdFrHwWytekzY3h/MYSoyWDYJp/vI0AwtAgqFxYT8pmZyHZvBpAWiZsNg39qkKPJ8j1niispfRrWSdVtMZadSIC8pwnCVvrFv2l4qU9AVG23FMdtw5Bx9+ky7VdMxbpERoJ7dlSravVJHSm8Tjl0V6vOxg2T+8r9GQgptJfT07XjWnvuTcrt2Vgm8lOtY40FvL5VzeMa4w4mKBjB0hsDNKisnkgBUZVuN2/a6BBmmdRjlHTfO/JbhbIEz5m9WmTQIxgWslLGlmwHpWi5Aq2+F8DJqO97qNzGjSOaRLDmuR8pZ8ecronNpiYfmZnDUojVUuIy6UaKO7e3M7p+QtloNjvksUbNT0LDhLpBZwFGmRYJJaxlJHIPZ6E5eOYLVBrrzEphvFZGkzCGGafWwmhSz1VVCbUW5OlSCarUmvgrEgY/tnyEmfys/LyyRfFw2wGXHBRBuzSVKCjLFdkE5R8hSpcrYtV+d2W4I9harknoWGs5t9jcuA5ASS5fZZFGY1usDaB8I+vl2yXXpxeJ4R40mxpHK6Jcwqr/Y1FgMzceGVr8uvgZy0iMW/WSDi1vVPbTMeYDPiQjEb6Rts55oabOJ4ImBL1y+ZuSrPHa++HtmMl2dNRjCcuoc76xPKBJrTnkbMhpObAEC+6azu1Wmd9AxOtILfubNml1vAacAEga2yWdzJxkNMOXrsH3us3x1xgUSb4kon/YXJa3SzIwoUrD/JjglWCvSY8jjH5sDOwJSP3bSL6ymdTHpF/kl291YxKB/Plao8gxvrDREVj3l7amKH4oXERI77qh2qV8bpwSqvBt+sxLXIUGO7wogLlEYRlpEDgjNCTOzsXnJayRzBlqzq4A1cTvoLBWTKrTvtNRnmrBkXJYALExPASPP3zieTQGCyLoTHQD5ezqLyQjbpmOmy444nV9FkVPFIdgXAtRt2QaNp1DbA5TIqC0iXTLQZYHOB44nHHnsCeAyYrndkzZYMQdWIpVi7A+iIdLnGERsQzWDlpaRSHqNoKfXlJMSDSDQDDJap7fpWymNPszEwzH4qISwrqsC6TubshrI9MjZDZNMIyEBoci47DzxnD5MmLZdIDILSmI26nLG7srvy7Gfd+Xwc58L7efVAn4ianCoygHTvs+57LvI9wB032KQarO+YViBA2+EGBvITwPEjjDwRdncB6Qr5OQa3QsM8JEmQGxzyUsYuGg4iIWO5pAUJuTCT6cZel6F5kV6yqGDGKliLw+Vy8GxengWANEpV9NuV368lJp1NMUKvMCLnobnd6oBLuvf7soJNeutX/Im3fekbX/4ln/Hq57zuefc9ZQ82jAw3/1hlFXTOoMMAp3R0dITHCLhPtpG5zbFsThW5JfL8BHDzY4wnPgRc+4098Bx9EoXGLllsZACBqFSXGMQ35/Of6l2brdjhltrF5cg3hN1pWnQZ5Z1ZTr6TEs6iOTPJfQ3YmV15MFfPNuIZoqTAp2JDsBSUoDUgr4u5Me8aTn2XI1790md++g+968vf9ZrPfNkrgGPg+jXg8akM2+wu1It9PAM3502XfeCi5qveTpLd04Erzybc/Srgrpcx/vBngOsfBY6epsXZ6itTUp1FMyl6C5dkaL6ds9yUIE+baEok2u3L4DzNZWwxeiF1mUJRQE4+Q1qvyTcXWJKbZcgQPwjLZW8/HhlgkozEabKORtOsxlN56nDqu1xg8+f/9Ev/0rv/01vfhTuuAr/7eyfs/PrEacTnRrn5JpAf3wPC1RcQnvcXgD/4CcZjv0O48vR52V0WuJMqbaI6JCn6c8oAArMYHxAKSu103jMWnm5AT58nDTB8UwCJFUzQjmqYeTGlz4q0yLqa2omNxgII5uU7vwN3QSm1YjTM3kC+xLhzacDmJZ/8tFe9+7+87V0gAO//A+AoXVKlbmYENx/aM5pn/RnC772bceNjxLunzjacy+nYH9zFb6Z8vf6XWaRRnsXn3ABYemVot+wGL4/dnGDRDEPS+2YSFCLPTYMtmbO6jDtDSW1Syo6oXLsO4IjM4nsp2jjMcEFwaDYHHD/y/W/+UdAdwPt/fw80lzbyIlwcfxy48gzg3s8Dfv8/MjHTHgwYnGWPTgITq/b9Jd/I+9mmvVA0A9SuisrFsHx/AnfC40bkKNiJJdueT8RifL40Ny7Uowxslu7clGJdRDmcGgXOWy5avybYEJvdfrTidSzTrltifzHA5uLEl73plX/l9V/8ulfjQx++ZEBjSsswp4sIOH4EuPNFhLtekvHIA8RXni4mBvVj8XzCqP55Tl/qSUoLu8nHc0k8LSyHs9NoWLQXL6WdC4QF+GoH9bEonfNCihi6HUcUq2o5m9pZpqZ25q0sd6pQ7sIICtgUdxS3ATaHE2//y6/9auDm3jcy0SUBGQkwjHACvLCMp9xP/MgDDM7kg9Xyd2Exvtdrql/wtKRctduXBWuRSmnUPid2R0n3qZKS5Wl+/qXfRlb/5VA77DQ2dKeAWhBhRWVboqZ2REE+nq12wV45s25mgM0Bxu5od/XTX/Pc1+PGtUsCNEBdPNewBCkyiOa7fAO44x7Q0d17S046QtPPT2g9hCVjyUX8Te3zhhajMGto5qY+lo2DcxUsTyBkMBGoFA1L1Yw6q1NyK+Yqw0H7UiMMlHjd0V3C9VgFM9l40w+wOZy4/1lXX/jMZxzdicenA3+n3B5gwKnHJsdHYQLSVWB3J3Dz4zPYQIsVxhNzf0efZr1ElL2VqJEFi/LWBsvxabH5Uwx5ci2Dl5bC2a6izkMJUy4xH8YrKZC16FQCrmPvSaTTIffdSPZiR9VgLssQiA8vnnoH30tHmZAPidUYa7heXRZmWlDd6ksuMEE74dHSJcjOc/M0351vLie1NuTllkElEroLdConp9glk6mrf/e9/vvXJHp96vI9UhMaFiMhUqZEGjMbr3dZmg6n532y00uZLPaKPqAx9X1QCUXGdHhNVQHI9OQbq3YS6/1NIkXipo1W7BbnAjJyRIFbI/ba9cum5isNv+Rq4T3QFE8cKqeWEpj3zd37xmhhIwr2x6wlqZKXgdsUiXuXkkLZaiFljn2Q7bdh01RdjQcHszm4yIfBZORJyY5qKfURkQMApgnEelJmc2ufWgbFpbrkDGHaUyY9akgACx3px+dsmvqkiLHYUhQxWvsOz7qUaNtlonmMAo07qZtROsSNPHLIulpNzmxTlZ3EJS3Ftcpm4MxIDbAZcTHx0uH1TVca9HI41UhiSt+2lFJPIy38hiUDkaeLFmbkWpHalZS0+BRX86tUdRm1wqUCQ/GxKa84Qe2t4gxOtEyOi7dkzUwbUtiB8tWdTtymUc2UNzeX003dLpsN8WUAm9v4HhLNhBpjFeu0F+YH9jSY56LSvDIviuOsVwhI1mKBRq6WIbNQTlnjpbqgjovdBKW9kfn8uKzyjPKcxwJ4ZWNfOwBvW3assZV62cGHRBGQqPLkLbowmxTkwrpNqdsAmxFPbprkmViZT7g6AFIkcISJiHV42xXyBGBuyCPhsqdOSeEPIktt1vOKCUYxrbgHmDxj1WLIy9VaFFg2YMI4FDqDRuDWr4YCJuN5BxtAUb060KmUe6mzMUF3ZqBcrBpp1IhPLIPhPnevdVhrC+o1bUj2YlbfNtYN8xHPN/fibzoSpuTZDKwmNGX2quMYf+T55/YvOS+7uynpA1icCGfGwlXbEUOdBZhkecezApVlbm4zy4bhbPzt1F172QEqxJPfyM3eveFnM+ITyWQylG9wNI4MKHComw7s43qTg0VjYfIHfCR7kOkPxL8r+4j5B9NuZkM8//9yivcgw7XxjkSpmpCFaLqAafUcVjYThvF5sCpMxlPWb1sWxmDkLDJpjp2BIvEYFRPl5Qia9ySouet6McBmxJMm+FoNBmISmrVLngQL6n2KJWCY2yhD6yous0rl2FKzZgCG5Sgmw0rMLaeXxOuhUk9i6/RtF+1NWh8K94872sn8n0R+agRy0iJn1skr4tW9emYBBZvslK3U1knphgfxiFvHZNSBpFagrdpGFpYO7AutVjyQy9zsdKGbWkmAmkTKlPu3YmUynkVtVwxJzoBEvNd2aBY3WL1PoflUwEJnmV6c4yjLiGKQBSBxsJ4q+A2pt5uF91cyGnkwrsArWXCTQg2BeMStYTK2iys7nF4eaOiUqCEjdh+TzdCorekqhpDhblkgo0BzSddI9800PTf70vZ+jCCpTSX7NkEzIiF3idsmFs4nw3E4GoxkIc6Zb+4D0E3WStaCyTY9nQgBk4lwe2g2I85Xi4mm+WBEV4sUZKYFA09eDj7BJB5fKZf2NSXDZuSaXfN9BGPlKQy2hJixt/5kSOGaieCXceS+8hOCDFoph2xznakMUWfQnFhYLlvthVtc4YideNnnJfawGWBzS0DG02IMx1ZCb0Kz+awettwyIFuytiKE7ZGv32d5u5m4bjwRpBcmBGux6Y8DMhAbMOcOYSKaqzFZjzwQBSLHKS690GjISWuos8tJ7nwiD2CMlegmUBmAc2nBhm8tyFg/3M7tU+1fJS0OEDufZgkKRtytPwPfSKUpicuNmF4uIU+QUFZZVpho6fYVPTf7PsDJlHFm32E1hmBKQ+fhsSAeIvc8fqnFa+VIinbvN4kd33xSncUhq3XJxfJrHB3EI7aGsa1g0s5NNlVS/y6MTaRYXIckIVRJDmwjyHFvkuwooTXS6t1diWq1i42XcJn0rkyG5rcwl7alLFStP2W6lGCb8c71dsLmj1Fznee45/VEou0AaAYzo8bL4Do7RHKAzWA2Kw8nm8s8AFC3UTYpERlQEGIpedmO6W8BWvfs4kkDx1pCGrAUQITZOLkHIwKYOU9Mu1I+T1QX1PHSC0Tzey8Mh2vpmZa0S9IDMoYuJ/3tbUg9ZPk7e9uFYTQZip9LNU17r6VnpOWMiblC8RhXGGATp0qiilMLNqab1lLmZtcrm9K10HjUAKU1W7EdwxD9NsHttfGfJPg7vkU+UZtJZKts8Y9Js8UDCwG47GIyZRxZL25O3S36JXsbEkzvIuAU/+yyOrSTF94lDC0p5D9n0/ANhyENsLnsYENwS8Qy+Qd0utOUlm2viPmzVSXtyLBaNWs20Tem4WzEZLQdarXyI4Ra61dTxN98EywnjKqXMIsNCoLN5GyE33R+ALN1pIDbtxtab9oeya3rVRgB+2x/rQgArdHxB9hc1pB3/GyaK8gcYKf0rEhQ7nNn2/YKmF55mFsuOyADh8VQkH/Yn7dcHwzOjDwR7472vTKz9SZXhoNWQMbkAAM/6Qa7sgemWRpH7TYFe99wL51zCWUbk81Wm24G6t/6hnnWpWY2xm1OJu/2dmRTKXYWTNuJPfaEBgs0aEsfHKmR0huYzMgyrbwus0SBmUqJe7/Tu+xkmitNczWqNujJdQaQ1yA/yQjTisPJE4WhOwKAgBx6KY65xC5xhbM/qgc+NJjNJQ3LZJxmO/X1DLXsvscY5EY09aGWzXHCnJblYGZ2RGczclCFhiyAL0j/POytLnnSOW8ilo8n/GnqoGTzevnJBZlSLHN2o5D1I4Zp5yFs6+YNUqtG3w+ACezM1QJjI+blS5WAcGJOzSFZhlKGbyYn9SLNkjzvAzh6hjq09nWhM8WNlsurdC1SNLlze+c9nEkbCMacLon1LfXEn3exb8P+9QIyXrsOA3nmX83KW8/egYOPBfnZativSS1xlI3TzGdTEQfY3FYAQ4HgK/QYEn9mY+WmDj53DrmT0KtE3+nmZaGpUArSNmiNhyRITZpxuXXZyFiLQp2FlXlLdoRfvkW/qw5rYOn/uVxP6dFFxNtmkHjb12RvDjmX1zYCRrbQjQ/xAJsDTZOkqVPz4TJG4bUH3h5EjyObpN0tR5iPW9WCSvWogJ0opfdaYVXZOzsHNXeE4ajuasVx06PTmJzfYh2mOe0Ols8pVJl8WL48m5/30iHqy1gekyHyiafxIHPd+rbi6QCb2x5rDJtRn4Ik2ufTvjTcuNzZxjzWfgYWXFSnsKUlzkpGaV7VmGWRML2S9dyMbktryLZ6uQl0OcfWkc9DGlur1nhMJkqvnDTqOJt3uwY0aC+bZSBuZhe0QDWuIdQ15xsdxIeXRZFzZ2HnU1k6fLOjtcCkE4zGaLwe0h0a3wLpiN181rzFQtBgxGz2ZQeP4zIP2pZH8GRW7OJ8m/Fo492dvRSSQo1HqkdEYsuy06IUAh0HPvBwPGwiPSf42Lm4uv9V5QE2h5hG2fSEjVekbTVtGvBsClJSIm53sKqtkE5vjC1xN5vspbewTYuSBkZvzio6Eas3VHZ6iJ7sX5NpWKGAIHlrUngBGtdzhnzgYY4JmLcfioPtDfKHbeGRnYx8lL4PkNd0b/KeFqPmn2BUQPK9CxR7mhAO0jS7t4HGa1KlahxoMltE360gk+dBy9md/BOx8V4+L1HfhKpumSKFkYkcVYo6mXXAOChw2yJjF+RmZhQsIc2bFaoBNrc/symsAEs6wjaV4bbvnRzBVt7iZO97mTNqFrfloKpkACSsSpHzGi2Y0Yb3bwULIQh72taTCTL7MdDFKFAxDxbvlFaPbCVHQS+knZ8KUyP4+o/ntsrU7vqTe6z6QtkAmwMiNqRBxnXsZ2Po5ICCXcJWNxZYi02b3jiipN2f7Y0yREC4miaho4oG2zU/QQAj3yJJRlOzW2mNLvaQE6msdF8RL86BzuVhp7EvOR8HZ16V2bcWtW1OVsPZQBAHszk4VlNTk+ynSrBzSuS0e7K2a2uAy3BmEuICOztYIXZeg9BWljL8YU46RZpkUi8XhG4xo6lYx/olkU/gWpBZOoMJYjw7s1i5wlpjJz9zXZ2Bcu4VzafBWgqRXikz4tKmUYF3DDlqoV0qJEeC5RaARkU0XcZKLRQpmVuSjqz6t4JMBDTsnGqPNdGTADJG6AgWt1mQUXVowryxgdtJEuytLirgROzCK793UqiAuLQsZg3rT353GGBz+xKcbGw1TS9Mo8HIj4Iz+0Qei0FrNl5v1VNwyiwYeFaetIGFRGMYGdu62m4R4GT2LXkYSwcwm9SqfhuDeEmd9iKrAKPUZrj1KbndtiD381EwcOlVsZh8DedUIKOfIA2wOTjNJriRNCUFO4qb+4yhRw54y4Ig7rCYk9wIHevPzSlXT8s5C7izv5TNCO3MvudCJGlry43WFZEJ/qgCxaVwXrm05MhNZ0qVxvrdQ9ZsxN6mWp/kYNv7BD3MaFbOesREGpyoKejAFAWE1tnptHqM93xRnmJfT54Z106sGTjjIeo1kBiPB3ZObBWBqxd8ZBzvdTQUR3Hxq3OaqClybZX3CW/n1GlBxukJGk59B0tuCM12g2YoOsephtR4OGIV3H8MD/wAbOvZX0uVeownO6lY1iMI1qf4tEwGHayrOJRNJloSJm3Do142o0chm0JhI6klP0XivO0981lApgc4Q7M5THLT3hnR2mOqQ0yOAx5r43DVgMd9DYXX8i7awGTsXqme+zbrk6ZWu8jUJZ0vyAQHjY3ctVwJ1owmcwjTfo0Z7nQHRdMcHdzyhvMzn/EzRzHgEA3N5gCRxjMx8Ww74fu8kDEg32QYxYEWE33K1z7VOWA5K87bTcnbGuGegdUwrxI5FpYQFGpN8vuW6+5rKbQpW2HugEyHfJ1pUqPX/uQ3F46mvgPNpeBbMphPZDOVzB3w6KVKjg9B9Cnk6FMb9cXIP8s5KWe6nIwIIRtR2NvCdgqA6QFNeUq3uYVbr+Wo3z96nn2DTUNe5csNS9b2lpTP6SNGffzvmrEPsLndyU2ui+9bnUXe2b11K9Zbt9O5yzng0BzrDS5TyR0gi26jpFMlT7y2zysX3GEFcJRCSq0mxiz6EFl9GcI5D/M6mApGpK/n8jOBpmUvx1xap87bY9pAQE/DYLZuZYDYPejZJQ2wOaA0iiKzcEsULKNgY7nAgTixIgZ01yZ6aVKCtgiNXJtg9Jjc/wR7o8xldS6cXU+K2AX2qaICxeI6kAAVKItOkS5R+1hdoPEqbivGfo3bK86h0zfSYTr3ExIWSOK9DoH4wNInVrewaPaJTJcwbPphS8aWsTiL5FZBJtJ0GK2NRHNcsIxgQD8/sbMixpwW2clM8+PYdoCeOir69pkdDQasUif20iW32WVJB6kAWBLlbo6JYmExPRWLz6N87eFeYKDOnTYtojEbdXhijbNkuUmbIttQCzKrLOY0IBPoPqEXjamAKa3D2SHFsmua43SPO7qMI7nUdKmTWfDaYFIz0Sit16HRQyJFShrwRP8Nz+CWzO4/PktlqVNVai41b8iCMZjNweLN0q/OG6pKjTAAdynd2mkMQYZXhABPbcxLqqR0GmhPgyY9TKLEPzmeCsAyFMrOGBU14MO51WQw75OiOi45dwd7TuAs2EpuPTf1inPHnKyKIMvNgkSKSKTJ25m7fWkFcNAxNOyTwwE2ByfaEMxdNGIxjjbCvWHIUOAIvuZ3drV/t9Pf6Nj3274hMhTjOOD62X0fTEa6Ep3X0kSc6j/RfvkLi14ZyfwSKcs6IgIrIUUPWxLRMgOVYXwehKqa9ws81eAriR4bFuNw5yj/ecSV1+5V29SfATYHJRQ3qZKXumwxp+ptOKNTMBivdD2J1036zwpMHLP1IviyFJo9kBHsB4JFmFazymSgU8/9S+FFFWOzARStVsSe4CzSKM7B/Bo51ztz602PYIHoSUHEI7EdE67Vir2nMeFyxSUpfU8GaAKVuOtHEDEgT0/paTHecycDUFLMpjhV40i0lhs17WMnAToOgMp9VCw7fKE8ZQp94ECN1R35a7oW1ilILa/HlaimL/AkWgytfA+tMBk4NQNsIMEDbA6Q1ZBlHeWAstP4FnHh3oQhr9wqvZECoQn1djs1283kusUp2G7ppXWekUsGcKyen3NenPPMtdhnLbR0/AYd0Uvhb0OTXp6vS5qBMGeRYtH+33NuD6/wgCbB7Ih4G7HpaTG8AjCnTYy0pdFIow4OaEABz5b/dhIG4x1kzwyrV10SRrnsfFKrzmQ2MCjdSQrcCf2u4xyAHDfEjHblspSDrJbZVjAKV6yw4kC1YkSJdAmcbfpn/Z+xmNPIa8LlpIrSuvhzjjb4RvcA71d+Hksm1gFrjCscVpQPbg5Kvlv9Y6zmwYH+EukyZjKcVnCtAIrUPuomTE/cnUTK5IFMajUpkgZitnIkN0ruHfC0RkGdLNHZd0JLlWp1nKsAVhbVQxY3hvnvvJgPq0xMPX3PeQMdPWYLyKzRJ1phRaPP5hDJTTZbKNe2pUUT1x7ARGKx040Mkyp5DSoqZTIDlcrtr+vFAO3qLQRnz8C9ANgMDmybH7PdJmqnrllvZAPc7uBNI9Tc62NiBTTk7PGSDGxzG9SaHsMrOo5HItlZBYaTyVQDbG5faoOTecd4ekxg2++yIHnA5fbMJJRM7+l5/h6b5rADMuR8ypMBKJpZnbzVe48py8dkOoO9g+o4TFX7HFny5oVqrJFIZl8QTsLPk5d+Ht2LyPUtlzSwl8F6C+5cgNlaM/Ay055lEV0+/6wjXPpYE32prxxGvTF2C5pXppacvYBQBalIdObgtRfdRvTlkHnNlRlF2lI74xR2tRG1WhMjaARcsbHIRqthuz+FFYMit0ObFn1JFt56a3O5P05wkrSJ+YTAtP/e4Wdz+ICy4gnc3P3Z6CFe1SijtZZw0rVmjzWZRkNnO72qHHXyAM6m7lu9NdFsjvDMthhOVy/F7CDKRbbqHe5mUejRL8UGSM9cOWsvmUjJxaEmc9pJ7y0gA6drwf+ojQ7iw8Wb3sS194ki7xPfsp9e2bqZs5SHXmxdqOJ16oBjCpROu0mB0I42BA5S7oZJZ/i0di5LobZkN9ReSnuZEmmGYgmZXWHQ279t7DNIvDxmp8laYmDP7aOXep1QQOboMXQv4zTA5tKwm16HL6FtuLPpU8dLmJy7P0sTk8kBEu92Hr0HmS7JU5bR77cJuqHdt+EMTc6Hm9WMJ8f6BIlUqYBNEj+cSAMQd4W3eW+Ul4qSbb3RLIbWNZTu34G2uXyjWhhmvWNc4TKATs8ovNcQN+sp9rZFAiiYWo8clmwj8iEW1bLGVCpwASQx6V2e262OWWbk/XvuHPYISHlbuiTGCtRLEBrNXmIqE93CSgK2hG4n1VllgMjsz0adIWHhXo3gtOkYDbA5xKA+E4l6bazF5uR8Yhz10d1C702XE1wvGpXGGHCUFaWQxQCxsbpZP4wTnEQBMNyzEW005/k1JDhd2gtKEFjREp6HMhGKwctj8Qy6pWOZt4Dglvfq7QcXhbFTPQet8qcBNofBZnqdXT0HPGedLovbtF0d0Og4HDCKHtBJCwyh1dQVwIHvsAIysTKyVqpYV6rMZHf/8PG6ObvcblmzUJtmcd0JRSBdyualodAacKkNFyysSEVPYqb9/9hLqTzMCiQ87lg/89aPXG92d/8rGGBz+JrNytoVmVI03i5Y0hXizv4pCwa0QZNB+xqavpq1XqBoslCAlN2jJX1nvNEt6XPTrCmXmouzU8X67MzaDZfZq05PCznl9b1GzWqFLhXriplApR6QrJSjeW3bjtfihJVsXEiAREoLH9WowwUaCm4zMHd8+aPeLS3rA9WMQUhxolfNMqmUexByACj271LITsF725ADNBV+9l92tPDa6iyCInDmOtxJSpexl0hvmmPTwWzHLO0q8dzbZux1a/dHCvrjbydJm1qf+AE2BynbNB9JmLTC3v3kvijpI2PMS0j0xzSHvHcLJPjWFhx4FXgjEjn45Is1LgoUOxqN6888A52dxk7zc+bS4QuEQ6tCTCeivnDRPERnjor1DcF9dloBgLwCMj35i105a5Xx8KVUay5dGkWtfuPuXzUrdy3jKEyGrZ5j2Uf0iTIzTWpvbHY+tdaTRp60HdQwjvsa8oapQja6sdPRK/+eJRCZ3bf1e7IAbd0Ew+A9RgvwWWadltcU9kcyuZfXuqOGpJY3gMPKXFPImnrfw6fQfgbY3MbplB3I7H2oZIcYb+itWbsNy/1TZCb1mDu6kjdsaSbJJYtRu0p6xunB1xS4th7EmgUZT2d5ikVK2nT1mqlxsj7EOWI79u2X6hX580bkEMYt7GJNArOXOwIWA0Y1zTsGkEcadYCUZtr/dnmCMp5i9lOJpjojbToJ/Uk9KwxAiLJiywP3hAUgHnlIWuy1Aiwie/+1clNHO8nSLjRoGXDBQEyRC4ApDGZZZicUU2+zg1e8M02ATZ3Pzj+dxCb0JLKf1zhu7UIF+cuejDfA5uDUYf2bb9wJWH8qWKYgnijLWN9QNonHnZbmP46GKtd8Ki27sn6UeQPnNybhcotmtQUthEq8vkTta1eT2NKehcxVn3tfbD+SSmmCDuIGJ7kdieB2/KvIaWrg/gTayqpQ3HFr9eawAoeTUfo+WLxpbnfkMBi7AtczzfI+I0mnWGw1Dw6mrrNhLVbIZiP6iv3cXY0omNWSuQZPZmEc/NEBchwEJ7FPVm1b821Cic3AEjvPtyYEd/xw9LvYi9dMQbpDG56rRwAjnUauUy9Opqw3HJ+ZYQ2wuZ1wx9uDPYm0ZIe4Ca93SxPL38gCVF7JCbxbudFzZE8Leu2ra1+Xk+Ck7Tjr2ACM+CteVxV6RY7gpE4NnRAdxeyVkFVKYq7LmukWKY6G1Owa3wAmkS0RVu4xXkz6JdMaOA2wOSDJRmonkHpNNtpJEtqM3UpACMvQVTtJwhUwumNbIJKNLbJzrhhe9VKvKFWy+QcZoLU2palW2MgCszzJxSFP9etQkPIsiwE58/aD1U55njRRhgvHpzUs542Aw6219aod6eggPsQUSt5ly6dicsBjTUBNiw5TStIE4b6XjZ5iE/0UfIIl6zIpDOeNt+TeyINt6JN61IIQLDtz5YqEPINMsnXb4Navnpr7m2+8y3QGv8zoltDFtrVp8ABk6qcmsoX21rZvo6EDbG5vwJnMwY0YhWUGUlOZl7/RvMmAyzrbHOgjvX1R0lLClC2ox2J6lSXHgq5ZNQzTkGI0LTvRPYPzUgknk2WadKqKvuy/7Z7VwzmY8taloBt32/KWdIZ8DA/7gHo6z9BsDlykYQk0FkRgAMc55FKYBZnHQvxz7qZLtCCjUpy8slaxAzCVCckTJ0Xrvm8lyQyuTAlaq8/IJc9uxfReblSFz+cEMgIj0fMU7gm1vAIOWbiWrj3WCnCN2ahD123CRNwDBdMhXA/ShG5jRcNe5OuQ5uNJz1XxFoCJPGvgWDjIcojQlJqHYZ1GJWO9KXUYKd6KwXLO7Hqhd61ET2vT0DvD0V7AiGmsyV9kpDlJGAdrGWDTinBSS7GfJpNO2bt/1XkkEzmaAWcygCKHL5O+pdYuXxjf4a16jBVjs99UlnO74ZOoZWje1gZPvGANbFy8Z4pHDXhxvXBeetPbsnWly0nkOCuR0OaVTv2UyQGZU5fNNzzVAJuDSKM2sB1722I5RmCZ0eTcJtkAmGQWcLpfe2a4vY9mdsq01qQrGRZjhjGl0QsLW7uuMKrb9pQ05KQe5BWU+PwSB+70LzJIT4qjg6He0ggpcfV2REWp1xaQdIp/A2xu/xSKGve8BjQgjEZye/Bchz3G0pOT0ZS0aznc2kj0uoQ5EDcYzUYGW2utZfJZp6GkT44SfiUdmICctIZVZRjWXcFktJkOLrKXMp2TMMNeJ4LEM0HkmIJVvEHxLk+BHBdJXVtTJ3YWawxmc5i5VMO75QEkU61Ztd6P+HZRDUUKxQYowuEa73GzzgsqKM7bMWkn3p4oVVcHQW/E2GEyRPC2QpB7kPR2BYvFy2gCznXlo8wAKfj1Lqboi0TV3GKivswcFCvXfvVbLCXsuvIVDjvA5rYGGlru4s3gIozFpnXFC7YRyDSp2dHR02J4hX+zszGBtfbDYq83O6MYgJPfMJreGjk5XQaUCNS+rPn7M+t1R87lYeZzBZlm0mTjAScyKZGD6+r+EhUWT0k/WO/9W+3kGmBzEFkUtLhLYshSaTdr/epoGUlNlVi1/K8zLO82af11SJ8InhlTaSKs6VKpak1w+/85x6dH+g/PIxuNrVXBTjvtCI+gnUO6ZO2EeoDC7VMqt+mOTUTYvXAe2JhbLPbwbqRRh5pBqelm7xbm1DpdxdT4+NKWO3lkF2G9bGyXs7gt1vW8JDyQRXOhMkXXQ5LL60twW1nFUCQzmGZ2U02u1KlxUqhzFH5VZ4BHTmGcWzmQTxjgBH8LTnSfOSUwqkvIfrLsqYYjjTpIbuOJvkbDaTZROp8k4jZN4ZMAjAE32yxoNR474a3W1JJhQuXPkxYbVDqV9am2/UXEImtjuCu/4QDNWViM+DUUIPEcWptLTisPazPTXvn6tBTDkeTWFDmPWw6wOViKQ/Brmh1ruOZ2tGWymnwhQAnTVo9x/s02qig8lBPbBkw5Wg3gbXtggCfeD006ulIz2X2O1SXPfpm07bMqoEV20p4uwk7j+HmV3u2vssOHvas/0qhD1WyaT3fvU2crQHJ/1BYtpsdkDGCxEA9kqboBDeORU2eyIh/l3uI6yWpMs2LOzlsho3Dy2X8fjkmhGkh3mIMyKezIYHI4MqxAyXvOCUrYbFnYRjbDG/48wOZgCA07t9EEtzxR75bez3g8GiK98SpC9tw71SZ535M9NI0hSxYvSTQWNiAV7R+ZTyFFVKGyBbFusuDTOYFMhrs0Ql6G5q2In7UpVbjMIWpn6okpKx8hDqwsPBazBfIxwOZQuU3wUSi6SU2+14qUzSa1Ni2Rw4skGEydUTJ1CrstgG3KZIXkhMZXs1bdUoexlTJJmq3k2AjS5sTlcy5hO37qarzAWS5hcVStqArsj7c22YVE1HQ/c8CebHq0pdJEA2wOHWqo5eH14NvbZA9kogw8qMHK6peq5dpdTtIkK4vKU25HGyjYs83O62JnHox284bLyQAlnZ/wG4EMtamSJXyNxGUyUXD8K+YTfy6cSGh1+s4nofNpGHEJmY24s0/tipLQ6p63AY7VTCJbB5JbEdDWdtlMb/MEt1LmOnbLUypMwYjbrW352KSNNUch5nmO7KwVJuuQSrFYyp6zXfB3mbE2l/CkABjtcsptuuQtUrAPRRvxbKRRh63Z0FIOlhWe6YS3QHb0GPbTMnmLVhPXybEMtWJFtLlzbRWLbOArw5h2gZ1J/9i8Dj4Hti/sjWlNA/EUU2cczK4MB/SfZW8ie1pPDwWobcTz0qU17YWxbWnOYDaXQrOBZhabkvi1iWyzx5Ws0GB6XSTAqVTJUzWx8nG2DnzWiCubpddShJZfco/GyZ1ZbLZoUiFb5XezQed0h6aF1M5KSYmLeAP76un4Z9Bl1lgMDbA5ZHYj/YF72wyAeI2K/VSbzFyeHupk+fXOPTnsKJgGV+kOm9Srs3JG7Sg3j1tbcelsH39vIRt0u5C1omgsO8ns8aMglbIgRn22QsG2U1vJ8iyDt4BPBEhAPGJ7mfWcS7bKxXO3g27t93xjIo2HDdioyb+5amSXuuWsP+UcmfQGGb8se8tTW3ZAqUoWmU2ccnWLbQ8+haJgZpiKywXBwXXhD+9V6avUhbYboGEkNo3izskuJFJkuLQi3WzhuF7W5/HPlas7/GwOXcRp7z3i7k+5ve1KoxMr7NZ0SN7ahfUmBACFIxMdbUhVoLKv8bC9nUOAjlVYvX5/Ot0lhLO/zugobDRupuAWXwpyHFABivM7at0x1Dfm3madAFjWNrjQht9c5xY3wOYg32DCEZK19WQjCtgEXth7ygVxVWAmJy2RPS60WHQiB4k/L85OvCb4stZ5OLc7SHp+u0ytVaj7cfdcrwSOCI+bZljSpigdZrIqg9mSs3UANF0AbrOd+HVGvJE6kO9lclGi3VlbuBa7ATYHFE8c04PIxcGbfEWz+fRPenyX5W2XdcOIW5WybbDsdKB1FrHx5AsN1ceYdcmH4YsbEhGaExd0tZG5QMt/SY1pGWAIl4giJmwRyHTBCaYBe9cecrmq/DQe5D2/rDUjV68pIcLbO45wdYDNAcUHHzx+/0MPHT9yz0uf8nRcY3NLNmIBuD3IEFahdUNB0HFbq02REtpx5eOMeOIGokOYTGnHGxgKhGY53CmVVO9ezEZHTga7LPnySs1mcJ7WTjT0YHsDMKSzQ0p9+rCms/TSIt6Y7K710ligqXOuO+CRx/HQAJsDihs3phu/9tuP/tpnv/7eN+Cjj+u6bOPhK04MWXbgrNmtrOVYpDmCXPNa8TTDb52Ffj650RJoNh7orjnLaNiAHjnWdbwklQxu1tkW9z5jUhg8jKuaUk/7Zp9wUu/SBT+/aQNmB5qjdklg/Tm2uhqVJ/ql38UvDbA5sPjRn/jQD372X3zpGxbtIguDKSyajNfZW3dH2TEA2by3M/lEr3YrgKZ+yewVZ2ebpHLJsyIx+dYXXokkHB2k8nBEpjCuiFHunFIDNAxTWfJYDQfphr0fIEixNlbu10TeHjPpVao8BpR6LImB+z4J+OhDwH97H35sgM2BxXe/8/3f946/9fK/9+xPf+bz8GsPA1d2aCa2pQUcsSOWlk//ccsqpK9B4/2S2xyjVquSNlyxmxcsSJAzU2VnmixDkutyoyNUscZryNFY1+z0s9mX6Jchu+yzY8ZLnjAMhHOvzC1YrTIK9EcOoi7gHkh1Et8QzO6+F/jWH8S//Nhj+PAAm0NLpW7m/Oav/IW3/Px7v+hn8Zw7gY9eXwpHciBTnhZbVumZmKu1Lc4JVcKGoAZ5ijN86qgPHNyzuwuu7T5xvZvb7dBlByhS8DMS98rtXWJkr58/uGyNMBvgf0el6vbM8AadZc2JIiEuedu/Txl4yf3AT/8i3v9P/zv+Ni5ZXJo+m//1yw//3De/7X9/83f8wOd8B+7cAR+4ZkDGVHHq1wIDFqte2kaRymiyfz9kOACxQViWZWxKrebT1H7JuW3bbuf2+KlZ0hVR1x2ehJbBbNbqDswHQNSMFXCMvz3beu6kSUC/FB4xmagtKInvnTJwxxHwwk8GPvBh3HjLv8EX4RI2El+qpr7v/MHf/s7f+NC1D3zPv3j9P3vWK+55Fv7oCeChJ4Cb3PbVMwOJ9P3LHTWW/jLZbCywOo+hDTaHcJkNaVZUSkMqXUtBvmHaaKVSa1eSp/3bZXIwyJwkb9zAPbXkUAA7NK+FaPVzTdeBuSTlNSbxv/IrSqS6ntwhFMK2hj2JgQmxL5cCJwZ2CXjKEXDfM/ay3o/+PN7zVe/EVz38OH4dlzAuXQfxf/ipj/z7n/rj//kn3/F3X/FNX/7m+7/ixS946v143pX9Qc5rthKMsEjalK6Bdj8tVsj6lnpG2qBQOPfeyAcHBBzdAVy/gfQEgOvmU+GVZ3iFFvRYUCSkELB57bkEsCPgBR8FrtwArj5luUL3XNnwetbWuHR+3at19bR383jwGvBTv4L/+69/Ft/3Y/8H/wqXOI4u45t+9Hp++Fu+/YFv+ZZvf+DbXvWqp33ay19016vvSPx0TDhWZpjt8qGgdpLJeIna3MwTLCj4Ovc/yhY1utYT1EqpzmNTAvIx8WPMPIGRavmbiJCYK3VbeIxcZhdLGggzjf27sWNFTskOep0VKS6FlHB07RFO168jp7Q8xhU6UTNfKNPwBh3HdG6BABztsHv0CTz4Ww/il3/nIbwXIy4n2Ejt+IEHHvnFBx545BfHR+F2j+EgM8BmxIgRIwbYjDhlnGbcaMQAmxEjRn4zYoDNiAEwIwbYjBgxgGbEAJsRI0YMsBkxYsQAmxEjRgo1YoDNiAsGKmtLtUaMuFxgwzzOwGAxIwbYjBgxYoDNiBEjRgywGTFixACbESNGjBhgM2LEiE9Y/H+RbUMNB4+wGQAAAABJRU5ErkJggg==;" parent="1" vertex="1">
          <mxGeometry x="840" y="385.5" width="63.21" height="54.5" as="geometry" />
        </mxCell>
        <mxCell id="S5GqEVZqtkomO6TtCBoP-30" value="" style="endArrow=classic;html=1;rounded=0;exitX=1;exitY=0.5;exitDx=0;exitDy=0;entryX=0;entryY=0.5;entryDx=0;entryDy=0;" parent="1" source="S5GqEVZqtkomO6TtCBoP-23" target="S5GqEVZqtkomO6TtCBoP-28" edge="1">
          <mxGeometry width="50" height="50" relative="1" as="geometry">
            <mxPoint x="690" y="210" as="sourcePoint" />
            <mxPoint x="740" y="160" as="targetPoint" />
          </mxGeometry>
        </mxCell>
        <mxCell id="S5GqEVZqtkomO6TtCBoP-31" value="" style="endArrow=classic;html=1;rounded=0;exitX=1;exitY=0.5;exitDx=0;exitDy=0;entryX=0;entryY=0.5;entryDx=0;entryDy=0;" parent="1" source="S5GqEVZqtkomO6TtCBoP-23" target="S5GqEVZqtkomO6TtCBoP-29" edge="1">
          <mxGeometry width="50" height="50" relative="1" as="geometry">
            <mxPoint x="700" y="220" as="sourcePoint" />
            <mxPoint x="750" y="170" as="targetPoint" />
          </mxGeometry>
        </mxCell>
        <mxCell id="S5GqEVZqtkomO6TtCBoP-32" value="" style="endArrow=classic;html=1;rounded=0;exitX=1;exitY=0.5;exitDx=0;exitDy=0;" parent="1" source="S5GqEVZqtkomO6TtCBoP-23" target="S5GqEVZqtkomO6TtCBoP-27" edge="1">
          <mxGeometry width="50" height="50" relative="1" as="geometry">
            <mxPoint x="710" y="230" as="sourcePoint" />
            <mxPoint x="760" y="180" as="targetPoint" />
          </mxGeometry>
        </mxCell>
      </root>
    </mxGraphModel>
  </diagram>
</mxfile>
